%TF.GenerationSoftware,KiCad,Pcbnew,(6.0.4)*%
%TF.CreationDate,2022-05-20T10:39:20+03:00*%
%TF.ProjectId,KartliGecis_v1,4b617274-6c69-4476-9563-69735f76312e,v1.0*%
%TF.SameCoordinates,Original*%
%TF.FileFunction,Copper,L2,Bot*%
%TF.FilePolarity,Positive*%
%FSLAX46Y46*%
G04 Gerber Fmt 4.6, Leading zero omitted, Abs format (unit mm)*
G04 Created by KiCad (PCBNEW (6.0.4)) date 2022-05-20 10:39:20*
%MOMM*%
%LPD*%
G01*
G04 APERTURE LIST*
G04 Aperture macros list*
%AMRoundRect*
0 Rectangle with rounded corners*
0 $1 Rounding radius*
0 $2 $3 $4 $5 $6 $7 $8 $9 X,Y pos of 4 corners*
0 Add a 4 corners polygon primitive as box body*
4,1,4,$2,$3,$4,$5,$6,$7,$8,$9,$2,$3,0*
0 Add four circle primitives for the rounded corners*
1,1,$1+$1,$2,$3*
1,1,$1+$1,$4,$5*
1,1,$1+$1,$6,$7*
1,1,$1+$1,$8,$9*
0 Add four rect primitives between the rounded corners*
20,1,$1+$1,$2,$3,$4,$5,0*
20,1,$1+$1,$4,$5,$6,$7,0*
20,1,$1+$1,$6,$7,$8,$9,0*
20,1,$1+$1,$8,$9,$2,$3,0*%
%AMFreePoly0*
4,1,22,0.550000,-0.750000,0.000000,-0.750000,0.000000,-0.745033,-0.079941,-0.743568,-0.215256,-0.701293,-0.333266,-0.622738,-0.424486,-0.514219,-0.481581,-0.384460,-0.499164,-0.250000,-0.500000,-0.250000,-0.500000,0.250000,-0.499164,0.250000,-0.499963,0.256109,-0.478152,0.396186,-0.417904,0.524511,-0.324060,0.630769,-0.204165,0.706417,-0.067858,0.745374,0.000000,0.744959,0.000000,0.750000,
0.550000,0.750000,0.550000,-0.750000,0.550000,-0.750000,$1*%
%AMFreePoly1*
4,1,20,0.000000,0.744959,0.073905,0.744508,0.209726,0.703889,0.328688,0.626782,0.421226,0.519385,0.479903,0.390333,0.500000,0.250000,0.500000,-0.250000,0.499851,-0.262216,0.476331,-0.402017,0.414519,-0.529596,0.319384,-0.634700,0.198574,-0.708877,0.061801,-0.746166,0.000000,-0.745033,0.000000,-0.750000,-0.550000,-0.750000,-0.550000,0.750000,0.000000,0.750000,0.000000,0.744959,
0.000000,0.744959,$1*%
G04 Aperture macros list end*
%TA.AperFunction,ComponentPad*%
%ADD10R,2.000000X2.000000*%
%TD*%
%TA.AperFunction,ComponentPad*%
%ADD11C,2.000000*%
%TD*%
%TA.AperFunction,ComponentPad*%
%ADD12R,1.500000X1.500000*%
%TD*%
%TA.AperFunction,ComponentPad*%
%ADD13C,1.500000*%
%TD*%
%TA.AperFunction,ComponentPad*%
%ADD14C,2.100000*%
%TD*%
%TA.AperFunction,ComponentPad*%
%ADD15C,1.750000*%
%TD*%
%TA.AperFunction,ComponentPad*%
%ADD16C,2.445000*%
%TD*%
%TA.AperFunction,ComponentPad*%
%ADD17R,1.408000X1.408000*%
%TD*%
%TA.AperFunction,ComponentPad*%
%ADD18C,1.408000*%
%TD*%
%TA.AperFunction,ComponentPad*%
%ADD19C,1.524000*%
%TD*%
%TA.AperFunction,ComponentPad*%
%ADD20R,1.700000X1.700000*%
%TD*%
%TA.AperFunction,ComponentPad*%
%ADD21O,1.700000X1.700000*%
%TD*%
%TA.AperFunction,ComponentPad*%
%ADD22RoundRect,0.250000X-0.725000X0.600000X-0.725000X-0.600000X0.725000X-0.600000X0.725000X0.600000X0*%
%TD*%
%TA.AperFunction,ComponentPad*%
%ADD23O,1.950000X1.700000*%
%TD*%
%TA.AperFunction,ComponentPad*%
%ADD24R,1.600000X1.600000*%
%TD*%
%TA.AperFunction,ComponentPad*%
%ADD25C,1.600000*%
%TD*%
%TA.AperFunction,ComponentPad*%
%ADD26R,3.000000X3.000000*%
%TD*%
%TA.AperFunction,ComponentPad*%
%ADD27RoundRect,0.250000X0.725000X-0.600000X0.725000X0.600000X-0.725000X0.600000X-0.725000X-0.600000X0*%
%TD*%
%TA.AperFunction,SMDPad,CuDef*%
%ADD28FreePoly0,180.000000*%
%TD*%
%TA.AperFunction,SMDPad,CuDef*%
%ADD29R,1.000000X1.500000*%
%TD*%
%TA.AperFunction,SMDPad,CuDef*%
%ADD30FreePoly1,180.000000*%
%TD*%
%TA.AperFunction,SMDPad,CuDef*%
%ADD31RoundRect,0.250000X-0.450000X0.325000X-0.450000X-0.325000X0.450000X-0.325000X0.450000X0.325000X0*%
%TD*%
%TA.AperFunction,SMDPad,CuDef*%
%ADD32RoundRect,0.237500X-0.250000X-0.237500X0.250000X-0.237500X0.250000X0.237500X-0.250000X0.237500X0*%
%TD*%
%TA.AperFunction,SMDPad,CuDef*%
%ADD33RoundRect,0.237500X0.250000X0.237500X-0.250000X0.237500X-0.250000X-0.237500X0.250000X-0.237500X0*%
%TD*%
%TA.AperFunction,ViaPad*%
%ADD34C,0.800000*%
%TD*%
%TA.AperFunction,ViaPad*%
%ADD35C,0.700000*%
%TD*%
%TA.AperFunction,ViaPad*%
%ADD36C,1.000000*%
%TD*%
%TA.AperFunction,ViaPad*%
%ADD37C,0.600000*%
%TD*%
%TA.AperFunction,ViaPad*%
%ADD38C,1.500000*%
%TD*%
%TA.AperFunction,ViaPad*%
%ADD39C,0.400000*%
%TD*%
%TA.AperFunction,Conductor*%
%ADD40C,0.500000*%
%TD*%
%TA.AperFunction,Conductor*%
%ADD41C,0.250000*%
%TD*%
%TA.AperFunction,Conductor*%
%ADD42C,0.300000*%
%TD*%
%TA.AperFunction,Conductor*%
%ADD43C,0.400000*%
%TD*%
%TA.AperFunction,Conductor*%
%ADD44C,0.800000*%
%TD*%
%TA.AperFunction,Conductor*%
%ADD45C,1.500000*%
%TD*%
%TA.AperFunction,Conductor*%
%ADD46C,0.200000*%
%TD*%
%TA.AperFunction,Conductor*%
%ADD47C,0.600000*%
%TD*%
G04 APERTURE END LIST*
D10*
%TO.P,BZ1,1,+*%
%TO.N,+5V*%
X58166000Y-49784000D03*
D11*
%TO.P,BZ1,2*%
%TO.N,/Power_Relay_SDCard_Screen_RFID/uln_buzzer*%
X65766000Y-49784000D03*
%TD*%
D12*
%TO.P,J2,1*%
%TO.N,+5V*%
X90576400Y-115366800D03*
D13*
%TO.P,J2,2*%
%TO.N,GND*%
X89556400Y-113586800D03*
%TO.P,J2,3*%
%TO.N,unconnected-(J2-Pad3)*%
X88536400Y-115366800D03*
%TO.P,J2,4*%
%TO.N,MASTER_RX*%
X87516400Y-113586800D03*
%TO.P,J2,5*%
%TO.N,unconnected-(J2-Pad5)*%
X86496400Y-115366800D03*
%TO.P,J2,6*%
%TO.N,MASTER_TX*%
X85476400Y-113586800D03*
%TO.P,J2,7*%
%TO.N,unconnected-(J2-Pad7)*%
X84456400Y-115366800D03*
%TO.P,J2,8*%
%TO.N,unconnected-(J2-Pad8)*%
X83436400Y-113586800D03*
%TO.P,J2,9*%
%TO.N,Net-(J2-Pad9)*%
X93876400Y-108766800D03*
%TO.P,J2,10*%
%TO.N,+5V*%
X91586400Y-108766800D03*
%TO.P,J2,11*%
%TO.N,Net-(J2-Pad11)*%
X82446400Y-108766800D03*
%TO.P,J2,12*%
%TO.N,+5V*%
X80156400Y-108766800D03*
D11*
%TO.P,J2,SH*%
%TO.N,GND*%
X95146400Y-114476800D03*
X78886400Y-114476800D03*
%TD*%
D14*
%TO.P,SW1,*%
%TO.N,*%
X72370000Y-110260600D03*
X65360000Y-110260600D03*
D15*
%TO.P,SW1,1*%
%TO.N,ESP_RST*%
X71120000Y-112750600D03*
%TO.P,SW1,2*%
%TO.N,GND*%
X66620000Y-112750600D03*
%TD*%
D14*
%TO.P,SW2,*%
%TO.N,*%
X69489000Y-52807400D03*
X76499000Y-52807400D03*
D15*
%TO.P,SW2,1*%
%TO.N,/ESP32_POE_ETHERNET/IN1_BTNCONFIG*%
X70739000Y-50317400D03*
%TO.P,SW2,2*%
%TO.N,+3V3*%
X75239000Y-50317400D03*
%TD*%
D16*
%TO.P,U2,GND1,GND1*%
%TO.N,Net-(C12-Pad1)*%
X97461800Y-109522800D03*
%TO.P,U2,GND2,GND2*%
%TO.N,GND*%
X112951800Y-109522800D03*
D17*
%TO.P,U2,P1,RX+*%
%TO.N,/ESP32_POE_ETHERNET/RXP*%
X99491800Y-103682800D03*
D18*
%TO.P,U2,P2,RX-*%
%TO.N,/ESP32_POE_ETHERNET/RXN*%
X100761800Y-106222800D03*
%TO.P,U2,P3,RXCT*%
%TO.N,Net-(C1-Pad2)*%
X102031800Y-103682800D03*
%TO.P,U2,P4,TXCT*%
X103301800Y-106222800D03*
%TO.P,U2,P5,TX+*%
%TO.N,/ESP32_POE_ETHERNET/TXP*%
X104571800Y-103682800D03*
%TO.P,U2,P6,TX-*%
%TO.N,/ESP32_POE_ETHERNET/TXN*%
X105841800Y-106222800D03*
%TO.P,U2,P7*%
%TO.N,N/C*%
X107111800Y-103682800D03*
%TO.P,U2,P8*%
X108381800Y-106222800D03*
%TO.P,U2,P9,V+*%
%TO.N,/ESP32_POE_ETHERNET/PoE+*%
X109651800Y-103682800D03*
%TO.P,U2,P10,V-*%
%TO.N,/ESP32_POE_ETHERNET/PoE-*%
X110921800Y-106222800D03*
D19*
%TO.P,U2,P11,Y+*%
%TO.N,/ESP32_POE_ETHERNET/REGOFF\u005Cyellow+*%
X98581800Y-116652800D03*
%TO.P,U2,P12,Y-*%
%TO.N,Net-(R14-Pad1)*%
X101121800Y-116652800D03*
%TO.P,U2,P13,G+*%
%TO.N,Net-(R6-Pad2)*%
X109291800Y-116652800D03*
%TO.P,U2,P14,G-*%
%TO.N,/ESP32_POE_ETHERNET/NINTSEL\u005CLinked*%
X111831800Y-116652800D03*
%TD*%
D20*
%TO.P,U8,1,3.3V*%
%TO.N,+3V3*%
X147802600Y-102514400D03*
D21*
%TO.P,U8,2,RST*%
%TO.N,Net-(JP6-Pad1)*%
X150342600Y-102514400D03*
%TO.P,U8,3,GND*%
%TO.N,GND*%
X152882600Y-102514400D03*
%TO.P,U8,4,IRQ*%
%TO.N,unconnected-(U8-Pad4)*%
X155422600Y-102514400D03*
%TO.P,U8,5,MISO*%
%TO.N,HMISO\u005C12*%
X157962600Y-102514400D03*
%TO.P,U8,6,MOSI*%
%TO.N,HMOSI\u005C13*%
X160502600Y-102514400D03*
%TO.P,U8,7,SCK*%
%TO.N,HSCK\u005C14*%
X163042600Y-102514400D03*
%TO.P,U8,8,SDA*%
%TO.N,/ESP32_POE_ETHERNET/CS_RFID\u005C5*%
X165582600Y-102514400D03*
%TD*%
D22*
%TO.P,J7,1,Pin_1*%
%TO.N,Net-(J7-Pad1)*%
X87020400Y-83656800D03*
D23*
%TO.P,J7,2,Pin_2*%
%TO.N,Net-(J7-Pad2)*%
X87020400Y-86156800D03*
%TO.P,J7,3,Pin_3*%
%TO.N,Net-(J7-Pad3)*%
X87020400Y-88656800D03*
%TD*%
D24*
%TO.P,U7,1*%
%TO.N,Net-(RM3-Pad3.2)*%
X67046000Y-57902000D03*
D25*
%TO.P,U7,2*%
%TO.N,GND*%
X67046000Y-60442000D03*
%TO.P,U7,3*%
%TO.N,/ESP32_POE_ETHERNET/INB*%
X74666000Y-60442000D03*
%TO.P,U7,4*%
%TO.N,+3V3*%
X74666000Y-57902000D03*
%TD*%
D22*
%TO.P,J5,1,Pin_1*%
%TO.N,Net-(J5-Pad1)*%
X80230200Y-83656800D03*
D23*
%TO.P,J5,2,Pin_2*%
%TO.N,Net-(J5-Pad2)*%
X80230200Y-86156800D03*
%TO.P,J5,3,Pin_3*%
%TO.N,Net-(J5-Pad3)*%
X80230200Y-88656800D03*
%TD*%
D24*
%TO.P,U6,1*%
%TO.N,Net-(RM3-Pad1.2)*%
X55890000Y-57912000D03*
D25*
%TO.P,U6,2*%
%TO.N,GND*%
X55890000Y-60452000D03*
%TO.P,U6,3*%
%TO.N,/ESP32_POE_ETHERNET/INA*%
X63510000Y-60452000D03*
%TO.P,U6,4*%
%TO.N,+3V3*%
X63510000Y-57912000D03*
%TD*%
D11*
%TO.P,K2,1*%
%TO.N,+5V*%
X57074100Y-88599900D03*
%TO.P,K2,4*%
%TO.N,/Power_Relay_SDCard_Screen_RFID/COM*%
X64694100Y-88599900D03*
%TO.P,K2,6*%
%TO.N,unconnected-(K2-Pad6)*%
X69774100Y-88599900D03*
%TO.P,K2,8*%
%TO.N,/Power_Relay_SDCard_Screen_RFID/Role_Cikis*%
X74854100Y-88599900D03*
%TO.P,K2,9*%
%TO.N,Net-(J7-Pad3)*%
X74854100Y-96219900D03*
%TO.P,K2,11*%
%TO.N,Net-(J7-Pad2)*%
X69774100Y-96219900D03*
%TO.P,K2,13*%
%TO.N,Net-(J7-Pad1)*%
X64694100Y-96219900D03*
%TO.P,K2,16*%
%TO.N,Net-(D4-Pad1)*%
X57074100Y-96219900D03*
%TD*%
D20*
%TO.P,J1,1,Pin_1*%
%TO.N,+3V3*%
X118338600Y-45212000D03*
D21*
%TO.P,J1,2,Pin_2*%
%TO.N,GND*%
X120878600Y-45212000D03*
%TO.P,J1,3,Pin_3*%
%TO.N,MASTER_TX*%
X123418600Y-45212000D03*
%TO.P,J1,4,Pin_4*%
%TO.N,MASTER_RX*%
X125958600Y-45212000D03*
%TO.P,J1,5,Pin_5*%
%TO.N,ESP_RST*%
X128498600Y-45212000D03*
%TO.P,J1,6,Pin_6*%
%TO.N,/ESP32_POE_ETHERNET/IO0\u005CEMAC_RX_CLK*%
X131038600Y-45212000D03*
%TD*%
D22*
%TO.P,J3,1,Pin_1*%
%TO.N,Net-(J3-Pad1)*%
X80416600Y-71170800D03*
D23*
%TO.P,J3,2,Pin_2*%
%TO.N,Net-(J3-Pad2)*%
X80416600Y-73670800D03*
%TO.P,J3,3,Pin_3*%
%TO.N,+3V3*%
X80416600Y-76170800D03*
%TD*%
D26*
%TO.P,U5,1,IN+*%
%TO.N,/ESP32_POE_ETHERNET/PoE+*%
X118148000Y-118297000D03*
%TO.P,U5,2,IN-*%
%TO.N,/ESP32_POE_ETHERNET/PoE-*%
X135598000Y-118297000D03*
%TO.P,U5,3,OUT-*%
%TO.N,GND*%
X135598000Y-78807000D03*
%TO.P,U5,4,OUT+*%
%TO.N,+5V*%
X118148000Y-78807000D03*
%TD*%
D27*
%TO.P,J8,1,Pin_1*%
%TO.N,/Power_Relay_SDCard_Screen_RFID/COM*%
X79366600Y-102859200D03*
D23*
%TO.P,J8,2,Pin_2*%
%TO.N,/Power_Relay_SDCard_Screen_RFID/Role_Acil_Cikis*%
X79366600Y-100359200D03*
%TO.P,J8,3,Pin_3*%
%TO.N,/Power_Relay_SDCard_Screen_RFID/Role_Cikis*%
X79366600Y-97859200D03*
%TO.P,J8,4,Pin_4*%
%TO.N,/Power_Relay_SDCard_Screen_RFID/Role_Giris*%
X79366600Y-95359200D03*
%TD*%
D11*
%TO.P,K3,1*%
%TO.N,+5V*%
X57069100Y-99267900D03*
%TO.P,K3,4*%
%TO.N,/Power_Relay_SDCard_Screen_RFID/COM*%
X64689100Y-99267900D03*
%TO.P,K3,6*%
%TO.N,/Power_Relay_SDCard_Screen_RFID/Role_Acil_Cikis*%
X69769100Y-99267900D03*
%TO.P,K3,8*%
%TO.N,unconnected-(K3-Pad8)*%
X74849100Y-99267900D03*
%TO.P,K3,9*%
%TO.N,unconnected-(K3-Pad9)*%
X74849100Y-106887900D03*
%TO.P,K3,11*%
%TO.N,unconnected-(K3-Pad11)*%
X69769100Y-106887900D03*
%TO.P,K3,13*%
%TO.N,unconnected-(K3-Pad13)*%
X64689100Y-106887900D03*
%TO.P,K3,16*%
%TO.N,Net-(D5-Pad1)*%
X57069100Y-106887900D03*
%TD*%
%TO.P,K1,1*%
%TO.N,+5V*%
X57094500Y-77931900D03*
%TO.P,K1,4*%
%TO.N,/Power_Relay_SDCard_Screen_RFID/COM*%
X64714500Y-77931900D03*
%TO.P,K1,6*%
%TO.N,unconnected-(K1-Pad6)*%
X69794500Y-77931900D03*
%TO.P,K1,8*%
%TO.N,/Power_Relay_SDCard_Screen_RFID/Role_Giris*%
X74874500Y-77931900D03*
%TO.P,K1,9*%
%TO.N,Net-(J5-Pad3)*%
X74874500Y-85551900D03*
%TO.P,K1,11*%
%TO.N,Net-(J5-Pad2)*%
X69794500Y-85551900D03*
%TO.P,K1,13*%
%TO.N,Net-(J5-Pad1)*%
X64714500Y-85551900D03*
%TO.P,K1,16*%
%TO.N,Net-(D3-Pad1)*%
X57094500Y-85551900D03*
%TD*%
D20*
%TO.P,U10,1,VCC*%
%TO.N,+5V*%
X140919200Y-95353600D03*
D21*
%TO.P,U10,2,GND*%
%TO.N,GND*%
X140919200Y-92813600D03*
%TO.P,U10,3,CS*%
%TO.N,/ESP32_POE_ETHERNET/CS_EKRAN*%
X140919200Y-90273600D03*
%TO.P,U10,4,RESET*%
%TO.N,ESP_RST*%
X140919200Y-87733600D03*
%TO.P,U10,5,DC/RS*%
%TO.N,/ESP32_POE_ETHERNET/EKRAN_DC_RS*%
X140919200Y-85193600D03*
%TO.P,U10,6,MOSI/SDI*%
%TO.N,HMOSI\u005C13*%
X140919200Y-82653600D03*
%TO.P,U10,7,SCK*%
%TO.N,HSCK\u005C14*%
X140919200Y-80113600D03*
%TO.P,U10,8,LED*%
%TO.N,+3V3*%
X140919200Y-77573600D03*
%TD*%
D24*
%TO.P,C23,1*%
%TO.N,+5V*%
X148691600Y-94778713D03*
D25*
%TO.P,C23,2*%
%TO.N,GND*%
X148691600Y-92278713D03*
%TD*%
D20*
%TO.P,J6,1,Pin_1*%
%TO.N,/ESP32_POE_ETHERNET/Role1*%
X71937800Y-72273400D03*
D21*
%TO.P,J6,2,Pin_2*%
%TO.N,Net-(J6-Pad2)*%
X69397800Y-72273400D03*
%TO.P,J6,3,Pin_3*%
%TO.N,/ESP32_POE_ETHERNET/Role2*%
X71937800Y-69733400D03*
%TO.P,J6,4,Pin_4*%
%TO.N,Net-(J6-Pad4)*%
X69397800Y-69733400D03*
%TO.P,J6,5,Pin_5*%
%TO.N,/ESP32_POE_ETHERNET/IO17\u005CRST_RFID*%
X71937800Y-67193400D03*
%TO.P,J6,6,Pin_6*%
%TO.N,Net-(J6-Pad6)*%
X69397800Y-67193400D03*
%TD*%
D28*
%TO.P,JP3,1,A*%
%TO.N,Net-(C13-Pad2)*%
X96245200Y-98145600D03*
D29*
%TO.P,JP3,2,C*%
%TO.N,/ESP32_POE_ETHERNET/RST_PHY*%
X94945200Y-98145600D03*
D30*
%TO.P,JP3,3,B*%
%TO.N,ESP_RST*%
X93645200Y-98145600D03*
%TD*%
D31*
%TO.P,R6,1*%
%TO.N,Net-(C7-Pad1)*%
X106019600Y-114672000D03*
%TO.P,R6,2*%
%TO.N,Net-(R6-Pad2)*%
X106019600Y-116722000D03*
%TD*%
%TO.P,R14,1*%
%TO.N,Net-(R14-Pad1)*%
X103581200Y-114697400D03*
%TO.P,R14,2*%
%TO.N,GND*%
X103581200Y-116747400D03*
%TD*%
D32*
%TO.P,R18,1*%
%TO.N,MASTER_RX*%
X90883100Y-110794800D03*
%TO.P,R18,2*%
%TO.N,Net-(J2-Pad9)*%
X92708100Y-110794800D03*
%TD*%
D33*
%TO.P,R19,1*%
%TO.N,MASTER_TX*%
X84326100Y-110794800D03*
%TO.P,R19,2*%
%TO.N,Net-(J2-Pad11)*%
X82501100Y-110794800D03*
%TD*%
D34*
%TO.N,GND*%
X62387346Y-66043981D03*
D35*
X91795600Y-95935800D03*
D34*
X103759000Y-90830400D03*
D35*
X106026132Y-78949732D03*
D34*
X103759000Y-89814400D03*
X103581200Y-118008400D03*
X105003600Y-89814400D03*
D36*
X115544600Y-95478600D03*
X118160800Y-70815200D03*
D35*
X129904226Y-71640500D03*
X129246918Y-70986164D03*
X115595400Y-91033600D03*
D36*
X148107400Y-76454000D03*
D35*
X111048800Y-90932000D03*
D36*
X123012200Y-109524800D03*
D35*
X80467200Y-53441600D03*
D34*
X158216600Y-77774800D03*
D36*
X163220400Y-66878200D03*
X163118800Y-76428600D03*
D34*
X110490000Y-50444400D03*
D35*
X81610200Y-48641000D03*
D36*
X147345400Y-69875400D03*
D34*
X65049400Y-65278000D03*
X89712800Y-68173600D03*
D35*
X91871800Y-99136200D03*
X115544600Y-89560400D03*
D34*
X93167200Y-50596800D03*
D36*
X57150000Y-66167000D03*
D37*
%TO.N,Net-(C1-Pad2)*%
X99110800Y-95046800D03*
D36*
%TO.N,+3V3*%
X115570000Y-63601600D03*
X144145000Y-77470000D03*
D35*
X156413200Y-80190500D03*
D36*
X159080200Y-86360000D03*
D34*
%TO.N,ESP_RST*%
X122351800Y-48158400D03*
X88265000Y-61671200D03*
D37*
X112115600Y-52857400D03*
D34*
X89001600Y-53848000D03*
D35*
X89966800Y-98247200D03*
D37*
X104800400Y-52933600D03*
%TO.N,Net-(C7-Pad1)*%
X102886277Y-93218000D03*
X106045000Y-110693200D03*
X107061000Y-93167200D03*
X107442000Y-95529400D03*
%TO.N,Net-(C13-Pad2)*%
X98348800Y-91846400D03*
D38*
%TO.N,+5V*%
X55499000Y-71755000D03*
X115570000Y-76454000D03*
D35*
%TO.N,HMOSI\u005C13*%
X159004000Y-82194400D03*
X162382200Y-82270600D03*
%TO.N,HSCK\u005C14*%
X160185700Y-87452200D03*
X145338800Y-82753200D03*
D39*
%TO.N,/ESP32_POE_ETHERNET/RST_PHY*%
X101549200Y-89966800D03*
D37*
X98552000Y-89509600D03*
%TO.N,Net-(R1-Pad1)*%
X98221800Y-82727800D03*
X103733600Y-85344000D03*
%TO.N,/ESP32_POE_ETHERNET/EMAC_MDIO*%
X98145600Y-84429600D03*
X103124000Y-84480400D03*
%TO.N,/ESP32_POE_ETHERNET/EMAC_RX_CRS_DV*%
X103367100Y-87492100D03*
X98196400Y-85318600D03*
%TO.N,/ESP32_POE_ETHERNET/EMAC_RXD1*%
X98958400Y-85725000D03*
X105242700Y-85852000D03*
%TO.N,/ESP32_POE_ETHERNET/EMAC_RXD0*%
X98704400Y-86944200D03*
X105242700Y-87279192D03*
D35*
%TO.N,Net-(R10-Pad1)*%
X95707200Y-66379498D03*
X111805606Y-61682294D03*
D37*
%TO.N,/ESP32_POE_ETHERNET/IO0\u005CEMAC_RX_CLK*%
X113538000Y-66903600D03*
X113487200Y-58978800D03*
D35*
%TO.N,Net-(R12-Pad1)*%
X96977200Y-68097400D03*
X111810800Y-63550800D03*
D37*
%TO.N,/ESP32_POE_ETHERNET/REGOFF\u005Cyellow+*%
X107797600Y-90348380D03*
%TO.N,/ESP32_POE_ETHERNET/NINTSEL\u005CLinked*%
X108839000Y-91338400D03*
D35*
%TO.N,/ESP32_POE_ETHERNET/EMAC_MDC*%
X106481620Y-57988989D03*
X110998000Y-53554500D03*
%TO.N,/ESP32_POE_ETHERNET/EMAC_TXD0*%
X105032609Y-59359800D03*
X107238800Y-59334400D03*
D37*
%TO.N,/ESP32_POE_ETHERNET/BUZZER\u005C2*%
X61391800Y-75006200D03*
X60452000Y-69215000D03*
X105664000Y-69850000D03*
X87731600Y-73507600D03*
D35*
%TO.N,/ESP32_POE_ETHERNET/CS_SD\u005C15*%
X154203400Y-81838800D03*
X144780000Y-75031600D03*
X137969377Y-74958211D03*
X110755305Y-69584695D03*
X154203400Y-80189799D03*
D37*
%TO.N,MASTER_TX*%
X93634561Y-72811639D03*
D35*
X106934000Y-54254400D03*
D37*
%TO.N,MASTER_RX*%
X94538800Y-72832700D03*
D35*
X106857800Y-55422800D03*
D37*
%TO.N,/ESP32_POE_ETHERNET/IO17\u005CRST_RFID*%
X76860400Y-67106800D03*
X103581200Y-74218800D03*
D35*
%TO.N,/ESP32_POE_ETHERNET/CS_EKRAN*%
X111810800Y-64566800D03*
%TO.N,/ESP32_POE_ETHERNET/EKRAN_DC_RS*%
X112014000Y-65481200D03*
D34*
%TO.N,/ESP32_POE_ETHERNET/Role2*%
X74117200Y-63906400D03*
%TO.N,/ESP32_POE_ETHERNET/Role1*%
X75209400Y-62738000D03*
%TO.N,/Power_Relay_SDCard_Screen_RFID/Role_Giris*%
X77216000Y-81904500D03*
D37*
%TO.N,/Power_Relay_SDCard_Screen_RFID/uln_buzzer*%
X60071000Y-72390000D03*
%TO.N,Net-(R7-Pad1)*%
X113652100Y-84582000D03*
D39*
X101701600Y-88544400D03*
D35*
%TO.N,Net-(R9-Pad1)*%
X111845524Y-62624307D03*
X96824800Y-66319400D03*
D36*
%TO.N,/ESP32_POE_ETHERNET/3V3_VLAN*%
X103987600Y-79857600D03*
X95148400Y-80441800D03*
D35*
X112623600Y-77724000D03*
%TD*%
D40*
%TO.N,GND*%
X105257600Y-89560400D02*
X115544600Y-89560400D01*
X105003600Y-89814400D02*
X105257600Y-89560400D01*
X115493800Y-90932000D02*
X115595400Y-91033600D01*
X111048800Y-90932000D02*
X115493800Y-90932000D01*
X123010200Y-109522800D02*
X123012200Y-109524800D01*
X103581200Y-116747400D02*
X103581200Y-118008400D01*
X129246918Y-70986164D02*
X129901254Y-71640500D01*
X129901254Y-71640500D02*
X129904226Y-71640500D01*
X112951800Y-109522800D02*
X123010200Y-109522800D01*
X103759000Y-89814400D02*
X105003600Y-89814400D01*
D41*
%TO.N,Net-(C1-Pad2)*%
X102031800Y-103682800D02*
X99989480Y-101640480D01*
X103301800Y-106195441D02*
X103301800Y-106222800D01*
X102031800Y-103682800D02*
X102423121Y-104074121D01*
X99110800Y-99519159D02*
X99110800Y-95046800D01*
X102423141Y-104074101D02*
G75*
G02*
X103301800Y-106195441I-2121341J-2121299D01*
G01*
X99110817Y-99519159D02*
G75*
G03*
X99989480Y-101640480I3000183J59D01*
G01*
D40*
%TO.N,+3V3*%
X150444200Y-86360000D02*
X159080200Y-86360000D01*
X65269511Y-56152489D02*
X63510000Y-57912000D01*
X74666000Y-50890400D02*
X75239000Y-50317400D01*
X118338600Y-60833000D02*
X115570000Y-63601600D01*
X156413200Y-80190500D02*
X156413200Y-83693000D01*
X86254080Y-51689000D02*
X118338600Y-51689000D01*
X69215000Y-62230000D02*
X69215000Y-56134000D01*
X118338600Y-45212000D02*
X118338600Y-60833000D01*
X156413200Y-83693000D02*
X159080200Y-86360000D01*
X66802000Y-64643000D02*
X69215000Y-62230000D01*
X80416600Y-76170800D02*
X78998000Y-74752200D01*
X144145000Y-77470000D02*
X144145000Y-80060800D01*
X75239000Y-50317400D02*
X84882480Y-50317400D01*
X84882480Y-50317400D02*
X86254080Y-51689000D01*
X66802000Y-74676000D02*
X66802000Y-64643000D01*
X66878200Y-74752200D02*
X66802000Y-74676000D01*
X144145000Y-80060800D02*
X150444200Y-86360000D01*
X74666000Y-56152489D02*
X65269511Y-56152489D01*
X78998000Y-74752200D02*
X66878200Y-74752200D01*
X74666000Y-57902000D02*
X74666000Y-50890400D01*
D42*
%TO.N,ESP_RST*%
X93543600Y-98247200D02*
X89966800Y-98247200D01*
D43*
X128498600Y-52070000D02*
X142748000Y-66319400D01*
D41*
X89001600Y-53848000D02*
X88290400Y-54559200D01*
D42*
X93645200Y-98145600D02*
X93543600Y-98247200D01*
D43*
X142748000Y-85904800D02*
X140919200Y-87733600D01*
D41*
X88290400Y-61645800D02*
X88265000Y-61671200D01*
X88290400Y-54559200D02*
X88290400Y-61645800D01*
X128498600Y-48158400D02*
X122351800Y-48158400D01*
X104800400Y-52933600D02*
X104876600Y-52857400D01*
D43*
X142748000Y-66319400D02*
X142748000Y-85904800D01*
D41*
X104876600Y-52857400D02*
X112115600Y-52857400D01*
D43*
X128498600Y-45212000D02*
X128498600Y-52070000D01*
D42*
%TO.N,Net-(C7-Pad1)*%
X107061000Y-93167200D02*
X107010200Y-93218000D01*
X107010200Y-93218000D02*
X102886277Y-93218000D01*
X107061000Y-93167200D02*
X107442000Y-93548200D01*
D41*
X106045000Y-110693200D02*
X106019600Y-110718600D01*
X106019600Y-110718600D02*
X106019600Y-114672000D01*
D42*
X107442000Y-93548200D02*
X107442000Y-95529400D01*
%TO.N,Net-(C13-Pad2)*%
X96617452Y-98145600D02*
X98348800Y-96414252D01*
X96245200Y-98145600D02*
X96617452Y-98145600D01*
X98348800Y-96414252D02*
X98348800Y-91846400D01*
D44*
%TO.N,+5V*%
X57074100Y-88599900D02*
X59059700Y-88599900D01*
X55499000Y-64389000D02*
X58166000Y-61722000D01*
D42*
X91821000Y-114122200D02*
X90576400Y-115366800D01*
D44*
X58166000Y-61722000D02*
X58166000Y-49784000D01*
D41*
X90134600Y-107315000D02*
X81608200Y-107315000D01*
D44*
X59385200Y-99491800D02*
X59385200Y-116484400D01*
D41*
X91586400Y-108766800D02*
X90134600Y-107315000D01*
D44*
X57069100Y-99267900D02*
X59161300Y-99267900D01*
X90195400Y-76454000D02*
X115570000Y-76454000D01*
X59385200Y-88925400D02*
X59385200Y-80222600D01*
X59161300Y-99267900D02*
X59385200Y-99491800D01*
X72438800Y-116484400D02*
X80156400Y-108766800D01*
X59385200Y-80222600D02*
X57094500Y-77931900D01*
D42*
X91821000Y-109001400D02*
X91821000Y-114122200D01*
D44*
X59385200Y-80222600D02*
X86426800Y-80222600D01*
X59385200Y-90957400D02*
X59385200Y-88925400D01*
D41*
X81608200Y-107315000D02*
X80156400Y-108766800D01*
D44*
X59385200Y-90957400D02*
X59385200Y-99491800D01*
X86426800Y-80222600D02*
X90195400Y-76454000D01*
X55499000Y-71755000D02*
X55499000Y-64389000D01*
X59059700Y-88599900D02*
X59385200Y-88925400D01*
D42*
X91795600Y-108976000D02*
X91821000Y-109001400D01*
D44*
X59385200Y-116484400D02*
X72438800Y-116484400D01*
D45*
%TO.N,/ESP32_POE_ETHERNET/PoE-*%
X110921800Y-106222800D02*
X116586000Y-106222800D01*
X125653800Y-106222800D02*
X135598000Y-116167000D01*
X116586000Y-106222800D02*
X125653800Y-106222800D01*
X135598000Y-116167000D02*
X135598000Y-118297000D01*
D43*
%TO.N,HMOSI\u005C13*%
X162382200Y-82270600D02*
X162306000Y-82194400D01*
X162306000Y-82194400D02*
X159004000Y-82194400D01*
%TO.N,HSCK\u005C14*%
X160185700Y-87452200D02*
X150037800Y-87452200D01*
X150037800Y-87452200D02*
X145338800Y-82753200D01*
X160185700Y-87452200D02*
X162976200Y-90242700D01*
X162976200Y-90242700D02*
X162976200Y-102448000D01*
X162976200Y-102448000D02*
X163042600Y-102514400D01*
D46*
%TO.N,/ESP32_POE_ETHERNET/RST_PHY*%
X98552000Y-89509600D02*
X101092000Y-89509600D01*
D42*
X94945200Y-93116400D02*
X98552000Y-89509600D01*
X94945200Y-98145600D02*
X94945200Y-93116400D01*
D46*
X101092000Y-89509600D02*
X101549200Y-89966800D01*
D42*
%TO.N,Net-(R1-Pad1)*%
X103773501Y-84211367D02*
X102289934Y-82727800D01*
X103733600Y-85344000D02*
X103773501Y-85304099D01*
X103773501Y-85304099D02*
X103773501Y-84211367D01*
X102289934Y-82727800D02*
X98221800Y-82727800D01*
%TO.N,/ESP32_POE_ETHERNET/EMAC_MDIO*%
X103073200Y-84429600D02*
X98145600Y-84429600D01*
X103124000Y-84480400D02*
X103073200Y-84429600D01*
%TO.N,/ESP32_POE_ETHERNET/EMAC_RX_CRS_DV*%
X103254600Y-87604600D02*
X103367100Y-87492100D01*
X98196400Y-85318600D02*
X97987449Y-85527551D01*
X97987449Y-85527551D02*
X97987449Y-87604600D01*
X97987449Y-87604600D02*
X103254600Y-87604600D01*
%TO.N,/ESP32_POE_ETHERNET/EMAC_RXD1*%
X105242700Y-85852000D02*
X105064900Y-86029800D01*
X99263200Y-86029800D02*
X98958400Y-85725000D01*
X105064900Y-86029800D02*
X99263200Y-86029800D01*
%TO.N,/ESP32_POE_ETHERNET/EMAC_RXD0*%
X104806108Y-86842600D02*
X98806000Y-86842600D01*
X98806000Y-86842600D02*
X98704400Y-86944200D01*
X105242700Y-87279192D02*
X104806108Y-86842600D01*
D43*
%TO.N,Net-(R10-Pad1)*%
X99887106Y-61682294D02*
X111805606Y-61682294D01*
X95707200Y-65862200D02*
X99887106Y-61682294D01*
X95707200Y-66379498D02*
X95707200Y-65862200D01*
D42*
%TO.N,/ESP32_POE_ETHERNET/IO0\u005CEMAC_RX_CLK*%
X113538000Y-66903600D02*
X113538000Y-59029600D01*
X113538000Y-59029600D02*
X113487200Y-58978800D01*
D43*
%TO.N,Net-(R12-Pad1)*%
X96977200Y-68097400D02*
X101564850Y-63509750D01*
X101564850Y-63509750D02*
X111769750Y-63509750D01*
X111769750Y-63509750D02*
X111810800Y-63550800D01*
D41*
%TO.N,Net-(R14-Pad1)*%
X101121800Y-115972000D02*
X101121800Y-116652800D01*
X103581200Y-114697400D02*
X102396400Y-114697400D01*
X102396400Y-114697400D02*
X101121800Y-115972000D01*
D46*
%TO.N,/ESP32_POE_ETHERNET/REGOFF\u005Cyellow+*%
X99044000Y-116652800D02*
X106845311Y-108851489D01*
X108115311Y-104537131D02*
X108115311Y-90666091D01*
X106845311Y-105807131D02*
X108115311Y-104537131D01*
X98581800Y-116652800D02*
X99044000Y-116652800D01*
X106845311Y-108851489D02*
X106845311Y-105807131D01*
X108115311Y-90666091D02*
X107797600Y-90348380D01*
%TO.N,/ESP32_POE_ETHERNET/NINTSEL\u005CLinked*%
X109435311Y-105366080D02*
X108514831Y-104445600D01*
X109435311Y-106659180D02*
X109435311Y-105366080D01*
X108000800Y-112821800D02*
X108000800Y-108093691D01*
X108514831Y-91662569D02*
X108839000Y-91338400D01*
X108514831Y-104445600D02*
X108514831Y-91662569D01*
X108000800Y-108093691D02*
X109435311Y-106659180D01*
X111831800Y-116652800D02*
X108000800Y-112821800D01*
D42*
%TO.N,/ESP32_POE_ETHERNET/EMAC_MDC*%
X110947200Y-53605300D02*
X110947200Y-57988989D01*
X110947200Y-57988989D02*
X106481620Y-57988989D01*
X110998000Y-53554500D02*
X110947200Y-53605300D01*
%TO.N,/ESP32_POE_ETHERNET/EMAC_TXD0*%
X107213400Y-59309000D02*
X107238800Y-59334400D01*
X105083409Y-59309000D02*
X107213400Y-59309000D01*
X105032609Y-59359800D02*
X105083409Y-59309000D01*
%TO.N,/ESP32_POE_ETHERNET/BUZZER\u005C2*%
X103225600Y-73482200D02*
X87909400Y-73482200D01*
X105664000Y-69850000D02*
X105664000Y-71043800D01*
X61087000Y-74701400D02*
X61391800Y-75006200D01*
X105664000Y-71043800D02*
X103225600Y-73482200D01*
X60452000Y-69215000D02*
X61087000Y-69850000D01*
X61087000Y-69850000D02*
X61087000Y-74701400D01*
X87884000Y-73507600D02*
X87731600Y-73507600D01*
X87909400Y-73482200D02*
X87884000Y-73507600D01*
D43*
%TO.N,/ESP32_POE_ETHERNET/CS_SD\u005C15*%
X154203400Y-80189799D02*
X154203400Y-81838800D01*
X116104033Y-74933423D02*
X137944589Y-74933423D01*
X137944589Y-74933423D02*
X137969377Y-74958211D01*
X149098000Y-75082400D02*
X149047200Y-75031600D01*
X149098000Y-75084399D02*
X149098000Y-75082400D01*
X154178000Y-80164399D02*
X149098000Y-75084399D01*
X110755305Y-69584695D02*
X116104033Y-74933423D01*
X149047200Y-75031600D02*
X144780000Y-75031600D01*
D41*
%TO.N,Net-(J2-Pad9)*%
X92708100Y-109935100D02*
X93876400Y-108766800D01*
X92708100Y-110794800D02*
X92708100Y-109935100D01*
%TO.N,MASTER_TX*%
X85476400Y-111945100D02*
X84326100Y-110794800D01*
X93624400Y-72801478D02*
X93624400Y-55676800D01*
X93634561Y-72811639D02*
X93624400Y-72801478D01*
X95046800Y-54254400D02*
X106934000Y-54254400D01*
X93624400Y-55676800D02*
X95046800Y-54254400D01*
X85476400Y-113586800D02*
X85476400Y-111945100D01*
%TO.N,MASTER_RX*%
X106299000Y-54864000D02*
X106857800Y-55422800D01*
X94513400Y-72807300D02*
X94513400Y-55854600D01*
X94538800Y-72832700D02*
X94513400Y-72807300D01*
X94513400Y-55854600D02*
X95504000Y-54864000D01*
X90883100Y-110794800D02*
X90308400Y-110794800D01*
X95504000Y-54864000D02*
X106299000Y-54864000D01*
X90308400Y-110794800D02*
X87516400Y-113586800D01*
%TO.N,/ESP32_POE_ETHERNET/IO17\u005CRST_RFID*%
X87020400Y-74193400D02*
X103555800Y-74193400D01*
X79984600Y-67157600D02*
X87020400Y-74193400D01*
X103555800Y-74193400D02*
X103581200Y-74218800D01*
D42*
X76860400Y-67106800D02*
X76911200Y-67157600D01*
X76911200Y-67157600D02*
X79984600Y-67157600D01*
D43*
%TO.N,/ESP32_POE_ETHERNET/CS_EKRAN*%
X138304635Y-74208711D02*
X116439275Y-74208711D01*
X138722301Y-88076701D02*
X138722301Y-74626377D01*
X116439275Y-74208711D02*
X111264499Y-69033935D01*
X140919200Y-90273600D02*
X138722301Y-88076701D01*
X111264499Y-65113101D02*
X111810800Y-64566800D01*
X111264499Y-69033935D02*
X111264499Y-65113101D01*
X138722301Y-74626377D02*
X138304635Y-74208711D01*
%TO.N,/ESP32_POE_ETHERNET/EKRAN_DC_RS*%
X116890800Y-73609200D02*
X112014000Y-68732400D01*
X112014000Y-68732400D02*
X112014000Y-65481200D01*
X139321811Y-83596211D02*
X139321811Y-74043811D01*
X140919200Y-85193600D02*
X139321811Y-83596211D01*
X139321811Y-74043811D02*
X138887200Y-73609200D01*
X138887200Y-73609200D02*
X116890800Y-73609200D01*
D42*
%TO.N,/ESP32_POE_ETHERNET/Role2*%
X74142600Y-69733400D02*
X71937800Y-69733400D01*
X74142600Y-63931800D02*
X74142600Y-69733400D01*
X74117200Y-63906400D02*
X74142600Y-63931800D01*
%TO.N,/ESP32_POE_ETHERNET/Role1*%
X75209400Y-70151800D02*
X73087800Y-72273400D01*
X75209400Y-62738000D02*
X75209400Y-70151800D01*
X73087800Y-72273400D02*
X71937800Y-72273400D01*
D41*
%TO.N,Net-(J2-Pad11)*%
X82550000Y-108870400D02*
X82446400Y-108766800D01*
X82501100Y-110794800D02*
X82501100Y-110335700D01*
X82550000Y-110286800D02*
X82550000Y-108870400D01*
X82501100Y-110335700D02*
X82550000Y-110286800D01*
D47*
%TO.N,/Power_Relay_SDCard_Screen_RFID/Role_Cikis*%
X74854100Y-93346700D02*
X74854100Y-88599900D01*
X79366600Y-97859200D02*
X74854100Y-93346700D01*
%TO.N,/Power_Relay_SDCard_Screen_RFID/Role_Giris*%
X77216000Y-81904500D02*
X77216000Y-93208600D01*
X77216000Y-93208600D02*
X79366600Y-95359200D01*
D42*
%TO.N,/Power_Relay_SDCard_Screen_RFID/uln_buzzer*%
X59802489Y-72121489D02*
X59802489Y-55747511D01*
X59802489Y-55747511D02*
X65766000Y-49784000D01*
X60071000Y-72390000D02*
X59802489Y-72121489D01*
D41*
%TO.N,Net-(R6-Pad2)*%
X109222600Y-116722000D02*
X109291800Y-116652800D01*
X106019600Y-116722000D02*
X109222600Y-116722000D01*
D42*
%TO.N,Net-(R7-Pad1)*%
X109533821Y-84607400D02*
X113626700Y-84607400D01*
D41*
X105596821Y-88544400D02*
X101701600Y-88544400D01*
X109533821Y-84607400D02*
X105596821Y-88544400D01*
D42*
X113626700Y-84607400D02*
X113652100Y-84582000D01*
D43*
%TO.N,Net-(R9-Pad1)*%
X96824800Y-66319400D02*
X100380800Y-62763400D01*
X111706431Y-62763400D02*
X111845524Y-62624307D01*
X100380800Y-62763400D02*
X111706431Y-62763400D01*
D40*
%TO.N,/ESP32_POE_ETHERNET/3V3_VLAN*%
X95148400Y-80441800D02*
X95199200Y-80492600D01*
X103987600Y-79857600D02*
X110490000Y-79857600D01*
X103352600Y-80492600D02*
X103987600Y-79857600D01*
X95199200Y-80492600D02*
X103352600Y-80492600D01*
X110490000Y-79857600D02*
X112623600Y-77724000D01*
%TD*%
%TA.AperFunction,Conductor*%
%TO.N,GND*%
G36*
X125231286Y-107301302D02*
G01*
X125252260Y-107318205D01*
X132181438Y-114247383D01*
X132215464Y-114309695D01*
X132210399Y-114380510D01*
X132167852Y-114437346D01*
X132101332Y-114462157D01*
X132092946Y-114462477D01*
X114996011Y-114544268D01*
X114996010Y-114544268D01*
X114985800Y-114544317D01*
X114986326Y-114545659D01*
X114974249Y-114547393D01*
X114918061Y-114547102D01*
X114832957Y-114546660D01*
X114764941Y-114526305D01*
X114718727Y-114472409D01*
X114707611Y-114420721D01*
X114704338Y-107407359D01*
X114724308Y-107339229D01*
X114777942Y-107292711D01*
X114830338Y-107281300D01*
X125163165Y-107281300D01*
X125231286Y-107301302D01*
G37*
%TD.AperFunction*%
%TA.AperFunction,Conductor*%
G36*
X135777558Y-42746720D02*
G01*
X135824082Y-42800348D01*
X135835500Y-42852759D01*
X135835500Y-51406218D01*
X135834899Y-51418515D01*
X135834891Y-51418596D01*
X135831654Y-51429774D01*
X135832658Y-51441367D01*
X135835030Y-51468756D01*
X135835500Y-51479627D01*
X135835500Y-51489094D01*
X135836562Y-51494794D01*
X135836562Y-51494798D01*
X135836786Y-51496000D01*
X135838446Y-51508199D01*
X135841570Y-51544271D01*
X135846681Y-51554726D01*
X135847698Y-51558395D01*
X135849068Y-51561944D01*
X135851198Y-51573383D01*
X135857303Y-51583287D01*
X135870198Y-51604206D01*
X135876139Y-51614990D01*
X135892041Y-51647522D01*
X135900570Y-51655433D01*
X135902836Y-51658485D01*
X135905398Y-51661310D01*
X135911503Y-51671215D01*
X135920763Y-51678257D01*
X135923157Y-51680897D01*
X135935658Y-51703191D01*
X135940800Y-51707647D01*
X135940800Y-51714400D01*
X135949936Y-51714400D01*
X135975378Y-51724827D01*
X135976297Y-51725680D01*
X135987109Y-51729993D01*
X135990332Y-51732031D01*
X135993724Y-51733737D01*
X136002984Y-51740779D01*
X136014162Y-51744016D01*
X136014164Y-51744017D01*
X136037765Y-51750852D01*
X136049407Y-51754849D01*
X136074780Y-51764972D01*
X136074785Y-51764973D01*
X136083041Y-51768267D01*
X136089497Y-51768900D01*
X136092577Y-51768900D01*
X136095649Y-51769050D01*
X136095642Y-51769185D01*
X136102115Y-51769501D01*
X136102196Y-51769509D01*
X136113374Y-51772746D01*
X136124967Y-51771742D01*
X136152356Y-51769370D01*
X136163227Y-51768900D01*
X147723018Y-51768900D01*
X147735315Y-51769501D01*
X147735396Y-51769509D01*
X147746574Y-51772746D01*
X147758167Y-51771742D01*
X147785556Y-51769370D01*
X147796427Y-51768900D01*
X147805894Y-51768900D01*
X147811594Y-51767838D01*
X147811598Y-51767838D01*
X147812800Y-51767614D01*
X147824999Y-51765954D01*
X147838687Y-51764769D01*
X147861071Y-51762830D01*
X147871526Y-51757719D01*
X147875195Y-51756702D01*
X147878744Y-51755332D01*
X147890183Y-51753202D01*
X147905084Y-51744017D01*
X147921006Y-51734202D01*
X147931798Y-51728257D01*
X147933969Y-51727196D01*
X147989294Y-51714400D01*
X156296628Y-51714400D01*
X156345848Y-51728852D01*
X156347112Y-51725686D01*
X156348851Y-51726380D01*
X156354032Y-51728711D01*
X156354132Y-51728511D01*
X156355629Y-51729264D01*
X156357057Y-51730072D01*
X156358764Y-51730840D01*
X156364524Y-51733737D01*
X156373784Y-51740779D01*
X156384962Y-51744016D01*
X156384964Y-51744017D01*
X156408565Y-51750852D01*
X156420207Y-51754849D01*
X156445580Y-51764972D01*
X156445585Y-51764973D01*
X156453841Y-51768267D01*
X156460297Y-51768900D01*
X156463377Y-51768900D01*
X156466449Y-51769050D01*
X156466442Y-51769185D01*
X156472915Y-51769501D01*
X156472996Y-51769509D01*
X156484174Y-51772746D01*
X156495767Y-51771742D01*
X156523156Y-51769370D01*
X156534027Y-51768900D01*
X164746710Y-51768900D01*
X164814831Y-51788902D01*
X164835805Y-51805805D01*
X167139497Y-54109497D01*
X167172311Y-54166744D01*
X167206787Y-54298714D01*
X167209293Y-54310637D01*
X167230951Y-54445871D01*
X167254573Y-54593367D01*
X167259360Y-54623260D01*
X167260702Y-54635371D01*
X167278529Y-54922263D01*
X167277646Y-54940131D01*
X167277735Y-54946626D01*
X167275970Y-54957505D01*
X167278033Y-54968333D01*
X167278474Y-54970649D01*
X167280700Y-54994227D01*
X167280700Y-109476310D01*
X167260698Y-109544431D01*
X167243795Y-109565405D01*
X165289217Y-111519983D01*
X165226905Y-111554009D01*
X165200336Y-111556888D01*
X137365207Y-111604096D01*
X137365206Y-111604096D01*
X137347093Y-111604127D01*
X137346894Y-111617134D01*
X137305653Y-114314068D01*
X137284612Y-114381874D01*
X137230252Y-114427542D01*
X137180272Y-114438140D01*
X135908103Y-114444226D01*
X135427265Y-114446526D01*
X135359049Y-114426850D01*
X135337567Y-114409622D01*
X126447934Y-105519989D01*
X126438833Y-105509846D01*
X126417592Y-105483428D01*
X126413729Y-105478623D01*
X126409011Y-105474665D01*
X126409009Y-105474662D01*
X126373419Y-105444799D01*
X126369770Y-105441615D01*
X126367516Y-105439571D01*
X126365335Y-105437390D01*
X126330473Y-105408755D01*
X126329492Y-105407940D01*
X126259435Y-105349155D01*
X126254711Y-105345191D01*
X126249808Y-105342496D01*
X126245488Y-105338947D01*
X126240064Y-105336038D01*
X126240060Y-105336036D01*
X126159502Y-105292841D01*
X126158343Y-105292212D01*
X126072805Y-105245187D01*
X126067474Y-105243496D01*
X126062545Y-105240853D01*
X126056657Y-105239053D01*
X126056655Y-105239052D01*
X125969187Y-105212311D01*
X125967927Y-105211918D01*
X125874939Y-105182421D01*
X125869379Y-105181797D01*
X125864033Y-105180163D01*
X125857908Y-105179541D01*
X125857904Y-105179540D01*
X125798947Y-105173552D01*
X125766956Y-105170302D01*
X125765750Y-105170174D01*
X125713387Y-105164300D01*
X125709882Y-105164300D01*
X125708273Y-105164210D01*
X125702577Y-105163762D01*
X125663642Y-105159807D01*
X125663636Y-105159807D01*
X125657513Y-105159185D01*
X125609651Y-105163709D01*
X125609312Y-105163741D01*
X125597455Y-105164300D01*
X114829232Y-105164300D01*
X114761111Y-105144298D01*
X114735132Y-105114316D01*
X138499412Y-105114316D01*
X138535660Y-105380663D01*
X138536968Y-105385149D01*
X138536968Y-105385151D01*
X138551627Y-105435444D01*
X138610878Y-105638726D01*
X138723415Y-105882837D01*
X138725978Y-105886746D01*
X138868231Y-106103719D01*
X138868235Y-106103724D01*
X138870797Y-106107632D01*
X139049788Y-106308174D01*
X139256454Y-106480056D01*
X139260447Y-106482479D01*
X139449715Y-106597330D01*
X139486256Y-106619504D01*
X139490570Y-106621313D01*
X139490574Y-106621315D01*
X139729831Y-106721643D01*
X139734145Y-106723452D01*
X139994677Y-106789619D01*
X140217934Y-106812100D01*
X140377837Y-106812100D01*
X140380162Y-106811927D01*
X140380168Y-106811927D01*
X140573008Y-106797596D01*
X140573009Y-106797596D01*
X140577663Y-106797250D01*
X140582216Y-106796220D01*
X140582221Y-106796219D01*
X140835269Y-106738961D01*
X140835274Y-106738960D01*
X140839837Y-106737927D01*
X141090362Y-106640502D01*
X141323736Y-106507118D01*
X141534831Y-106340705D01*
X141719009Y-106144917D01*
X141872226Y-105924057D01*
X141890626Y-105886746D01*
X141989049Y-105687164D01*
X141989050Y-105687161D01*
X141991114Y-105682976D01*
X142073062Y-105426970D01*
X142080655Y-105380351D01*
X142112991Y-105181797D01*
X142116270Y-105161663D01*
X142119788Y-104892884D01*
X142083540Y-104626537D01*
X142080209Y-104615107D01*
X142027023Y-104432634D01*
X142008322Y-104368474D01*
X141895785Y-104124363D01*
X141825854Y-104017700D01*
X141750969Y-103903481D01*
X141750965Y-103903476D01*
X141748403Y-103899568D01*
X141606589Y-103740679D01*
X141572529Y-103702518D01*
X141572527Y-103702516D01*
X141569412Y-103699026D01*
X141377183Y-103539151D01*
X141366340Y-103530133D01*
X141366339Y-103530132D01*
X141362746Y-103527144D01*
X141198934Y-103427740D01*
X141136942Y-103390122D01*
X141136941Y-103390122D01*
X141132944Y-103387696D01*
X141128630Y-103385887D01*
X141128626Y-103385885D01*
X140889369Y-103285557D01*
X140885055Y-103283748D01*
X140624523Y-103217581D01*
X140401266Y-103195100D01*
X140241363Y-103195100D01*
X140239038Y-103195273D01*
X140239032Y-103195273D01*
X140046192Y-103209604D01*
X140046191Y-103209604D01*
X140041537Y-103209950D01*
X140036984Y-103210980D01*
X140036979Y-103210981D01*
X139783931Y-103268239D01*
X139783926Y-103268240D01*
X139779363Y-103269273D01*
X139528838Y-103366698D01*
X139295464Y-103500082D01*
X139291798Y-103502972D01*
X139291795Y-103502974D01*
X139252869Y-103533661D01*
X139084369Y-103666495D01*
X138900191Y-103862283D01*
X138746974Y-104083143D01*
X138744907Y-104087333D01*
X138744906Y-104087336D01*
X138672613Y-104233933D01*
X138628086Y-104324224D01*
X138546138Y-104580230D01*
X138545388Y-104584837D01*
X138545387Y-104584840D01*
X138538596Y-104626537D01*
X138502930Y-104845537D01*
X138499412Y-105114316D01*
X114735132Y-105114316D01*
X114714618Y-105090642D01*
X114703233Y-105038362D01*
X114701732Y-101821400D01*
X143669702Y-101821400D01*
X143689657Y-102049487D01*
X143691081Y-102054800D01*
X143691081Y-102054802D01*
X143709818Y-102124727D01*
X143748916Y-102270643D01*
X143751239Y-102275624D01*
X143751239Y-102275625D01*
X143843351Y-102473162D01*
X143843354Y-102473167D01*
X143845677Y-102478149D01*
X143977002Y-102665700D01*
X144138900Y-102827598D01*
X144143408Y-102830755D01*
X144143411Y-102830757D01*
X144155666Y-102839338D01*
X144326451Y-102958923D01*
X144331433Y-102961246D01*
X144331438Y-102961249D01*
X144528975Y-103053361D01*
X144533957Y-103055684D01*
X144539265Y-103057106D01*
X144539267Y-103057107D01*
X144749798Y-103113519D01*
X144749800Y-103113519D01*
X144755113Y-103114943D01*
X144854680Y-103123654D01*
X144923349Y-103129662D01*
X144923356Y-103129662D01*
X144926073Y-103129900D01*
X145040327Y-103129900D01*
X145043044Y-103129662D01*
X145043051Y-103129662D01*
X145111720Y-103123654D01*
X145211287Y-103114943D01*
X145216600Y-103113519D01*
X145216602Y-103113519D01*
X145427133Y-103057107D01*
X145427135Y-103057106D01*
X145432443Y-103055684D01*
X145437425Y-103053361D01*
X145634962Y-102961249D01*
X145634967Y-102961246D01*
X145639949Y-102958923D01*
X145810734Y-102839338D01*
X145822989Y-102830757D01*
X145822992Y-102830755D01*
X145827500Y-102827598D01*
X145989398Y-102665700D01*
X146120723Y-102478149D01*
X146123046Y-102473167D01*
X146123049Y-102473162D01*
X146215161Y-102275625D01*
X146215161Y-102275624D01*
X146217484Y-102270643D01*
X146256583Y-102124727D01*
X146275319Y-102054802D01*
X146275319Y-102054800D01*
X146276743Y-102049487D01*
X146296698Y-101821400D01*
X146278952Y-101618565D01*
X146644100Y-101618565D01*
X146644101Y-103410234D01*
X146644541Y-103413931D01*
X146644541Y-103413937D01*
X146645475Y-103421788D01*
X146647300Y-103437133D01*
X146693953Y-103542163D01*
X146775288Y-103623357D01*
X146880400Y-103669826D01*
X146897436Y-103671812D01*
X146903126Y-103672476D01*
X146903131Y-103672476D01*
X146906765Y-103672900D01*
X147794719Y-103672900D01*
X148698434Y-103672899D01*
X148702131Y-103672459D01*
X148702137Y-103672459D01*
X148715049Y-103670923D01*
X148725333Y-103669700D01*
X148830363Y-103623047D01*
X148911557Y-103541712D01*
X148958026Y-103436600D01*
X148960127Y-103418581D01*
X148960676Y-103413874D01*
X148960676Y-103413869D01*
X148961100Y-103410235D01*
X148961100Y-102789483D01*
X148981102Y-102721362D01*
X149034758Y-102674869D01*
X149105032Y-102664765D01*
X149169612Y-102694259D01*
X149209223Y-102758468D01*
X149244450Y-102897175D01*
X149244451Y-102897177D01*
X149245872Y-102902772D01*
X149248289Y-102908015D01*
X149284989Y-102987623D01*
X149335011Y-103096131D01*
X149457896Y-103270009D01*
X149483652Y-103295099D01*
X149601842Y-103410235D01*
X149610409Y-103418581D01*
X149615205Y-103421786D01*
X149615208Y-103421788D01*
X149732384Y-103500082D01*
X149787443Y-103536871D01*
X149792746Y-103539149D01*
X149792749Y-103539151D01*
X149977763Y-103618639D01*
X149983070Y-103620919D01*
X150037482Y-103633231D01*
X150185101Y-103666634D01*
X150185106Y-103666635D01*
X150190738Y-103667909D01*
X150196509Y-103668136D01*
X150196511Y-103668136D01*
X150257852Y-103670546D01*
X150403491Y-103676269D01*
X150409200Y-103675441D01*
X150409204Y-103675441D01*
X150608490Y-103646545D01*
X150608494Y-103646544D01*
X150614205Y-103645716D01*
X150815823Y-103577276D01*
X151001593Y-103473240D01*
X151035230Y-103445265D01*
X151160855Y-103340784D01*
X151165293Y-103337093D01*
X151301440Y-103173393D01*
X151395383Y-103005645D01*
X151446120Y-102955983D01*
X151515652Y-102941635D01*
X151581903Y-102967157D01*
X151622061Y-103019807D01*
X151664370Y-103124003D01*
X151669013Y-103133194D01*
X151780294Y-103314788D01*
X151786377Y-103323099D01*
X151925813Y-103484067D01*
X151933180Y-103491283D01*
X152097034Y-103627316D01*
X152105481Y-103633231D01*
X152289356Y-103740679D01*
X152298642Y-103745129D01*
X152497601Y-103821103D01*
X152507499Y-103823979D01*
X152610850Y-103845006D01*
X152624899Y-103843810D01*
X152628600Y-103833465D01*
X152628600Y-101197502D01*
X152624682Y-101184158D01*
X152610406Y-101182171D01*
X152571924Y-101188060D01*
X152561888Y-101190451D01*
X152359468Y-101256612D01*
X152349959Y-101260609D01*
X152161063Y-101358942D01*
X152152338Y-101364436D01*
X151982033Y-101492305D01*
X151974326Y-101499148D01*
X151827190Y-101653117D01*
X151820704Y-101661127D01*
X151700698Y-101837049D01*
X151695600Y-101846023D01*
X151616958Y-102015443D01*
X151570134Y-102068810D01*
X151501891Y-102088391D01*
X151433895Y-102067968D01*
X151389664Y-102018121D01*
X151388344Y-102015443D01*
X151334615Y-101906492D01*
X151207222Y-101735891D01*
X151050871Y-101591363D01*
X150870801Y-101477747D01*
X150673041Y-101398849D01*
X150667381Y-101397723D01*
X150667377Y-101397722D01*
X150469882Y-101358438D01*
X150469880Y-101358438D01*
X150464215Y-101357311D01*
X150458440Y-101357235D01*
X150458436Y-101357235D01*
X150351761Y-101355839D01*
X150251316Y-101354524D01*
X150245619Y-101355503D01*
X150245618Y-101355503D01*
X150047164Y-101389603D01*
X150047161Y-101389604D01*
X150041474Y-101390581D01*
X149841716Y-101464275D01*
X149658734Y-101573139D01*
X149498654Y-101713525D01*
X149366838Y-101880733D01*
X149364149Y-101885844D01*
X149364147Y-101885847D01*
X149336942Y-101937556D01*
X149267700Y-102069162D01*
X149258916Y-102097452D01*
X149207431Y-102263259D01*
X149168128Y-102322384D01*
X149103099Y-102350874D01*
X149032990Y-102339684D01*
X148980060Y-102292367D01*
X148961099Y-102225894D01*
X148961099Y-101618566D01*
X148957900Y-101591667D01*
X148911247Y-101486637D01*
X148829912Y-101405443D01*
X148814997Y-101398849D01*
X148778291Y-101382622D01*
X148724800Y-101358974D01*
X148707764Y-101356988D01*
X148702074Y-101356324D01*
X148702069Y-101356324D01*
X148698435Y-101355900D01*
X147810481Y-101355900D01*
X146906766Y-101355901D01*
X146903069Y-101356341D01*
X146903063Y-101356341D01*
X146891520Y-101357714D01*
X146879867Y-101359100D01*
X146774837Y-101405753D01*
X146693643Y-101487088D01*
X146647174Y-101592200D01*
X146646077Y-101601612D01*
X146644532Y-101614863D01*
X146644100Y-101618565D01*
X146278952Y-101618565D01*
X146276743Y-101593313D01*
X146272358Y-101576949D01*
X146218907Y-101377467D01*
X146218906Y-101377465D01*
X146217484Y-101372157D01*
X146213123Y-101362805D01*
X146123049Y-101169638D01*
X146123046Y-101169633D01*
X146120723Y-101164651D01*
X145989398Y-100977100D01*
X145827500Y-100815202D01*
X145822992Y-100812045D01*
X145822989Y-100812043D01*
X145744811Y-100757302D01*
X145639949Y-100683877D01*
X145634967Y-100681554D01*
X145634962Y-100681551D01*
X145437425Y-100589439D01*
X145437424Y-100589439D01*
X145432443Y-100587116D01*
X145427135Y-100585694D01*
X145427133Y-100585693D01*
X145216602Y-100529281D01*
X145216600Y-100529281D01*
X145211287Y-100527857D01*
X145111720Y-100519146D01*
X145043051Y-100513138D01*
X145043044Y-100513138D01*
X145040327Y-100512900D01*
X144926073Y-100512900D01*
X144923356Y-100513138D01*
X144923349Y-100513138D01*
X144854680Y-100519146D01*
X144755113Y-100527857D01*
X144749800Y-100529281D01*
X144749798Y-100529281D01*
X144539267Y-100585693D01*
X144539265Y-100585694D01*
X144533957Y-100587116D01*
X144528976Y-100589439D01*
X144528975Y-100589439D01*
X144331438Y-100681551D01*
X144331433Y-100681554D01*
X144326451Y-100683877D01*
X144221589Y-100757302D01*
X144143411Y-100812043D01*
X144143408Y-100812045D01*
X144138900Y-100815202D01*
X143977002Y-100977100D01*
X143845677Y-101164651D01*
X143843354Y-101169633D01*
X143843351Y-101169638D01*
X143753277Y-101362805D01*
X143748916Y-101372157D01*
X143747494Y-101377465D01*
X143747493Y-101377467D01*
X143694042Y-101576949D01*
X143689657Y-101593313D01*
X143669702Y-101821400D01*
X114701732Y-101821400D01*
X114697654Y-93081566D01*
X139587457Y-93081566D01*
X139617765Y-93216046D01*
X139620845Y-93225875D01*
X139700970Y-93423203D01*
X139705613Y-93432394D01*
X139816894Y-93613988D01*
X139822977Y-93622299D01*
X139962413Y-93783267D01*
X139969780Y-93790483D01*
X140133634Y-93926516D01*
X140142081Y-93932431D01*
X140189795Y-93960313D01*
X140238519Y-94011951D01*
X140251590Y-94081734D01*
X140224859Y-94147506D01*
X140166812Y-94188385D01*
X140126225Y-94195101D01*
X140023366Y-94195101D01*
X140019669Y-94195541D01*
X140019663Y-94195541D01*
X140008120Y-94196914D01*
X139996467Y-94198300D01*
X139891437Y-94244953D01*
X139810243Y-94326288D01*
X139763774Y-94431400D01*
X139762677Y-94440812D01*
X139761132Y-94454063D01*
X139760700Y-94457765D01*
X139760701Y-96249434D01*
X139763900Y-96276333D01*
X139810553Y-96381363D01*
X139891888Y-96462557D01*
X139997000Y-96509026D01*
X140014036Y-96511012D01*
X140019726Y-96511676D01*
X140019731Y-96511676D01*
X140023365Y-96512100D01*
X140911319Y-96512100D01*
X141815034Y-96512099D01*
X141818731Y-96511659D01*
X141818737Y-96511659D01*
X141831649Y-96510123D01*
X141841933Y-96508900D01*
X141946963Y-96462247D01*
X142028157Y-96380912D01*
X142074626Y-96275800D01*
X142076612Y-96258764D01*
X142077276Y-96253074D01*
X142077276Y-96253069D01*
X142077700Y-96249435D01*
X142077699Y-94457766D01*
X142074500Y-94430867D01*
X142027847Y-94325837D01*
X141946512Y-94244643D01*
X141841400Y-94198174D01*
X141824364Y-94196188D01*
X141818674Y-94195524D01*
X141818669Y-94195524D01*
X141815035Y-94195100D01*
X141714701Y-94195100D01*
X141646580Y-94175098D01*
X141600087Y-94121442D01*
X141589983Y-94051168D01*
X141619477Y-93986588D01*
X141641533Y-93966521D01*
X141688699Y-93932878D01*
X147583100Y-93932878D01*
X147583101Y-95624547D01*
X147586300Y-95651446D01*
X147632953Y-95756476D01*
X147714288Y-95837670D01*
X147819400Y-95884139D01*
X147836436Y-95886125D01*
X147842126Y-95886789D01*
X147842131Y-95886789D01*
X147845765Y-95887213D01*
X148684159Y-95887213D01*
X149537434Y-95887212D01*
X149541131Y-95886772D01*
X149541137Y-95886772D01*
X149554049Y-95885236D01*
X149564333Y-95884013D01*
X149669363Y-95837360D01*
X149750557Y-95756025D01*
X149797026Y-95650913D01*
X149799012Y-95633877D01*
X149799676Y-95628187D01*
X149799676Y-95628182D01*
X149800100Y-95624548D01*
X149800099Y-93932879D01*
X149799343Y-93926516D01*
X149798017Y-93915373D01*
X149796900Y-93905980D01*
X149750247Y-93800950D01*
X149668912Y-93719756D01*
X149563800Y-93673287D01*
X149546764Y-93671301D01*
X149541074Y-93670637D01*
X149541069Y-93670637D01*
X149537435Y-93670213D01*
X149370859Y-93670213D01*
X149302738Y-93650211D01*
X149256245Y-93596555D01*
X149246141Y-93526281D01*
X149275635Y-93461701D01*
X149317610Y-93430018D01*
X149343107Y-93418129D01*
X149352606Y-93412644D01*
X149404648Y-93376204D01*
X149413024Y-93365725D01*
X149405956Y-93352279D01*
X148704412Y-92650735D01*
X148690468Y-92643121D01*
X148688635Y-92643252D01*
X148682020Y-92647503D01*
X147976523Y-93353000D01*
X147970093Y-93364775D01*
X147979389Y-93376790D01*
X148030594Y-93412644D01*
X148040094Y-93418130D01*
X148065593Y-93430020D01*
X148118878Y-93476937D01*
X148138338Y-93545215D01*
X148117796Y-93613174D01*
X148063773Y-93659240D01*
X148012342Y-93670214D01*
X147845766Y-93670214D01*
X147842069Y-93670654D01*
X147842063Y-93670654D01*
X147830520Y-93672027D01*
X147818867Y-93673413D01*
X147713837Y-93720066D01*
X147632643Y-93801401D01*
X147586174Y-93906513D01*
X147585077Y-93915925D01*
X147583532Y-93929176D01*
X147583100Y-93932878D01*
X141688699Y-93932878D01*
X141794528Y-93857392D01*
X141802400Y-93850739D01*
X141953252Y-93700412D01*
X141959930Y-93692565D01*
X142084203Y-93519620D01*
X142089513Y-93510783D01*
X142183870Y-93319867D01*
X142187669Y-93310272D01*
X142249577Y-93106510D01*
X142251755Y-93096437D01*
X142253186Y-93085562D01*
X142250975Y-93071378D01*
X142237817Y-93067600D01*
X139602425Y-93067600D01*
X139588894Y-93071573D01*
X139587457Y-93081566D01*
X114697654Y-93081566D01*
X114691488Y-79868695D01*
X111844313Y-79862049D01*
X111579902Y-79861432D01*
X111511828Y-79841271D01*
X111465461Y-79787507D01*
X111455521Y-79717209D01*
X111485164Y-79652698D01*
X111491101Y-79646337D01*
X112746164Y-78391274D01*
X112807129Y-78357549D01*
X112840894Y-78349816D01*
X112840898Y-78349815D01*
X112848297Y-78348120D01*
X112919139Y-78312491D01*
X112983902Y-78279919D01*
X112983905Y-78279917D01*
X112990685Y-78276507D01*
X113111880Y-78172996D01*
X113166376Y-78097157D01*
X113200452Y-78049736D01*
X113200453Y-78049734D01*
X113204886Y-78043565D01*
X113216365Y-78015011D01*
X113261501Y-77902729D01*
X113264333Y-77895684D01*
X113286791Y-77737892D01*
X113286936Y-77724000D01*
X113284326Y-77702428D01*
X113268701Y-77573315D01*
X113268701Y-77573314D01*
X113267788Y-77565772D01*
X113259233Y-77543132D01*
X113214136Y-77423784D01*
X113214135Y-77423782D01*
X113211451Y-77416679D01*
X113207152Y-77410424D01*
X113207150Y-77410420D01*
X113172405Y-77359867D01*
X113150305Y-77292398D01*
X113168190Y-77223691D01*
X113220382Y-77175561D01*
X113276245Y-77162500D01*
X114722934Y-77162500D01*
X114791055Y-77182502D01*
X114804388Y-77193448D01*
X114804894Y-77192854D01*
X114926965Y-77296744D01*
X114962976Y-77327392D01*
X115144180Y-77428664D01*
X115341603Y-77492810D01*
X115547725Y-77517389D01*
X115553860Y-77516917D01*
X115553862Y-77516917D01*
X115748555Y-77501936D01*
X115748560Y-77501935D01*
X115754696Y-77501463D01*
X115760626Y-77499807D01*
X115760628Y-77499807D01*
X115908071Y-77458640D01*
X115954632Y-77445640D01*
X116010103Y-77417620D01*
X116134410Y-77354828D01*
X116134412Y-77354827D01*
X116139917Y-77352046D01*
X116144781Y-77348246D01*
X116145983Y-77347483D01*
X116214217Y-77327869D01*
X116282223Y-77348258D01*
X116328410Y-77402178D01*
X116339500Y-77453867D01*
X116339501Y-78933716D01*
X116339501Y-80352834D01*
X116339941Y-80356531D01*
X116339941Y-80356537D01*
X116340613Y-80362184D01*
X116342700Y-80379733D01*
X116389353Y-80484763D01*
X116470688Y-80565957D01*
X116575800Y-80612426D01*
X116592836Y-80614412D01*
X116598526Y-80615076D01*
X116598531Y-80615076D01*
X116602165Y-80615500D01*
X118134401Y-80615500D01*
X119693834Y-80615499D01*
X119697531Y-80615059D01*
X119697537Y-80615059D01*
X119710449Y-80613523D01*
X119720733Y-80612300D01*
X119825763Y-80565647D01*
X119906957Y-80484312D01*
X119953426Y-80379200D01*
X119955492Y-80361483D01*
X119956076Y-80356474D01*
X119956076Y-80356469D01*
X119956500Y-80352835D01*
X119956500Y-80351669D01*
X133590001Y-80351669D01*
X133590371Y-80358490D01*
X133595895Y-80409352D01*
X133599521Y-80424604D01*
X133644676Y-80545054D01*
X133653214Y-80560649D01*
X133729715Y-80662724D01*
X133742276Y-80675285D01*
X133844351Y-80751786D01*
X133859946Y-80760324D01*
X133980394Y-80805478D01*
X133995649Y-80809105D01*
X134046514Y-80814631D01*
X134053328Y-80815000D01*
X135325885Y-80815000D01*
X135341124Y-80810525D01*
X135342329Y-80809135D01*
X135344000Y-80801452D01*
X135344000Y-80796884D01*
X135852000Y-80796884D01*
X135856475Y-80812123D01*
X135857865Y-80813328D01*
X135865548Y-80814999D01*
X137142669Y-80814999D01*
X137149490Y-80814629D01*
X137200352Y-80809105D01*
X137215604Y-80805479D01*
X137336054Y-80760324D01*
X137351649Y-80751786D01*
X137453724Y-80675285D01*
X137466285Y-80662724D01*
X137542786Y-80560649D01*
X137551324Y-80545054D01*
X137596478Y-80424606D01*
X137600105Y-80409351D01*
X137605631Y-80358486D01*
X137606000Y-80351672D01*
X137606000Y-79079115D01*
X137601525Y-79063876D01*
X137600135Y-79062671D01*
X137592452Y-79061000D01*
X135870115Y-79061000D01*
X135854876Y-79065475D01*
X135853671Y-79066865D01*
X135852000Y-79074548D01*
X135852000Y-80796884D01*
X135344000Y-80796884D01*
X135344000Y-79079115D01*
X135339525Y-79063876D01*
X135338135Y-79062671D01*
X135330452Y-79061000D01*
X133608116Y-79061000D01*
X133592877Y-79065475D01*
X133591672Y-79066865D01*
X133590001Y-79074548D01*
X133590001Y-80351669D01*
X119956500Y-80351669D01*
X119956499Y-78534885D01*
X133590000Y-78534885D01*
X133594475Y-78550124D01*
X133595865Y-78551329D01*
X133603548Y-78553000D01*
X135325885Y-78553000D01*
X135341124Y-78548525D01*
X135342329Y-78547135D01*
X135344000Y-78539452D01*
X135344000Y-78534885D01*
X135852000Y-78534885D01*
X135856475Y-78550124D01*
X135857865Y-78551329D01*
X135865548Y-78553000D01*
X137587884Y-78553000D01*
X137603123Y-78548525D01*
X137604328Y-78547135D01*
X137605999Y-78539452D01*
X137605999Y-77262331D01*
X137605629Y-77255510D01*
X137600105Y-77204648D01*
X137596479Y-77189396D01*
X137551324Y-77068946D01*
X137542786Y-77053351D01*
X137466285Y-76951276D01*
X137453724Y-76938715D01*
X137351649Y-76862214D01*
X137336054Y-76853676D01*
X137215606Y-76808522D01*
X137200351Y-76804895D01*
X137149486Y-76799369D01*
X137142672Y-76799000D01*
X135870115Y-76799000D01*
X135854876Y-76803475D01*
X135853671Y-76804865D01*
X135852000Y-76812548D01*
X135852000Y-78534885D01*
X135344000Y-78534885D01*
X135344000Y-76817116D01*
X135339525Y-76801877D01*
X135338135Y-76800672D01*
X135330452Y-76799001D01*
X134053331Y-76799001D01*
X134046510Y-76799371D01*
X133995648Y-76804895D01*
X133980396Y-76808521D01*
X133859946Y-76853676D01*
X133844351Y-76862214D01*
X133742276Y-76938715D01*
X133729715Y-76951276D01*
X133653214Y-77053351D01*
X133644676Y-77068946D01*
X133599522Y-77189394D01*
X133595895Y-77204649D01*
X133590369Y-77255514D01*
X133590000Y-77262328D01*
X133590000Y-78534885D01*
X119956499Y-78534885D01*
X119956499Y-77261166D01*
X119955827Y-77255510D01*
X119954417Y-77243660D01*
X119953300Y-77234267D01*
X119906647Y-77129237D01*
X119825312Y-77048043D01*
X119720200Y-77001574D01*
X119703164Y-76999588D01*
X119697474Y-76998924D01*
X119697469Y-76998924D01*
X119693835Y-76998500D01*
X119553448Y-76998500D01*
X116679150Y-76998501D01*
X116611029Y-76978499D01*
X116564536Y-76924843D01*
X116554432Y-76854569D01*
X116559592Y-76832729D01*
X116568861Y-76804865D01*
X116607190Y-76689644D01*
X116633207Y-76483698D01*
X116633536Y-76460189D01*
X116633573Y-76457522D01*
X116633573Y-76457518D01*
X116633622Y-76454000D01*
X116616616Y-76280563D01*
X116613966Y-76253534D01*
X116613965Y-76253531D01*
X116613365Y-76247408D01*
X116553368Y-76048685D01*
X116455913Y-75865401D01*
X116399669Y-75796439D01*
X116328610Y-75709311D01*
X116328607Y-75709308D01*
X116324715Y-75704536D01*
X116319826Y-75700491D01*
X116276933Y-75665007D01*
X116237195Y-75606174D01*
X116235574Y-75535196D01*
X116272583Y-75474608D01*
X116336473Y-75443648D01*
X116357249Y-75441923D01*
X137473740Y-75441923D01*
X137541861Y-75461925D01*
X137558534Y-75474725D01*
X137585119Y-75498915D01*
X137651941Y-75535196D01*
X137697813Y-75560102D01*
X137725187Y-75574965D01*
X137879352Y-75615410D01*
X137960603Y-75616686D01*
X138031115Y-75617794D01*
X138031118Y-75617794D01*
X138038714Y-75617913D01*
X138046118Y-75616217D01*
X138046120Y-75616217D01*
X138059672Y-75613113D01*
X138130539Y-75617402D01*
X138187837Y-75659324D01*
X138213374Y-75725569D01*
X138213801Y-75735933D01*
X138213801Y-88005629D01*
X138212446Y-88017759D01*
X138212928Y-88017798D01*
X138212208Y-88026745D01*
X138210227Y-88035501D01*
X138212867Y-88078048D01*
X138213559Y-88089209D01*
X138213801Y-88097011D01*
X138213801Y-88113214D01*
X138214563Y-88118537D01*
X138215285Y-88123579D01*
X138216314Y-88133629D01*
X138219246Y-88180878D01*
X138222295Y-88189324D01*
X138222894Y-88192215D01*
X138227123Y-88209181D01*
X138227949Y-88212006D01*
X138229221Y-88220888D01*
X138248823Y-88263999D01*
X138252628Y-88273348D01*
X138268705Y-88317882D01*
X138274000Y-88325130D01*
X138275381Y-88327728D01*
X138284216Y-88342846D01*
X138285795Y-88345315D01*
X138289509Y-88353483D01*
X138295365Y-88360279D01*
X138320416Y-88389353D01*
X138326702Y-88397270D01*
X138331849Y-88404316D01*
X138331854Y-88404321D01*
X138334726Y-88408253D01*
X138345701Y-88419228D01*
X138352059Y-88426075D01*
X138384588Y-88463828D01*
X138392123Y-88468712D01*
X138398367Y-88474159D01*
X138410232Y-88483759D01*
X139769303Y-89842830D01*
X139803329Y-89905142D01*
X139800540Y-89969290D01*
X139782875Y-90026180D01*
X139782874Y-90026186D01*
X139781161Y-90031702D01*
X139756136Y-90243144D01*
X139770061Y-90455606D01*
X139771482Y-90461202D01*
X139771483Y-90461207D01*
X139799223Y-90570432D01*
X139822472Y-90661972D01*
X139824889Y-90667215D01*
X139861589Y-90746823D01*
X139911611Y-90855331D01*
X140034496Y-91029209D01*
X140187009Y-91177781D01*
X140191805Y-91180986D01*
X140191808Y-91180988D01*
X140332733Y-91275150D01*
X140364043Y-91296071D01*
X140369343Y-91298348D01*
X140369354Y-91298354D01*
X140414458Y-91317732D01*
X140469150Y-91363000D01*
X140490687Y-91430651D01*
X140472229Y-91499207D01*
X140419638Y-91546900D01*
X140403859Y-91553266D01*
X140396062Y-91555814D01*
X140386559Y-91559809D01*
X140197663Y-91658142D01*
X140188938Y-91663636D01*
X140018633Y-91791505D01*
X140010926Y-91798348D01*
X139863790Y-91952317D01*
X139857304Y-91960327D01*
X139737298Y-92136249D01*
X139732200Y-92145223D01*
X139642538Y-92338383D01*
X139638975Y-92348070D01*
X139583589Y-92547783D01*
X139585112Y-92556207D01*
X139597492Y-92559600D01*
X142237544Y-92559600D01*
X142251075Y-92555627D01*
X142252380Y-92546547D01*
X142210414Y-92379475D01*
X142207094Y-92369724D01*
X142169902Y-92284188D01*
X147379083Y-92284188D01*
X147398072Y-92501232D01*
X147399975Y-92512025D01*
X147456364Y-92722474D01*
X147460110Y-92732766D01*
X147552186Y-92930224D01*
X147557669Y-92939719D01*
X147594109Y-92991761D01*
X147604588Y-93000137D01*
X147618034Y-92993069D01*
X148319578Y-92291525D01*
X148325956Y-92279845D01*
X149056008Y-92279845D01*
X149056139Y-92281678D01*
X149060390Y-92288293D01*
X149765887Y-92993790D01*
X149777662Y-93000220D01*
X149789677Y-92990924D01*
X149825531Y-92939719D01*
X149831014Y-92930224D01*
X149923090Y-92732766D01*
X149926836Y-92722474D01*
X149983225Y-92512025D01*
X149985128Y-92501232D01*
X150004117Y-92284188D01*
X150004117Y-92273238D01*
X149985128Y-92056194D01*
X149983225Y-92045401D01*
X149926836Y-91834952D01*
X149923090Y-91824660D01*
X149831014Y-91627202D01*
X149825531Y-91617707D01*
X149789091Y-91565665D01*
X149778612Y-91557289D01*
X149765166Y-91564357D01*
X149063622Y-92265901D01*
X149056008Y-92279845D01*
X148325956Y-92279845D01*
X148327192Y-92277581D01*
X148327061Y-92275748D01*
X148322810Y-92269133D01*
X147617313Y-91563636D01*
X147605538Y-91557206D01*
X147593523Y-91566502D01*
X147557669Y-91617707D01*
X147552186Y-91627202D01*
X147460110Y-91824660D01*
X147456364Y-91834952D01*
X147399975Y-92045401D01*
X147398072Y-92056194D01*
X147379083Y-92273238D01*
X147379083Y-92284188D01*
X142169902Y-92284188D01*
X142122172Y-92174414D01*
X142117305Y-92165339D01*
X142001626Y-91986526D01*
X141995336Y-91978357D01*
X141852006Y-91820840D01*
X141844473Y-91813815D01*
X141677339Y-91681822D01*
X141668752Y-91676117D01*
X141482317Y-91573199D01*
X141472898Y-91568965D01*
X141431409Y-91554273D01*
X141373873Y-91512679D01*
X141347958Y-91446581D01*
X141361892Y-91376965D01*
X141411904Y-91325566D01*
X141425893Y-91317732D01*
X141578193Y-91232440D01*
X141627177Y-91191701D01*
X147970176Y-91191701D01*
X147977244Y-91205147D01*
X148678788Y-91906691D01*
X148692732Y-91914305D01*
X148694565Y-91914174D01*
X148701180Y-91909923D01*
X149406677Y-91204426D01*
X149413107Y-91192651D01*
X149403811Y-91180636D01*
X149352606Y-91144782D01*
X149343111Y-91139299D01*
X149145653Y-91047223D01*
X149135361Y-91043477D01*
X148924912Y-90987088D01*
X148914119Y-90985185D01*
X148697075Y-90966196D01*
X148686125Y-90966196D01*
X148469081Y-90985185D01*
X148458288Y-90987088D01*
X148247839Y-91043477D01*
X148237547Y-91047223D01*
X148040089Y-91139299D01*
X148030594Y-91144782D01*
X147978552Y-91181222D01*
X147970176Y-91191701D01*
X141627177Y-91191701D01*
X141741893Y-91096293D01*
X141878040Y-90932593D01*
X141982076Y-90746823D01*
X142050516Y-90545205D01*
X142056023Y-90507230D01*
X142080537Y-90338161D01*
X142080537Y-90338159D01*
X142081069Y-90334491D01*
X142082663Y-90273600D01*
X142066575Y-90098513D01*
X142063710Y-90067330D01*
X142063709Y-90067327D01*
X142063181Y-90061576D01*
X142060144Y-90050807D01*
X142006954Y-89862211D01*
X142006953Y-89862209D01*
X142005386Y-89856652D01*
X141999760Y-89845242D01*
X141913770Y-89670873D01*
X141911215Y-89665692D01*
X141898613Y-89648815D01*
X141787274Y-89499714D01*
X141783822Y-89495091D01*
X141627471Y-89350563D01*
X141447401Y-89236947D01*
X141249641Y-89158049D01*
X141164367Y-89141087D01*
X141091658Y-89126624D01*
X141028749Y-89093716D01*
X140993617Y-89032021D01*
X140997417Y-88961126D01*
X141038943Y-88903540D01*
X141098159Y-88878349D01*
X141150347Y-88870782D01*
X141185089Y-88865745D01*
X141185091Y-88865745D01*
X141190805Y-88864916D01*
X141392423Y-88796476D01*
X141578193Y-88692440D01*
X141741893Y-88556293D01*
X141850193Y-88426076D01*
X141874349Y-88397031D01*
X141878040Y-88392593D01*
X141982076Y-88206823D01*
X142050516Y-88005205D01*
X142051775Y-87996527D01*
X142080537Y-87798161D01*
X142080537Y-87798159D01*
X142081069Y-87794491D01*
X142082663Y-87733600D01*
X142063181Y-87521576D01*
X142056617Y-87498300D01*
X142036407Y-87426643D01*
X142037167Y-87355650D01*
X142068581Y-87303346D01*
X142547447Y-86824481D01*
X143057308Y-86314620D01*
X143066845Y-86307000D01*
X143066531Y-86306631D01*
X143073364Y-86300816D01*
X143080958Y-86296024D01*
X143116585Y-86255683D01*
X143121931Y-86249997D01*
X143133383Y-86238545D01*
X143139660Y-86230170D01*
X143146045Y-86222327D01*
X143171436Y-86193577D01*
X143177378Y-86186849D01*
X143181194Y-86178722D01*
X143182807Y-86176266D01*
X143191829Y-86161253D01*
X143193237Y-86158682D01*
X143198616Y-86151504D01*
X143215240Y-86107157D01*
X143219159Y-86097857D01*
X143239281Y-86055000D01*
X143240662Y-86046131D01*
X143241526Y-86043305D01*
X143245960Y-86026401D01*
X143246592Y-86023525D01*
X143249745Y-86015116D01*
X143253254Y-85967894D01*
X143254408Y-85957848D01*
X143255751Y-85949225D01*
X143255751Y-85949222D01*
X143256500Y-85944414D01*
X143256500Y-85928894D01*
X143256846Y-85919557D01*
X143259874Y-85878807D01*
X143260539Y-85869859D01*
X143258665Y-85861080D01*
X143258102Y-85852822D01*
X143256500Y-85837639D01*
X143256500Y-78015011D01*
X143276502Y-77946890D01*
X143330158Y-77900397D01*
X143400432Y-77890293D01*
X143465012Y-77919787D01*
X143490276Y-77949740D01*
X143496730Y-77960398D01*
X143496733Y-77960401D01*
X143500380Y-77966424D01*
X143551138Y-78018985D01*
X143584069Y-78081879D01*
X143586500Y-78106510D01*
X143586500Y-80045638D01*
X143586389Y-80050914D01*
X143583751Y-80113854D01*
X143593851Y-80156914D01*
X143596013Y-80168583D01*
X143598064Y-80183554D01*
X143598920Y-80189799D01*
X143602016Y-80212404D01*
X143605428Y-80220287D01*
X143605428Y-80220289D01*
X143608139Y-80226554D01*
X143615174Y-80247826D01*
X143616731Y-80254467D01*
X143616732Y-80254471D01*
X143618693Y-80262830D01*
X143624534Y-80273454D01*
X143640003Y-80301593D01*
X143645225Y-80312253D01*
X143662788Y-80352838D01*
X143668191Y-80359511D01*
X143668194Y-80359515D01*
X143672489Y-80364819D01*
X143684981Y-80383409D01*
X143688602Y-80389995D01*
X143692411Y-80396923D01*
X143696723Y-80401918D01*
X143696726Y-80401922D01*
X143698009Y-80403408D01*
X143699522Y-80405160D01*
X143724471Y-80430109D01*
X143733296Y-80439909D01*
X143759086Y-80471757D01*
X143766088Y-80476733D01*
X143766089Y-80476734D01*
X143774770Y-80482903D01*
X143790876Y-80496514D01*
X145205125Y-81910763D01*
X145239151Y-81973075D01*
X145234086Y-82043890D01*
X145191539Y-82100726D01*
X145145444Y-82122377D01*
X145107580Y-82131467D01*
X144965950Y-82204568D01*
X144960228Y-82209560D01*
X144960226Y-82209561D01*
X144909957Y-82253414D01*
X144845845Y-82309342D01*
X144754200Y-82439740D01*
X144696304Y-82588235D01*
X144695313Y-82595762D01*
X144676889Y-82735707D01*
X144675500Y-82746254D01*
X144676334Y-82753804D01*
X144691291Y-82889280D01*
X144692990Y-82904673D01*
X144695599Y-82911804D01*
X144695600Y-82911806D01*
X144700747Y-82925871D01*
X144747763Y-83054348D01*
X144752000Y-83060654D01*
X144752002Y-83060657D01*
X144792790Y-83121355D01*
X144836658Y-83186637D01*
X144954542Y-83293904D01*
X145094610Y-83369954D01*
X145244239Y-83409209D01*
X145248775Y-83410399D01*
X145248221Y-83412511D01*
X145303024Y-83437094D01*
X145310249Y-83443776D01*
X149627980Y-87761508D01*
X149635600Y-87771045D01*
X149635969Y-87770731D01*
X149641784Y-87777564D01*
X149646576Y-87785158D01*
X149675515Y-87810716D01*
X149686916Y-87820785D01*
X149692603Y-87826131D01*
X149704055Y-87837583D01*
X149707646Y-87840274D01*
X149707648Y-87840276D01*
X149712430Y-87843860D01*
X149720273Y-87850245D01*
X149755751Y-87881578D01*
X149763878Y-87885394D01*
X149766334Y-87887007D01*
X149781337Y-87896023D01*
X149783915Y-87897434D01*
X149791096Y-87902816D01*
X149835433Y-87919437D01*
X149844748Y-87923362D01*
X149887600Y-87943481D01*
X149896475Y-87944863D01*
X149899302Y-87945727D01*
X149916179Y-87950155D01*
X149919072Y-87950791D01*
X149927485Y-87953945D01*
X149974725Y-87957456D01*
X149984744Y-87958607D01*
X149993380Y-87959952D01*
X149993384Y-87959952D01*
X149998186Y-87960700D01*
X150013710Y-87960700D01*
X150023048Y-87961047D01*
X150063790Y-87964075D01*
X150063791Y-87964075D01*
X150072741Y-87964740D01*
X150081518Y-87962866D01*
X150089769Y-87962304D01*
X150104966Y-87960700D01*
X159717490Y-87960700D01*
X159790479Y-87983994D01*
X159795827Y-87987794D01*
X159801442Y-87992904D01*
X159941510Y-88068954D01*
X160082151Y-88105851D01*
X160095675Y-88109399D01*
X160095121Y-88111511D01*
X160149924Y-88136094D01*
X160157149Y-88142776D01*
X162430795Y-90416422D01*
X162464821Y-90478734D01*
X162467700Y-90505517D01*
X162467700Y-101436659D01*
X162447698Y-101504780D01*
X162406124Y-101544943D01*
X162363705Y-101570181D01*
X162363701Y-101570184D01*
X162358734Y-101573139D01*
X162198654Y-101713525D01*
X162066838Y-101880733D01*
X162064149Y-101885844D01*
X162064147Y-101885847D01*
X162036942Y-101937556D01*
X161967700Y-102069162D01*
X161965986Y-102074683D01*
X161965984Y-102074687D01*
X161922165Y-102215808D01*
X161904561Y-102272502D01*
X161903882Y-102278240D01*
X161898690Y-102322105D01*
X161870819Y-102387403D01*
X161812071Y-102427267D01*
X161741096Y-102429040D01*
X161680430Y-102392161D01*
X161649332Y-102328337D01*
X161648095Y-102318849D01*
X161646581Y-102302376D01*
X161622166Y-102215808D01*
X161590354Y-102103011D01*
X161590353Y-102103009D01*
X161588786Y-102097452D01*
X161584543Y-102088847D01*
X161497170Y-101911673D01*
X161494615Y-101906492D01*
X161367222Y-101735891D01*
X161210871Y-101591363D01*
X161030801Y-101477747D01*
X160833041Y-101398849D01*
X160827381Y-101397723D01*
X160827377Y-101397722D01*
X160629882Y-101358438D01*
X160629880Y-101358438D01*
X160624215Y-101357311D01*
X160618440Y-101357235D01*
X160618436Y-101357235D01*
X160511761Y-101355839D01*
X160411316Y-101354524D01*
X160405619Y-101355503D01*
X160405618Y-101355503D01*
X160207164Y-101389603D01*
X160207161Y-101389604D01*
X160201474Y-101390581D01*
X160001716Y-101464275D01*
X159818734Y-101573139D01*
X159658654Y-101713525D01*
X159526838Y-101880733D01*
X159524149Y-101885844D01*
X159524147Y-101885847D01*
X159496942Y-101937556D01*
X159427700Y-102069162D01*
X159425986Y-102074683D01*
X159425984Y-102074687D01*
X159382165Y-102215808D01*
X159364561Y-102272502D01*
X159363882Y-102278240D01*
X159358690Y-102322105D01*
X159330819Y-102387403D01*
X159272071Y-102427267D01*
X159201096Y-102429040D01*
X159140430Y-102392161D01*
X159109332Y-102328337D01*
X159108095Y-102318849D01*
X159106581Y-102302376D01*
X159082166Y-102215808D01*
X159050354Y-102103011D01*
X159050353Y-102103009D01*
X159048786Y-102097452D01*
X159044543Y-102088847D01*
X158957170Y-101911673D01*
X158954615Y-101906492D01*
X158827222Y-101735891D01*
X158670871Y-101591363D01*
X158490801Y-101477747D01*
X158293041Y-101398849D01*
X158287381Y-101397723D01*
X158287377Y-101397722D01*
X158089882Y-101358438D01*
X158089880Y-101358438D01*
X158084215Y-101357311D01*
X158078440Y-101357235D01*
X158078436Y-101357235D01*
X157971761Y-101355839D01*
X157871316Y-101354524D01*
X157865619Y-101355503D01*
X157865618Y-101355503D01*
X157667164Y-101389603D01*
X157667161Y-101389604D01*
X157661474Y-101390581D01*
X157461716Y-101464275D01*
X157278734Y-101573139D01*
X157118654Y-101713525D01*
X156986838Y-101880733D01*
X156984149Y-101885844D01*
X156984147Y-101885847D01*
X156956942Y-101937556D01*
X156887700Y-102069162D01*
X156885986Y-102074683D01*
X156885984Y-102074687D01*
X156842165Y-102215808D01*
X156824561Y-102272502D01*
X156823882Y-102278240D01*
X156818690Y-102322105D01*
X156790819Y-102387403D01*
X156732071Y-102427267D01*
X156661096Y-102429040D01*
X156600430Y-102392161D01*
X156569332Y-102328337D01*
X156568095Y-102318849D01*
X156566581Y-102302376D01*
X156542166Y-102215808D01*
X156510354Y-102103011D01*
X156510353Y-102103009D01*
X156508786Y-102097452D01*
X156504543Y-102088847D01*
X156417170Y-101911673D01*
X156414615Y-101906492D01*
X156287222Y-101735891D01*
X156130871Y-101591363D01*
X155950801Y-101477747D01*
X155753041Y-101398849D01*
X155747381Y-101397723D01*
X155747377Y-101397722D01*
X155549882Y-101358438D01*
X155549880Y-101358438D01*
X155544215Y-101357311D01*
X155538440Y-101357235D01*
X155538436Y-101357235D01*
X155431761Y-101355839D01*
X155331316Y-101354524D01*
X155325619Y-101355503D01*
X155325618Y-101355503D01*
X155127164Y-101389603D01*
X155127161Y-101389604D01*
X155121474Y-101390581D01*
X154921716Y-101464275D01*
X154738734Y-101573139D01*
X154578654Y-101713525D01*
X154446838Y-101880733D01*
X154444149Y-101885844D01*
X154444147Y-101885847D01*
X154372665Y-102021712D01*
X154323246Y-102072684D01*
X154254113Y-102088847D01*
X154187217Y-102065068D01*
X154145607Y-102013286D01*
X154085572Y-101875214D01*
X154080705Y-101866139D01*
X153965026Y-101687326D01*
X153958736Y-101679157D01*
X153815406Y-101521640D01*
X153807873Y-101514615D01*
X153640739Y-101382622D01*
X153632152Y-101376917D01*
X153445717Y-101273999D01*
X153436305Y-101269769D01*
X153235559Y-101198680D01*
X153225588Y-101196046D01*
X153154437Y-101183372D01*
X153141140Y-101184832D01*
X153136600Y-101199389D01*
X153136600Y-103832917D01*
X153140664Y-103846759D01*
X153154078Y-103848793D01*
X153160784Y-103847934D01*
X153170862Y-103845792D01*
X153374855Y-103784591D01*
X153384442Y-103780833D01*
X153575695Y-103687139D01*
X153584545Y-103681864D01*
X153757928Y-103558192D01*
X153765800Y-103551539D01*
X153916652Y-103401212D01*
X153923330Y-103393365D01*
X154047603Y-103220420D01*
X154052913Y-103211583D01*
X154149564Y-103016026D01*
X154151027Y-103016749D01*
X154190228Y-102966513D01*
X154257231Y-102943039D01*
X154326289Y-102959517D01*
X154378127Y-103016123D01*
X154415011Y-103096131D01*
X154537896Y-103270009D01*
X154563652Y-103295099D01*
X154681842Y-103410235D01*
X154690409Y-103418581D01*
X154695205Y-103421786D01*
X154695208Y-103421788D01*
X154812384Y-103500082D01*
X154867443Y-103536871D01*
X154872746Y-103539149D01*
X154872749Y-103539151D01*
X155057763Y-103618639D01*
X155063070Y-103620919D01*
X155117482Y-103633231D01*
X155265101Y-103666634D01*
X155265106Y-103666635D01*
X155270738Y-103667909D01*
X155276509Y-103668136D01*
X155276511Y-103668136D01*
X155337852Y-103670546D01*
X155483491Y-103676269D01*
X155489200Y-103675441D01*
X155489204Y-103675441D01*
X155688490Y-103646545D01*
X155688494Y-103646544D01*
X155694205Y-103645716D01*
X155895823Y-103577276D01*
X156081593Y-103473240D01*
X156115230Y-103445265D01*
X156240855Y-103340784D01*
X156245293Y-103337093D01*
X156381440Y-103173393D01*
X156485476Y-102987623D01*
X156553916Y-102786005D01*
X156559877Y-102744897D01*
X156565802Y-102704034D01*
X156595373Y-102639488D01*
X156655145Y-102601176D01*
X156726141Y-102601262D01*
X156785821Y-102639717D01*
X156812294Y-102696702D01*
X156813461Y-102696406D01*
X156864451Y-102897175D01*
X156865872Y-102902772D01*
X156868289Y-102908015D01*
X156904989Y-102987623D01*
X156955011Y-103096131D01*
X157077896Y-103270009D01*
X157103652Y-103295099D01*
X157221842Y-103410235D01*
X157230409Y-103418581D01*
X157235205Y-103421786D01*
X157235208Y-103421788D01*
X157352384Y-103500082D01*
X157407443Y-103536871D01*
X157412746Y-103539149D01*
X157412749Y-103539151D01*
X157597763Y-103618639D01*
X157603070Y-103620919D01*
X157657482Y-103633231D01*
X157805101Y-103666634D01*
X157805106Y-103666635D01*
X157810738Y-103667909D01*
X157816509Y-103668136D01*
X157816511Y-103668136D01*
X157877852Y-103670546D01*
X158023491Y-103676269D01*
X158029200Y-103675441D01*
X158029204Y-103675441D01*
X158228490Y-103646545D01*
X158228494Y-103646544D01*
X158234205Y-103645716D01*
X158435823Y-103577276D01*
X158621593Y-103473240D01*
X158655230Y-103445265D01*
X158780855Y-103340784D01*
X158785293Y-103337093D01*
X158921440Y-103173393D01*
X159025476Y-102987623D01*
X159093916Y-102786005D01*
X159099877Y-102744897D01*
X159105802Y-102704034D01*
X159135373Y-102639488D01*
X159195145Y-102601176D01*
X159266141Y-102601262D01*
X159325821Y-102639717D01*
X159352294Y-102696702D01*
X159353461Y-102696406D01*
X159404451Y-102897175D01*
X159405872Y-102902772D01*
X159408289Y-102908015D01*
X159444989Y-102987623D01*
X159495011Y-103096131D01*
X159617896Y-103270009D01*
X159643652Y-103295099D01*
X159761842Y-103410235D01*
X159770409Y-103418581D01*
X159775205Y-103421786D01*
X159775208Y-103421788D01*
X159892384Y-103500082D01*
X159947443Y-103536871D01*
X159952746Y-103539149D01*
X159952749Y-103539151D01*
X160137763Y-103618639D01*
X160143070Y-103620919D01*
X160197482Y-103633231D01*
X160345101Y-103666634D01*
X160345106Y-103666635D01*
X160350738Y-103667909D01*
X160356509Y-103668136D01*
X160356511Y-103668136D01*
X160417852Y-103670546D01*
X160563491Y-103676269D01*
X160569200Y-103675441D01*
X160569204Y-103675441D01*
X160768490Y-103646545D01*
X160768494Y-103646544D01*
X160774205Y-103645716D01*
X160975823Y-103577276D01*
X161161593Y-103473240D01*
X161195230Y-103445265D01*
X161320855Y-103340784D01*
X161325293Y-103337093D01*
X161461440Y-103173393D01*
X161565476Y-102987623D01*
X161633916Y-102786005D01*
X161639877Y-102744897D01*
X161645802Y-102704034D01*
X161675373Y-102639488D01*
X161735145Y-102601176D01*
X161806141Y-102601262D01*
X161865821Y-102639717D01*
X161892294Y-102696702D01*
X161893461Y-102696406D01*
X161944451Y-102897175D01*
X161945872Y-102902772D01*
X161948289Y-102908015D01*
X161984989Y-102987623D01*
X162035011Y-103096131D01*
X162157896Y-103270009D01*
X162183652Y-103295099D01*
X162301842Y-103410235D01*
X162310409Y-103418581D01*
X162315205Y-103421786D01*
X162315208Y-103421788D01*
X162432384Y-103500082D01*
X162487443Y-103536871D01*
X162492746Y-103539149D01*
X162492749Y-103539151D01*
X162677763Y-103618639D01*
X162683070Y-103620919D01*
X162737482Y-103633231D01*
X162885101Y-103666634D01*
X162885106Y-103666635D01*
X162890738Y-103667909D01*
X162896509Y-103668136D01*
X162896511Y-103668136D01*
X162957852Y-103670546D01*
X163103491Y-103676269D01*
X163109200Y-103675441D01*
X163109204Y-103675441D01*
X163308490Y-103646545D01*
X163308494Y-103646544D01*
X163314205Y-103645716D01*
X163515823Y-103577276D01*
X163701593Y-103473240D01*
X163735230Y-103445265D01*
X163860855Y-103340784D01*
X163865293Y-103337093D01*
X164001440Y-103173393D01*
X164105476Y-102987623D01*
X164173916Y-102786005D01*
X164179877Y-102744897D01*
X164185802Y-102704034D01*
X164215373Y-102639488D01*
X164275145Y-102601176D01*
X164346141Y-102601262D01*
X164405821Y-102639717D01*
X164432294Y-102696702D01*
X164433461Y-102696406D01*
X164484451Y-102897175D01*
X164485872Y-102902772D01*
X164488289Y-102908015D01*
X164524989Y-102987623D01*
X164575011Y-103096131D01*
X164697896Y-103270009D01*
X164723652Y-103295099D01*
X164841842Y-103410235D01*
X164850409Y-103418581D01*
X164855205Y-103421786D01*
X164855208Y-103421788D01*
X164972384Y-103500082D01*
X165027443Y-103536871D01*
X165032746Y-103539149D01*
X165032749Y-103539151D01*
X165217763Y-103618639D01*
X165223070Y-103620919D01*
X165277482Y-103633231D01*
X165425101Y-103666634D01*
X165425106Y-103666635D01*
X165430738Y-103667909D01*
X165436509Y-103668136D01*
X165436511Y-103668136D01*
X165497852Y-103670546D01*
X165643491Y-103676269D01*
X165649200Y-103675441D01*
X165649204Y-103675441D01*
X165848490Y-103646545D01*
X165848494Y-103646544D01*
X165854205Y-103645716D01*
X166055823Y-103577276D01*
X166241593Y-103473240D01*
X166275230Y-103445265D01*
X166400855Y-103340784D01*
X166405293Y-103337093D01*
X166541440Y-103173393D01*
X166645476Y-102987623D01*
X166713916Y-102786005D01*
X166720662Y-102739484D01*
X166743937Y-102578961D01*
X166743937Y-102578959D01*
X166744469Y-102575291D01*
X166746063Y-102514400D01*
X166730009Y-102339684D01*
X166727110Y-102308130D01*
X166727109Y-102308127D01*
X166726581Y-102302376D01*
X166702166Y-102215808D01*
X166670354Y-102103011D01*
X166670353Y-102103009D01*
X166668786Y-102097452D01*
X166664543Y-102088847D01*
X166577170Y-101911673D01*
X166574615Y-101906492D01*
X166447222Y-101735891D01*
X166290871Y-101591363D01*
X166110801Y-101477747D01*
X165913041Y-101398849D01*
X165907381Y-101397723D01*
X165907377Y-101397722D01*
X165709882Y-101358438D01*
X165709880Y-101358438D01*
X165704215Y-101357311D01*
X165698440Y-101357235D01*
X165698436Y-101357235D01*
X165591761Y-101355839D01*
X165491316Y-101354524D01*
X165485619Y-101355503D01*
X165485618Y-101355503D01*
X165287164Y-101389603D01*
X165287161Y-101389604D01*
X165281474Y-101390581D01*
X165081716Y-101464275D01*
X164898734Y-101573139D01*
X164738654Y-101713525D01*
X164606838Y-101880733D01*
X164604149Y-101885844D01*
X164604147Y-101885847D01*
X164576942Y-101937556D01*
X164507700Y-102069162D01*
X164505986Y-102074683D01*
X164505984Y-102074687D01*
X164462165Y-102215808D01*
X164444561Y-102272502D01*
X164443882Y-102278240D01*
X164438690Y-102322105D01*
X164410819Y-102387403D01*
X164352071Y-102427267D01*
X164281096Y-102429040D01*
X164220430Y-102392161D01*
X164189332Y-102328337D01*
X164188095Y-102318849D01*
X164186581Y-102302376D01*
X164162166Y-102215808D01*
X164130354Y-102103011D01*
X164130353Y-102103009D01*
X164128786Y-102097452D01*
X164124543Y-102088847D01*
X164037170Y-101911673D01*
X164034615Y-101906492D01*
X163907222Y-101735891D01*
X163750871Y-101591363D01*
X163570801Y-101477747D01*
X163564014Y-101475039D01*
X163563442Y-101474590D01*
X163560291Y-101472985D01*
X163560606Y-101472366D01*
X163508154Y-101431222D01*
X163484700Y-101358008D01*
X163484700Y-90313772D01*
X163486055Y-90301642D01*
X163485573Y-90301603D01*
X163486293Y-90292656D01*
X163488274Y-90283900D01*
X163484942Y-90230192D01*
X163484700Y-90222390D01*
X163484700Y-90206187D01*
X163483216Y-90195822D01*
X163482187Y-90185772D01*
X163479811Y-90147484D01*
X163479255Y-90138523D01*
X163476206Y-90130077D01*
X163475607Y-90127186D01*
X163471378Y-90110220D01*
X163470552Y-90107395D01*
X163469280Y-90098513D01*
X163449678Y-90055402D01*
X163445872Y-90046051D01*
X163432845Y-90009965D01*
X163429796Y-90001519D01*
X163424501Y-89994271D01*
X163423120Y-89991673D01*
X163414285Y-89976555D01*
X163412706Y-89974086D01*
X163408992Y-89965918D01*
X163378084Y-89930047D01*
X163371799Y-89922131D01*
X163366652Y-89915085D01*
X163366647Y-89915080D01*
X163363775Y-89911148D01*
X163352800Y-89900173D01*
X163346442Y-89893325D01*
X163319776Y-89862377D01*
X163319775Y-89862376D01*
X163313913Y-89855573D01*
X163306378Y-89850689D01*
X163300134Y-89845242D01*
X163288269Y-89835642D01*
X160872120Y-87419493D01*
X160838094Y-87357181D01*
X160836128Y-87345535D01*
X160830801Y-87301516D01*
X160829888Y-87293972D01*
X160773551Y-87144879D01*
X160728413Y-87079203D01*
X160687578Y-87019787D01*
X160687577Y-87019785D01*
X160683276Y-87013528D01*
X160604903Y-86943700D01*
X160569947Y-86912555D01*
X160569944Y-86912553D01*
X160564275Y-86907502D01*
X160517965Y-86882982D01*
X160430131Y-86836476D01*
X160430129Y-86836475D01*
X160423418Y-86832922D01*
X160413644Y-86830467D01*
X160276209Y-86795946D01*
X160276206Y-86795946D01*
X160268838Y-86794095D01*
X160261238Y-86794055D01*
X160261237Y-86794055D01*
X160195879Y-86793713D01*
X160109458Y-86793260D01*
X159979414Y-86824481D01*
X159908508Y-86820934D01*
X159850773Y-86779614D01*
X159824543Y-86713641D01*
X159832213Y-86657218D01*
X159865755Y-86568920D01*
X159865756Y-86568918D01*
X159868255Y-86562338D01*
X159881446Y-86468481D01*
X159892948Y-86386639D01*
X159892948Y-86386636D01*
X159893499Y-86382717D01*
X159893816Y-86360000D01*
X159873597Y-86179745D01*
X159869539Y-86168091D01*
X159816264Y-86015106D01*
X159816262Y-86015103D01*
X159813945Y-86008448D01*
X159776929Y-85949209D01*
X159721559Y-85860598D01*
X159717826Y-85854624D01*
X159689758Y-85826359D01*
X159594978Y-85730915D01*
X159594974Y-85730912D01*
X159590015Y-85725918D01*
X159436866Y-85628727D01*
X159407663Y-85618328D01*
X159272625Y-85570243D01*
X159272620Y-85570242D01*
X159265990Y-85567881D01*
X159259002Y-85567048D01*
X159258999Y-85567047D01*
X159095779Y-85547584D01*
X159030506Y-85519656D01*
X159021603Y-85511565D01*
X157008605Y-83498567D01*
X156974579Y-83436255D01*
X156971700Y-83409472D01*
X156971700Y-82187454D01*
X158340700Y-82187454D01*
X158346132Y-82236652D01*
X158355115Y-82318017D01*
X158358190Y-82345873D01*
X158412963Y-82495548D01*
X158417200Y-82501854D01*
X158417202Y-82501857D01*
X158458069Y-82562672D01*
X158501858Y-82627837D01*
X158619742Y-82735104D01*
X158759810Y-82811154D01*
X158913975Y-82851599D01*
X158995226Y-82852875D01*
X159065738Y-82853983D01*
X159065741Y-82853983D01*
X159073337Y-82854102D01*
X159080741Y-82852406D01*
X159080743Y-82852406D01*
X159193771Y-82826519D01*
X159228697Y-82818520D01*
X159305181Y-82780053D01*
X159364302Y-82750319D01*
X159364305Y-82750317D01*
X159371085Y-82746907D01*
X159387265Y-82733088D01*
X159452055Y-82704058D01*
X159469095Y-82702900D01*
X161830063Y-82702900D01*
X161898184Y-82722902D01*
X161914861Y-82735705D01*
X161997942Y-82811304D01*
X162138010Y-82887354D01*
X162292175Y-82927799D01*
X162373426Y-82929075D01*
X162443938Y-82930183D01*
X162443941Y-82930183D01*
X162451537Y-82930302D01*
X162458941Y-82928606D01*
X162458943Y-82928606D01*
X162532295Y-82911806D01*
X162606897Y-82894720D01*
X162687658Y-82854102D01*
X162742502Y-82826519D01*
X162742505Y-82826517D01*
X162749285Y-82823107D01*
X162858310Y-82729990D01*
X162864702Y-82724531D01*
X162870480Y-82719596D01*
X162924976Y-82643757D01*
X162959052Y-82596336D01*
X162959053Y-82596334D01*
X162963486Y-82590165D01*
X163014638Y-82462920D01*
X163020101Y-82449329D01*
X163022933Y-82442284D01*
X163045391Y-82284492D01*
X163045536Y-82270600D01*
X163043457Y-82253414D01*
X163027301Y-82119915D01*
X163027301Y-82119914D01*
X163026388Y-82112372D01*
X162985047Y-82002965D01*
X162972736Y-81970384D01*
X162972735Y-81970382D01*
X162970051Y-81963279D01*
X162896850Y-81856771D01*
X162884078Y-81838187D01*
X162884077Y-81838185D01*
X162879776Y-81831928D01*
X162874105Y-81826875D01*
X162766447Y-81730955D01*
X162766444Y-81730953D01*
X162760775Y-81725902D01*
X162689408Y-81688115D01*
X162626631Y-81654876D01*
X162626629Y-81654875D01*
X162619918Y-81651322D01*
X162610144Y-81648867D01*
X162472709Y-81614346D01*
X162472706Y-81614346D01*
X162465338Y-81612495D01*
X162457738Y-81612455D01*
X162457737Y-81612455D01*
X162392379Y-81612113D01*
X162305958Y-81611660D01*
X162298578Y-81613432D01*
X162298576Y-81613432D01*
X162158360Y-81647095D01*
X162158358Y-81647096D01*
X162150980Y-81648867D01*
X162144235Y-81652348D01*
X162144236Y-81652348D01*
X162106420Y-81671866D01*
X162048630Y-81685900D01*
X159471192Y-81685900D01*
X159403071Y-81665898D01*
X159390033Y-81655997D01*
X159388248Y-81654756D01*
X159382575Y-81649702D01*
X159316672Y-81614808D01*
X159248431Y-81578676D01*
X159248429Y-81578675D01*
X159241718Y-81575122D01*
X159231944Y-81572667D01*
X159094509Y-81538146D01*
X159094506Y-81538146D01*
X159087138Y-81536295D01*
X159079538Y-81536255D01*
X159079537Y-81536255D01*
X159014179Y-81535913D01*
X158927758Y-81535460D01*
X158920378Y-81537232D01*
X158920376Y-81537232D01*
X158780160Y-81570895D01*
X158780158Y-81570896D01*
X158772780Y-81572667D01*
X158631150Y-81645768D01*
X158625428Y-81650760D01*
X158625426Y-81650761D01*
X158559008Y-81708701D01*
X158511045Y-81750542D01*
X158419400Y-81880940D01*
X158361504Y-82029435D01*
X158360513Y-82036962D01*
X158342866Y-82171004D01*
X158340700Y-82187454D01*
X156971700Y-82187454D01*
X156971700Y-80581969D01*
X156987287Y-80521266D01*
X156990055Y-80516232D01*
X156994486Y-80510065D01*
X157053933Y-80362184D01*
X157076391Y-80204392D01*
X157076536Y-80190500D01*
X157075696Y-80183554D01*
X157058301Y-80039815D01*
X157058301Y-80039814D01*
X157057388Y-80032272D01*
X157001051Y-79883179D01*
X156941425Y-79796422D01*
X156915078Y-79758087D01*
X156915077Y-79758085D01*
X156910776Y-79751828D01*
X156905105Y-79746775D01*
X156797447Y-79650855D01*
X156797444Y-79650853D01*
X156791775Y-79645802D01*
X156777767Y-79638385D01*
X156657631Y-79574776D01*
X156657629Y-79574775D01*
X156650918Y-79571222D01*
X156640762Y-79568671D01*
X156503709Y-79534246D01*
X156503706Y-79534246D01*
X156496338Y-79532395D01*
X156488738Y-79532355D01*
X156488737Y-79532355D01*
X156423379Y-79532013D01*
X156336958Y-79531560D01*
X156329578Y-79533332D01*
X156329576Y-79533332D01*
X156189360Y-79566995D01*
X156189358Y-79566996D01*
X156181980Y-79568767D01*
X156175235Y-79572248D01*
X156175236Y-79572248D01*
X156061399Y-79631004D01*
X156040350Y-79641868D01*
X156034628Y-79646860D01*
X156034626Y-79646861D01*
X156012360Y-79666285D01*
X155920245Y-79746642D01*
X155898718Y-79777272D01*
X155850247Y-79846240D01*
X155828600Y-79877040D01*
X155770704Y-80025535D01*
X155769713Y-80033062D01*
X155752646Y-80162697D01*
X155749900Y-80183554D01*
X155755787Y-80236873D01*
X155764109Y-80312253D01*
X155767390Y-80341973D01*
X155769999Y-80349104D01*
X155770000Y-80349106D01*
X155787499Y-80396923D01*
X155822163Y-80491648D01*
X155833282Y-80508194D01*
X155854700Y-80578469D01*
X155854700Y-83677838D01*
X155854589Y-83683114D01*
X155851951Y-83746054D01*
X155862051Y-83789114D01*
X155864213Y-83800783D01*
X155870216Y-83844604D01*
X155873628Y-83852487D01*
X155873628Y-83852489D01*
X155876339Y-83858754D01*
X155883374Y-83880026D01*
X155884931Y-83886667D01*
X155884932Y-83886671D01*
X155886893Y-83895030D01*
X155905948Y-83929692D01*
X155908203Y-83933793D01*
X155913425Y-83944453D01*
X155930988Y-83985038D01*
X155936391Y-83991711D01*
X155936394Y-83991715D01*
X155940689Y-83997019D01*
X155953181Y-84015609D01*
X155957427Y-84023332D01*
X155960611Y-84029123D01*
X155964923Y-84034118D01*
X155964926Y-84034122D01*
X155966209Y-84035608D01*
X155967722Y-84037360D01*
X155992671Y-84062309D01*
X156001496Y-84072109D01*
X156027286Y-84103957D01*
X156034288Y-84108933D01*
X156034289Y-84108934D01*
X156042970Y-84115103D01*
X156059076Y-84128714D01*
X157516766Y-85586405D01*
X157550792Y-85648717D01*
X157545727Y-85719533D01*
X157503180Y-85776368D01*
X157436660Y-85801179D01*
X157427671Y-85801500D01*
X150727728Y-85801500D01*
X150659607Y-85781498D01*
X150638633Y-85764595D01*
X144740405Y-79866367D01*
X144706379Y-79804055D01*
X144703500Y-79777272D01*
X144703500Y-78108662D01*
X144723502Y-78040541D01*
X144742608Y-78017417D01*
X144763159Y-77997847D01*
X144763166Y-77997839D01*
X144768266Y-77992982D01*
X144868643Y-77841902D01*
X144921625Y-77702428D01*
X144930555Y-77678920D01*
X144930556Y-77678918D01*
X144933055Y-77672338D01*
X144936683Y-77646522D01*
X144957748Y-77496639D01*
X144957748Y-77496636D01*
X144958299Y-77492717D01*
X144958616Y-77470000D01*
X144938397Y-77289745D01*
X144935053Y-77280142D01*
X144881064Y-77125106D01*
X144881062Y-77125103D01*
X144878745Y-77118448D01*
X144834945Y-77048353D01*
X144786359Y-76970598D01*
X144782626Y-76964624D01*
X144758107Y-76939933D01*
X144659778Y-76840915D01*
X144659774Y-76840912D01*
X144654815Y-76835918D01*
X144643697Y-76828862D01*
X144584308Y-76791173D01*
X144501666Y-76738727D01*
X144449299Y-76720080D01*
X144337425Y-76680243D01*
X144337420Y-76680242D01*
X144330790Y-76677881D01*
X144323802Y-76677048D01*
X144323799Y-76677047D01*
X144200698Y-76662368D01*
X144150680Y-76656404D01*
X144143677Y-76657140D01*
X144143676Y-76657140D01*
X143977288Y-76674628D01*
X143977286Y-76674629D01*
X143970288Y-76675364D01*
X143798579Y-76733818D01*
X143741522Y-76768920D01*
X143650095Y-76825166D01*
X143650092Y-76825168D01*
X143644088Y-76828862D01*
X143639053Y-76833793D01*
X143639050Y-76833795D01*
X143545198Y-76925702D01*
X143514493Y-76955771D01*
X143499846Y-76978499D01*
X143488411Y-76996243D01*
X143434696Y-77042667D01*
X143364410Y-77052682D01*
X143299866Y-77023106D01*
X143261559Y-76963331D01*
X143256500Y-76927987D01*
X143256500Y-75024654D01*
X144116700Y-75024654D01*
X144134190Y-75183073D01*
X144136799Y-75190204D01*
X144136800Y-75190206D01*
X144145146Y-75213013D01*
X144188963Y-75332748D01*
X144193200Y-75339054D01*
X144193202Y-75339057D01*
X144215076Y-75371608D01*
X144277858Y-75465037D01*
X144395742Y-75572304D01*
X144535810Y-75648354D01*
X144689975Y-75688799D01*
X144771226Y-75690075D01*
X144841738Y-75691183D01*
X144841741Y-75691183D01*
X144849337Y-75691302D01*
X144856741Y-75689606D01*
X144856743Y-75689606D01*
X144914386Y-75676404D01*
X145004697Y-75655720D01*
X145026546Y-75644731D01*
X145140302Y-75587519D01*
X145140305Y-75587517D01*
X145147085Y-75584107D01*
X145159639Y-75573385D01*
X145163265Y-75570288D01*
X145228055Y-75541258D01*
X145245095Y-75540100D01*
X148782384Y-75540100D01*
X148850505Y-75560102D01*
X148871479Y-75577005D01*
X153516602Y-80222128D01*
X153550628Y-80284440D01*
X153552745Y-80297391D01*
X153557590Y-80341272D01*
X153560199Y-80348403D01*
X153560200Y-80348405D01*
X153574828Y-80388377D01*
X153612363Y-80490947D01*
X153673482Y-80581901D01*
X153694900Y-80652175D01*
X153694900Y-81377212D01*
X153671987Y-81449662D01*
X153618800Y-81525340D01*
X153616041Y-81532415D01*
X153616040Y-81532418D01*
X153563662Y-81666761D01*
X153560904Y-81673835D01*
X153559913Y-81681362D01*
X153551463Y-81745548D01*
X153540100Y-81831854D01*
X153544441Y-81871173D01*
X153554610Y-81963279D01*
X153557590Y-81990273D01*
X153560199Y-81997404D01*
X153560200Y-81997406D01*
X153564986Y-82010484D01*
X153612363Y-82139948D01*
X153616600Y-82146254D01*
X153616602Y-82146257D01*
X153633232Y-82171004D01*
X153701258Y-82272237D01*
X153819142Y-82379504D01*
X153959210Y-82455554D01*
X154113375Y-82495999D01*
X154194626Y-82497275D01*
X154265138Y-82498383D01*
X154265141Y-82498383D01*
X154272737Y-82498502D01*
X154280141Y-82496806D01*
X154280143Y-82496806D01*
X154337786Y-82483604D01*
X154428097Y-82462920D01*
X154486547Y-82433523D01*
X154563702Y-82394719D01*
X154563705Y-82394717D01*
X154570485Y-82391307D01*
X154691680Y-82287796D01*
X154751486Y-82204568D01*
X154780252Y-82164536D01*
X154780253Y-82164534D01*
X154784686Y-82158365D01*
X154792090Y-82139948D01*
X154841301Y-82017529D01*
X154844133Y-82010484D01*
X154866591Y-81852692D01*
X154866736Y-81838800D01*
X154865905Y-81831928D01*
X154848501Y-81688115D01*
X154848501Y-81688114D01*
X154847588Y-81680572D01*
X154838302Y-81655997D01*
X154793936Y-81538584D01*
X154793935Y-81538582D01*
X154791251Y-81531479D01*
X154786952Y-81525224D01*
X154786950Y-81525220D01*
X154739485Y-81456160D01*
X154734060Y-81448266D01*
X154711900Y-81376899D01*
X154711900Y-80651231D01*
X154735576Y-80577707D01*
X154784686Y-80509364D01*
X154791237Y-80493069D01*
X154841301Y-80368528D01*
X154844133Y-80361483D01*
X154866591Y-80203691D01*
X154866736Y-80189799D01*
X154865981Y-80183554D01*
X154848501Y-80039114D01*
X154848501Y-80039113D01*
X154847588Y-80031571D01*
X154808290Y-79927571D01*
X154793936Y-79889583D01*
X154793935Y-79889581D01*
X154791251Y-79882478D01*
X154737352Y-79804055D01*
X154705278Y-79757386D01*
X154705277Y-79757384D01*
X154700976Y-79751127D01*
X154690337Y-79741648D01*
X154587647Y-79650154D01*
X154587644Y-79650152D01*
X154581975Y-79645101D01*
X154569291Y-79638385D01*
X154447831Y-79574075D01*
X154447829Y-79574074D01*
X154441118Y-79570521D01*
X154290778Y-79532759D01*
X154232378Y-79499650D01*
X149497501Y-74764773D01*
X149490894Y-74757636D01*
X149488448Y-74754780D01*
X149485575Y-74750847D01*
X149474601Y-74739873D01*
X149468243Y-74733026D01*
X149441571Y-74702071D01*
X149441569Y-74702069D01*
X149435713Y-74695273D01*
X149431565Y-74692584D01*
X149398075Y-74663007D01*
X149392387Y-74657660D01*
X149380945Y-74646218D01*
X149372570Y-74639941D01*
X149364741Y-74633567D01*
X149329249Y-74602222D01*
X149321126Y-74598408D01*
X149318638Y-74596774D01*
X149303677Y-74587786D01*
X149301092Y-74586371D01*
X149293905Y-74580984D01*
X149249557Y-74564359D01*
X149240240Y-74560432D01*
X149205526Y-74544134D01*
X149197400Y-74540319D01*
X149188531Y-74538938D01*
X149185698Y-74538072D01*
X149168811Y-74533642D01*
X149165926Y-74533008D01*
X149157516Y-74529855D01*
X149128358Y-74527688D01*
X149110294Y-74526346D01*
X149100248Y-74525192D01*
X149091625Y-74523849D01*
X149091622Y-74523849D01*
X149086814Y-74523100D01*
X149071294Y-74523100D01*
X149061957Y-74522754D01*
X149045054Y-74521498D01*
X149012259Y-74519061D01*
X149003480Y-74520935D01*
X148995222Y-74521498D01*
X148980039Y-74523100D01*
X145247192Y-74523100D01*
X145179071Y-74503098D01*
X145166033Y-74493197D01*
X145164248Y-74491956D01*
X145158575Y-74486902D01*
X145135484Y-74474676D01*
X145024431Y-74415876D01*
X145024429Y-74415875D01*
X145017718Y-74412322D01*
X145007944Y-74409867D01*
X144870509Y-74375346D01*
X144870506Y-74375346D01*
X144863138Y-74373495D01*
X144855538Y-74373455D01*
X144855537Y-74373455D01*
X144790179Y-74373113D01*
X144703758Y-74372660D01*
X144696378Y-74374432D01*
X144696376Y-74374432D01*
X144556160Y-74408095D01*
X144556158Y-74408096D01*
X144548780Y-74409867D01*
X144407150Y-74482968D01*
X144401428Y-74487960D01*
X144401426Y-74487961D01*
X144353402Y-74529855D01*
X144287045Y-74587742D01*
X144275130Y-74604696D01*
X144213923Y-74691785D01*
X144195400Y-74718140D01*
X144172566Y-74776706D01*
X144143182Y-74852073D01*
X144137504Y-74866635D01*
X144136513Y-74874162D01*
X144118350Y-75012123D01*
X144116700Y-75024654D01*
X143256500Y-75024654D01*
X143256500Y-68249320D01*
X151457404Y-68249320D01*
X151458140Y-68256323D01*
X151458140Y-68256324D01*
X151474284Y-68409918D01*
X151476364Y-68429712D01*
X151534818Y-68601421D01*
X151555774Y-68635484D01*
X151609747Y-68723215D01*
X151629862Y-68755912D01*
X151634793Y-68760947D01*
X151634795Y-68760950D01*
X151665338Y-68792139D01*
X151756771Y-68885507D01*
X151909238Y-68983765D01*
X151915858Y-68986174D01*
X151915861Y-68986176D01*
X152073066Y-69043394D01*
X152079685Y-69045803D01*
X152219769Y-69063500D01*
X152316610Y-69063500D01*
X152451255Y-69048397D01*
X152465622Y-69043394D01*
X152615894Y-68991064D01*
X152615897Y-68991062D01*
X152622552Y-68988745D01*
X152630522Y-68983765D01*
X152770402Y-68896359D01*
X152776376Y-68892626D01*
X152793043Y-68876075D01*
X152900085Y-68769778D01*
X152900088Y-68769774D01*
X152905082Y-68764815D01*
X152910053Y-68756983D01*
X152975839Y-68653319D01*
X153002273Y-68611666D01*
X153031055Y-68530837D01*
X153060757Y-68447425D01*
X153060758Y-68447420D01*
X153063119Y-68440790D01*
X153066801Y-68409918D01*
X153083762Y-68267673D01*
X153084596Y-68260680D01*
X153083402Y-68249320D01*
X159457404Y-68249320D01*
X159458140Y-68256323D01*
X159458140Y-68256324D01*
X159474284Y-68409918D01*
X159476364Y-68429712D01*
X159534818Y-68601421D01*
X159555774Y-68635484D01*
X159609747Y-68723215D01*
X159629862Y-68755912D01*
X159634793Y-68760947D01*
X159634795Y-68760950D01*
X159665338Y-68792139D01*
X159756771Y-68885507D01*
X159909238Y-68983765D01*
X159915858Y-68986174D01*
X159915861Y-68986176D01*
X160073066Y-69043394D01*
X160079685Y-69045803D01*
X160219769Y-69063500D01*
X160316610Y-69063500D01*
X160451255Y-69048397D01*
X160465622Y-69043394D01*
X160615894Y-68991064D01*
X160615897Y-68991062D01*
X160622552Y-68988745D01*
X160630522Y-68983765D01*
X160770402Y-68896359D01*
X160776376Y-68892626D01*
X160793043Y-68876075D01*
X160900085Y-68769778D01*
X160900088Y-68769774D01*
X160905082Y-68764815D01*
X160910053Y-68756983D01*
X160975839Y-68653319D01*
X161002273Y-68611666D01*
X161031055Y-68530837D01*
X161060757Y-68447425D01*
X161060758Y-68447420D01*
X161063119Y-68440790D01*
X161066801Y-68409918D01*
X161083762Y-68267673D01*
X161084596Y-68260680D01*
X161082667Y-68242327D01*
X161066372Y-68087288D01*
X161066371Y-68087286D01*
X161065636Y-68080288D01*
X161007182Y-67908579D01*
X160951981Y-67818852D01*
X160915834Y-67760095D01*
X160915832Y-67760092D01*
X160912138Y-67754088D01*
X160907207Y-67749053D01*
X160907205Y-67749050D01*
X160790157Y-67629525D01*
X160790156Y-67629524D01*
X160785229Y-67624493D01*
X160632762Y-67526235D01*
X160626142Y-67523826D01*
X160626139Y-67523824D01*
X160468934Y-67466606D01*
X160468933Y-67466606D01*
X160462315Y-67464197D01*
X160322231Y-67446500D01*
X160225390Y-67446500D01*
X160090745Y-67461603D01*
X160084092Y-67463920D01*
X160084091Y-67463920D01*
X159926106Y-67518936D01*
X159926103Y-67518938D01*
X159919448Y-67521255D01*
X159913469Y-67524991D01*
X159875418Y-67548768D01*
X159765624Y-67617374D01*
X159760628Y-67622335D01*
X159760627Y-67622336D01*
X159641915Y-67740222D01*
X159641912Y-67740226D01*
X159636918Y-67745185D01*
X159633144Y-67751131D01*
X159633143Y-67751133D01*
X159612924Y-67782994D01*
X159539727Y-67898334D01*
X159537362Y-67904976D01*
X159481243Y-68062575D01*
X159481242Y-68062580D01*
X159478881Y-68069210D01*
X159478048Y-68076198D01*
X159478047Y-68076201D01*
X159463368Y-68199302D01*
X159457404Y-68249320D01*
X153083402Y-68249320D01*
X153082667Y-68242327D01*
X153066372Y-68087288D01*
X153066371Y-68087286D01*
X153065636Y-68080288D01*
X153007182Y-67908579D01*
X152951981Y-67818852D01*
X152915834Y-67760095D01*
X152915832Y-67760092D01*
X152912138Y-67754088D01*
X152907207Y-67749053D01*
X152907205Y-67749050D01*
X152790157Y-67629525D01*
X152790156Y-67629524D01*
X152785229Y-67624493D01*
X152632762Y-67526235D01*
X152626142Y-67523826D01*
X152626139Y-67523824D01*
X152468934Y-67466606D01*
X152468933Y-67466606D01*
X152462315Y-67464197D01*
X152322231Y-67446500D01*
X152225390Y-67446500D01*
X152090745Y-67461603D01*
X152084092Y-67463920D01*
X152084091Y-67463920D01*
X151926106Y-67518936D01*
X151926103Y-67518938D01*
X151919448Y-67521255D01*
X151913469Y-67524991D01*
X151875418Y-67548768D01*
X151765624Y-67617374D01*
X151760628Y-67622335D01*
X151760627Y-67622336D01*
X151641915Y-67740222D01*
X151641912Y-67740226D01*
X151636918Y-67745185D01*
X151633144Y-67751131D01*
X151633143Y-67751133D01*
X151612924Y-67782994D01*
X151539727Y-67898334D01*
X151537362Y-67904976D01*
X151481243Y-68062575D01*
X151481242Y-68062580D01*
X151478881Y-68069210D01*
X151478048Y-68076198D01*
X151478047Y-68076201D01*
X151463368Y-68199302D01*
X151457404Y-68249320D01*
X143256500Y-68249320D01*
X143256500Y-66390472D01*
X143257855Y-66378342D01*
X143257373Y-66378303D01*
X143258093Y-66369356D01*
X143260074Y-66360600D01*
X143256742Y-66306892D01*
X143256500Y-66299090D01*
X143256500Y-66282887D01*
X143255016Y-66272522D01*
X143253987Y-66262472D01*
X143251611Y-66224184D01*
X143251055Y-66215223D01*
X143248006Y-66206777D01*
X143247407Y-66203886D01*
X143243178Y-66186920D01*
X143242352Y-66184095D01*
X143241080Y-66175213D01*
X143221478Y-66132102D01*
X143217672Y-66122751D01*
X143204645Y-66086665D01*
X143201596Y-66078219D01*
X143196301Y-66070971D01*
X143194920Y-66068373D01*
X143186085Y-66053255D01*
X143184506Y-66050786D01*
X143180792Y-66042618D01*
X143149884Y-66006747D01*
X143143599Y-65998831D01*
X143138452Y-65991785D01*
X143138447Y-65991780D01*
X143135575Y-65987848D01*
X143124600Y-65976873D01*
X143118242Y-65970025D01*
X143091576Y-65939077D01*
X143091575Y-65939076D01*
X143085713Y-65932273D01*
X143078178Y-65927389D01*
X143071934Y-65921942D01*
X143060069Y-65912342D01*
X134103643Y-56955916D01*
X138499412Y-56955916D01*
X138535660Y-57222263D01*
X138536968Y-57226749D01*
X138536968Y-57226751D01*
X138555737Y-57291144D01*
X138610878Y-57480326D01*
X138612838Y-57484579D01*
X138612839Y-57484580D01*
X138623915Y-57508606D01*
X138723415Y-57724437D01*
X138725978Y-57728346D01*
X138868231Y-57945319D01*
X138868235Y-57945324D01*
X138870797Y-57949232D01*
X138900082Y-57982043D01*
X139041477Y-58140462D01*
X139049788Y-58149774D01*
X139101738Y-58192980D01*
X139204993Y-58278856D01*
X139256454Y-58321656D01*
X139260447Y-58324079D01*
X139405776Y-58412267D01*
X139486256Y-58461104D01*
X139490570Y-58462913D01*
X139490574Y-58462915D01*
X139701500Y-58551363D01*
X139734145Y-58565052D01*
X139994677Y-58631219D01*
X140217934Y-58653700D01*
X140377837Y-58653700D01*
X140380162Y-58653527D01*
X140380168Y-58653527D01*
X140573008Y-58639196D01*
X140573009Y-58639196D01*
X140577663Y-58638850D01*
X140582216Y-58637820D01*
X140582221Y-58637819D01*
X140835269Y-58580561D01*
X140835274Y-58580560D01*
X140839837Y-58579527D01*
X141090362Y-58482102D01*
X141323736Y-58348718D01*
X141534831Y-58182305D01*
X141719009Y-57986517D01*
X141872226Y-57765657D01*
X141890626Y-57728346D01*
X141989049Y-57528764D01*
X141989050Y-57528761D01*
X141991114Y-57524576D01*
X141998006Y-57503047D01*
X142040358Y-57370737D01*
X142073062Y-57268570D01*
X142090465Y-57161715D01*
X142115519Y-57007874D01*
X142116270Y-57003263D01*
X142118843Y-56806700D01*
X142119727Y-56739161D01*
X142119727Y-56739158D01*
X142119788Y-56734484D01*
X142083540Y-56468137D01*
X142068746Y-56417379D01*
X142009633Y-56214573D01*
X142008322Y-56210074D01*
X141895785Y-55965963D01*
X141837282Y-55876731D01*
X141750969Y-55745081D01*
X141750965Y-55745076D01*
X141748403Y-55741168D01*
X141623770Y-55601529D01*
X141572529Y-55544118D01*
X141572527Y-55544116D01*
X141569412Y-55540626D01*
X141373392Y-55377598D01*
X141366340Y-55371733D01*
X141366339Y-55371732D01*
X141362746Y-55368744D01*
X141191077Y-55264572D01*
X141136942Y-55231722D01*
X141136941Y-55231722D01*
X141132944Y-55229296D01*
X141128630Y-55227487D01*
X141128626Y-55227485D01*
X140889369Y-55127157D01*
X140885055Y-55125348D01*
X140624523Y-55059181D01*
X140401266Y-55036700D01*
X140241363Y-55036700D01*
X140239038Y-55036873D01*
X140239032Y-55036873D01*
X140046192Y-55051204D01*
X140046191Y-55051204D01*
X140041537Y-55051550D01*
X140036984Y-55052580D01*
X140036979Y-55052581D01*
X139783931Y-55109839D01*
X139783926Y-55109840D01*
X139779363Y-55110873D01*
X139528838Y-55208298D01*
X139295464Y-55341682D01*
X139291798Y-55344572D01*
X139291795Y-55344574D01*
X139241220Y-55384444D01*
X139084369Y-55508095D01*
X138900191Y-55703883D01*
X138746974Y-55924743D01*
X138744907Y-55928933D01*
X138744906Y-55928936D01*
X138647896Y-56125654D01*
X138628086Y-56165824D01*
X138546138Y-56421830D01*
X138502930Y-56687137D01*
X138502869Y-56691813D01*
X138499557Y-56944868D01*
X138499412Y-56955916D01*
X134103643Y-56955916D01*
X129044005Y-51896278D01*
X129009979Y-51833966D01*
X129007100Y-51807183D01*
X129007100Y-46328970D01*
X129027102Y-46260849D01*
X129071533Y-46219036D01*
X129157593Y-46170840D01*
X129191230Y-46142865D01*
X129316855Y-46038384D01*
X129321293Y-46034693D01*
X129457440Y-45870993D01*
X129561476Y-45685223D01*
X129629916Y-45483605D01*
X129641802Y-45401634D01*
X129671373Y-45337088D01*
X129731145Y-45298776D01*
X129802141Y-45298862D01*
X129861821Y-45337317D01*
X129888294Y-45394302D01*
X129889461Y-45394006D01*
X129941872Y-45600372D01*
X129944289Y-45605615D01*
X129980989Y-45685223D01*
X130031011Y-45793731D01*
X130153896Y-45967609D01*
X130158030Y-45971636D01*
X130297842Y-46107835D01*
X130306409Y-46116181D01*
X130311205Y-46119386D01*
X130311208Y-46119388D01*
X130437283Y-46203628D01*
X130483443Y-46234471D01*
X130488746Y-46236749D01*
X130488749Y-46236751D01*
X130673763Y-46316239D01*
X130679070Y-46318519D01*
X130754916Y-46335681D01*
X130881101Y-46364234D01*
X130881106Y-46364235D01*
X130886738Y-46365509D01*
X130892509Y-46365736D01*
X130892511Y-46365736D01*
X130953852Y-46368146D01*
X131099491Y-46373869D01*
X131105200Y-46373041D01*
X131105204Y-46373041D01*
X131304490Y-46344145D01*
X131304494Y-46344144D01*
X131310205Y-46343316D01*
X131511823Y-46274876D01*
X131697593Y-46170840D01*
X131731230Y-46142865D01*
X131856855Y-46038384D01*
X131861293Y-46034693D01*
X131997440Y-45870993D01*
X132101476Y-45685223D01*
X132169916Y-45483605D01*
X132191128Y-45337317D01*
X132199937Y-45276561D01*
X132199937Y-45276559D01*
X132200469Y-45272891D01*
X132202063Y-45212000D01*
X132190087Y-45081669D01*
X132183110Y-45005730D01*
X132183109Y-45005727D01*
X132182581Y-44999976D01*
X132124786Y-44795052D01*
X132120543Y-44786447D01*
X132033170Y-44609273D01*
X132030615Y-44604092D01*
X131903222Y-44433491D01*
X131746871Y-44288963D01*
X131566801Y-44175347D01*
X131369041Y-44096449D01*
X131363381Y-44095323D01*
X131363377Y-44095322D01*
X131165882Y-44056038D01*
X131165880Y-44056038D01*
X131160215Y-44054911D01*
X131154440Y-44054835D01*
X131154436Y-44054835D01*
X131047761Y-44053439D01*
X130947316Y-44052124D01*
X130941619Y-44053103D01*
X130941618Y-44053103D01*
X130743164Y-44087203D01*
X130743161Y-44087204D01*
X130737474Y-44088181D01*
X130537716Y-44161875D01*
X130354734Y-44270739D01*
X130194654Y-44411125D01*
X130062838Y-44578333D01*
X130060149Y-44583444D01*
X130060147Y-44583447D01*
X130005685Y-44686961D01*
X129963700Y-44766762D01*
X129961986Y-44772283D01*
X129961984Y-44772287D01*
X129909094Y-44942623D01*
X129900561Y-44970102D01*
X129899882Y-44975840D01*
X129894690Y-45019705D01*
X129866819Y-45085003D01*
X129808071Y-45124867D01*
X129737096Y-45126640D01*
X129676430Y-45089761D01*
X129645332Y-45025937D01*
X129644095Y-45016449D01*
X129642581Y-44999976D01*
X129584786Y-44795052D01*
X129580543Y-44786447D01*
X129493170Y-44609273D01*
X129490615Y-44604092D01*
X129363222Y-44433491D01*
X129206871Y-44288963D01*
X129026801Y-44175347D01*
X128829041Y-44096449D01*
X128823381Y-44095323D01*
X128823377Y-44095322D01*
X128625882Y-44056038D01*
X128625880Y-44056038D01*
X128620215Y-44054911D01*
X128614440Y-44054835D01*
X128614436Y-44054835D01*
X128507761Y-44053439D01*
X128407316Y-44052124D01*
X128401619Y-44053103D01*
X128401618Y-44053103D01*
X128203164Y-44087203D01*
X128203161Y-44087204D01*
X128197474Y-44088181D01*
X127997716Y-44161875D01*
X127814734Y-44270739D01*
X127654654Y-44411125D01*
X127522838Y-44578333D01*
X127520149Y-44583444D01*
X127520147Y-44583447D01*
X127465685Y-44686961D01*
X127423700Y-44766762D01*
X127421986Y-44772283D01*
X127421984Y-44772287D01*
X127369094Y-44942623D01*
X127360561Y-44970102D01*
X127359882Y-44975840D01*
X127354690Y-45019705D01*
X127326819Y-45085003D01*
X127268071Y-45124867D01*
X127197096Y-45126640D01*
X127136430Y-45089761D01*
X127105332Y-45025937D01*
X127104095Y-45016449D01*
X127102581Y-44999976D01*
X127044786Y-44795052D01*
X127040543Y-44786447D01*
X126953170Y-44609273D01*
X126950615Y-44604092D01*
X126823222Y-44433491D01*
X126666871Y-44288963D01*
X126486801Y-44175347D01*
X126289041Y-44096449D01*
X126283381Y-44095323D01*
X126283377Y-44095322D01*
X126085882Y-44056038D01*
X126085880Y-44056038D01*
X126080215Y-44054911D01*
X126074440Y-44054835D01*
X126074436Y-44054835D01*
X125967761Y-44053439D01*
X125867316Y-44052124D01*
X125861619Y-44053103D01*
X125861618Y-44053103D01*
X125663164Y-44087203D01*
X125663161Y-44087204D01*
X125657474Y-44088181D01*
X125457716Y-44161875D01*
X125274734Y-44270739D01*
X125114654Y-44411125D01*
X124982838Y-44578333D01*
X124980149Y-44583444D01*
X124980147Y-44583447D01*
X124925685Y-44686961D01*
X124883700Y-44766762D01*
X124881986Y-44772283D01*
X124881984Y-44772287D01*
X124829094Y-44942623D01*
X124820561Y-44970102D01*
X124819882Y-44975840D01*
X124814690Y-45019705D01*
X124786819Y-45085003D01*
X124728071Y-45124867D01*
X124657096Y-45126640D01*
X124596430Y-45089761D01*
X124565332Y-45025937D01*
X124564095Y-45016449D01*
X124562581Y-44999976D01*
X124504786Y-44795052D01*
X124500543Y-44786447D01*
X124413170Y-44609273D01*
X124410615Y-44604092D01*
X124283222Y-44433491D01*
X124126871Y-44288963D01*
X123946801Y-44175347D01*
X123749041Y-44096449D01*
X123743381Y-44095323D01*
X123743377Y-44095322D01*
X123545882Y-44056038D01*
X123545880Y-44056038D01*
X123540215Y-44054911D01*
X123534440Y-44054835D01*
X123534436Y-44054835D01*
X123427761Y-44053439D01*
X123327316Y-44052124D01*
X123321619Y-44053103D01*
X123321618Y-44053103D01*
X123123164Y-44087203D01*
X123123161Y-44087204D01*
X123117474Y-44088181D01*
X122917716Y-44161875D01*
X122734734Y-44270739D01*
X122574654Y-44411125D01*
X122442838Y-44578333D01*
X122440149Y-44583444D01*
X122440147Y-44583447D01*
X122368665Y-44719312D01*
X122319246Y-44770284D01*
X122250113Y-44786447D01*
X122183217Y-44762668D01*
X122141607Y-44710886D01*
X122081572Y-44572814D01*
X122076705Y-44563739D01*
X121961026Y-44384926D01*
X121954736Y-44376757D01*
X121811406Y-44219240D01*
X121803873Y-44212215D01*
X121636739Y-44080222D01*
X121628152Y-44074517D01*
X121441717Y-43971599D01*
X121432305Y-43967369D01*
X121231559Y-43896280D01*
X121221588Y-43893646D01*
X121150437Y-43880972D01*
X121137140Y-43882432D01*
X121132600Y-43896989D01*
X121132600Y-46530517D01*
X121136664Y-46544359D01*
X121150078Y-46546393D01*
X121156784Y-46545534D01*
X121166862Y-46543392D01*
X121370855Y-46482191D01*
X121380442Y-46478433D01*
X121571695Y-46384739D01*
X121580545Y-46379464D01*
X121753928Y-46255792D01*
X121761800Y-46249139D01*
X121912652Y-46098812D01*
X121919330Y-46090965D01*
X122043603Y-45918020D01*
X122048913Y-45909183D01*
X122145564Y-45713626D01*
X122147027Y-45714349D01*
X122186228Y-45664113D01*
X122253231Y-45640639D01*
X122322289Y-45657117D01*
X122374127Y-45713723D01*
X122411011Y-45793731D01*
X122533896Y-45967609D01*
X122538030Y-45971636D01*
X122677842Y-46107835D01*
X122686409Y-46116181D01*
X122691205Y-46119386D01*
X122691208Y-46119388D01*
X122817283Y-46203628D01*
X122863443Y-46234471D01*
X122868746Y-46236749D01*
X122868749Y-46236751D01*
X123053763Y-46316239D01*
X123059070Y-46318519D01*
X123134916Y-46335681D01*
X123261101Y-46364234D01*
X123261106Y-46364235D01*
X123266738Y-46365509D01*
X123272509Y-46365736D01*
X123272511Y-46365736D01*
X123333852Y-46368146D01*
X123479491Y-46373869D01*
X123485200Y-46373041D01*
X123485204Y-46373041D01*
X123684490Y-46344145D01*
X123684494Y-46344144D01*
X123690205Y-46343316D01*
X123891823Y-46274876D01*
X124077593Y-46170840D01*
X124111230Y-46142865D01*
X124236855Y-46038384D01*
X124241293Y-46034693D01*
X124377440Y-45870993D01*
X124481476Y-45685223D01*
X124549916Y-45483605D01*
X124561802Y-45401634D01*
X124591373Y-45337088D01*
X124651145Y-45298776D01*
X124722141Y-45298862D01*
X124781821Y-45337317D01*
X124808294Y-45394302D01*
X124809461Y-45394006D01*
X124861872Y-45600372D01*
X124864289Y-45605615D01*
X124900989Y-45685223D01*
X124951011Y-45793731D01*
X125073896Y-45967609D01*
X125078030Y-45971636D01*
X125217842Y-46107835D01*
X125226409Y-46116181D01*
X125231205Y-46119386D01*
X125231208Y-46119388D01*
X125357283Y-46203628D01*
X125403443Y-46234471D01*
X125408746Y-46236749D01*
X125408749Y-46236751D01*
X125593763Y-46316239D01*
X125599070Y-46318519D01*
X125674916Y-46335681D01*
X125801101Y-46364234D01*
X125801106Y-46364235D01*
X125806738Y-46365509D01*
X125812509Y-46365736D01*
X125812511Y-46365736D01*
X125873852Y-46368146D01*
X126019491Y-46373869D01*
X126025200Y-46373041D01*
X126025204Y-46373041D01*
X126224490Y-46344145D01*
X126224494Y-46344144D01*
X126230205Y-46343316D01*
X126431823Y-46274876D01*
X126617593Y-46170840D01*
X126651230Y-46142865D01*
X126776855Y-46038384D01*
X126781293Y-46034693D01*
X126917440Y-45870993D01*
X127021476Y-45685223D01*
X127089916Y-45483605D01*
X127101802Y-45401634D01*
X127131373Y-45337088D01*
X127191145Y-45298776D01*
X127262141Y-45298862D01*
X127321821Y-45337317D01*
X127348294Y-45394302D01*
X127349461Y-45394006D01*
X127401872Y-45600372D01*
X127404289Y-45605615D01*
X127440989Y-45685223D01*
X127491011Y-45793731D01*
X127613896Y-45967609D01*
X127618030Y-45971636D01*
X127757842Y-46107835D01*
X127766409Y-46116181D01*
X127771205Y-46119386D01*
X127771208Y-46119388D01*
X127934102Y-46228230D01*
X127979630Y-46282707D01*
X127990100Y-46332995D01*
X127990100Y-47598900D01*
X127970098Y-47667021D01*
X127916442Y-47713514D01*
X127864100Y-47724900D01*
X122976757Y-47724900D01*
X122908636Y-47704898D01*
X122887203Y-47686486D01*
X122887157Y-47686419D01*
X122880894Y-47680839D01*
X122764793Y-47577396D01*
X122764790Y-47577394D01*
X122759121Y-47572343D01*
X122751125Y-47568109D01*
X122614281Y-47495654D01*
X122614282Y-47495654D01*
X122607569Y-47492100D01*
X122589996Y-47487686D01*
X122448622Y-47452175D01*
X122448618Y-47452175D01*
X122441251Y-47450324D01*
X122433652Y-47450284D01*
X122433650Y-47450284D01*
X122362194Y-47449910D01*
X122269769Y-47449426D01*
X122262389Y-47451198D01*
X122262387Y-47451198D01*
X122110402Y-47487686D01*
X122110398Y-47487687D01*
X122103023Y-47489458D01*
X121950639Y-47568109D01*
X121821415Y-47680839D01*
X121722810Y-47821139D01*
X121660518Y-47980909D01*
X121638135Y-48150926D01*
X121638969Y-48158476D01*
X121654148Y-48295966D01*
X121656953Y-48321375D01*
X121715885Y-48482415D01*
X121720122Y-48488721D01*
X121720124Y-48488724D01*
X121741565Y-48520631D01*
X121811530Y-48624749D01*
X121870087Y-48678032D01*
X121913902Y-48717900D01*
X121938365Y-48740160D01*
X122089068Y-48821985D01*
X122254939Y-48865501D01*
X122342386Y-48866874D01*
X122418803Y-48868075D01*
X122418806Y-48868075D01*
X122426402Y-48868194D01*
X122433806Y-48866498D01*
X122433808Y-48866498D01*
X122496646Y-48852106D01*
X122593559Y-48829910D01*
X122746758Y-48752859D01*
X122752529Y-48747930D01*
X122752532Y-48747928D01*
X122871378Y-48646423D01*
X122877155Y-48641489D01*
X122881589Y-48635319D01*
X122884076Y-48632614D01*
X122944909Y-48596009D01*
X122976825Y-48591900D01*
X127864100Y-48591900D01*
X127932221Y-48611902D01*
X127978714Y-48665558D01*
X127990100Y-48717900D01*
X127990100Y-51998928D01*
X127988745Y-52011058D01*
X127989227Y-52011097D01*
X127988507Y-52020044D01*
X127986526Y-52028800D01*
X127987082Y-52037760D01*
X127989858Y-52082508D01*
X127990100Y-52090310D01*
X127990100Y-52106513D01*
X127990736Y-52110953D01*
X127991584Y-52116878D01*
X127992613Y-52126928D01*
X127993057Y-52134080D01*
X127995545Y-52174177D01*
X127998594Y-52182623D01*
X127999193Y-52185514D01*
X128003422Y-52202480D01*
X128004248Y-52205305D01*
X128005520Y-52214187D01*
X128025122Y-52257298D01*
X128028927Y-52266647D01*
X128045004Y-52311181D01*
X128050299Y-52318429D01*
X128051680Y-52321027D01*
X128060515Y-52336145D01*
X128062094Y-52338614D01*
X128065808Y-52346782D01*
X128096715Y-52382652D01*
X128103001Y-52390569D01*
X128108148Y-52397615D01*
X128108153Y-52397620D01*
X128111025Y-52401552D01*
X128122000Y-52412527D01*
X128128358Y-52419375D01*
X128154922Y-52450204D01*
X128160887Y-52457127D01*
X128168422Y-52462011D01*
X128174666Y-52467458D01*
X128186531Y-52477058D01*
X142202595Y-66493123D01*
X142236621Y-66555435D01*
X142239500Y-66582218D01*
X142239500Y-77091004D01*
X142219498Y-77159125D01*
X142165842Y-77205618D01*
X142095568Y-77215722D01*
X142030988Y-77186228D01*
X142000494Y-77146732D01*
X141913770Y-76970873D01*
X141911215Y-76965692D01*
X141891071Y-76938715D01*
X141827569Y-76853676D01*
X141783822Y-76795091D01*
X141627471Y-76650563D01*
X141447401Y-76536947D01*
X141249641Y-76458049D01*
X141243981Y-76456923D01*
X141243977Y-76456922D01*
X141046482Y-76417638D01*
X141046480Y-76417638D01*
X141040815Y-76416511D01*
X141035040Y-76416435D01*
X141035036Y-76416435D01*
X140928361Y-76415039D01*
X140827916Y-76413724D01*
X140822219Y-76414703D01*
X140822218Y-76414703D01*
X140623764Y-76448803D01*
X140623761Y-76448804D01*
X140618074Y-76449781D01*
X140418316Y-76523475D01*
X140235334Y-76632339D01*
X140075254Y-76772725D01*
X140071687Y-76777250D01*
X140071682Y-76777255D01*
X140055261Y-76798086D01*
X139997380Y-76839199D01*
X139926460Y-76842493D01*
X139865017Y-76806921D01*
X139832560Y-76743778D01*
X139830311Y-76720080D01*
X139830311Y-74114883D01*
X139831666Y-74102753D01*
X139831184Y-74102714D01*
X139831904Y-74093767D01*
X139833885Y-74085011D01*
X139830553Y-74031303D01*
X139830311Y-74023501D01*
X139830311Y-74007298D01*
X139828827Y-73996933D01*
X139827798Y-73986883D01*
X139825422Y-73948595D01*
X139824866Y-73939634D01*
X139821817Y-73931188D01*
X139821218Y-73928297D01*
X139816989Y-73911331D01*
X139816163Y-73908506D01*
X139814891Y-73899624D01*
X139795289Y-73856513D01*
X139791483Y-73847162D01*
X139778456Y-73811076D01*
X139775407Y-73802630D01*
X139770112Y-73795382D01*
X139768731Y-73792784D01*
X139759896Y-73777666D01*
X139758317Y-73775197D01*
X139754603Y-73767029D01*
X139723695Y-73731158D01*
X139717410Y-73723242D01*
X139712263Y-73716196D01*
X139712258Y-73716191D01*
X139709386Y-73712259D01*
X139698411Y-73701284D01*
X139692053Y-73694436D01*
X139665387Y-73663488D01*
X139665386Y-73663487D01*
X139659524Y-73656684D01*
X139651989Y-73651800D01*
X139645745Y-73646353D01*
X139633880Y-73636753D01*
X139297023Y-73299896D01*
X139289400Y-73290356D01*
X139289032Y-73290670D01*
X139283214Y-73283834D01*
X139278424Y-73276242D01*
X139238075Y-73240607D01*
X139232388Y-73235261D01*
X139220945Y-73223818D01*
X139212570Y-73217541D01*
X139204741Y-73211167D01*
X139169249Y-73179822D01*
X139161126Y-73176008D01*
X139158638Y-73174374D01*
X139143677Y-73165386D01*
X139141092Y-73163971D01*
X139133905Y-73158584D01*
X139089557Y-73141959D01*
X139080240Y-73138032D01*
X139045526Y-73121734D01*
X139037400Y-73117919D01*
X139028531Y-73116538D01*
X139025698Y-73115672D01*
X139008811Y-73111242D01*
X139005926Y-73110608D01*
X138997516Y-73107455D01*
X138968358Y-73105288D01*
X138950294Y-73103946D01*
X138940248Y-73102792D01*
X138931625Y-73101449D01*
X138931622Y-73101449D01*
X138926814Y-73100700D01*
X138911294Y-73100700D01*
X138901957Y-73100354D01*
X138885054Y-73099098D01*
X138852259Y-73096661D01*
X138843480Y-73098535D01*
X138835222Y-73099098D01*
X138820039Y-73100700D01*
X117153617Y-73100700D01*
X117085496Y-73080698D01*
X117064522Y-73063795D01*
X112559405Y-68558678D01*
X112525379Y-68496366D01*
X112522500Y-68469583D01*
X112522500Y-65942632D01*
X112546176Y-65869108D01*
X112595286Y-65800765D01*
X112654733Y-65652884D01*
X112677191Y-65495092D01*
X112677336Y-65481200D01*
X112674771Y-65460000D01*
X112659101Y-65330515D01*
X112659101Y-65330514D01*
X112658188Y-65322972D01*
X112601851Y-65173879D01*
X112511576Y-65042528D01*
X112477021Y-65011740D01*
X112443493Y-64981868D01*
X112405937Y-64921618D01*
X112406917Y-64850628D01*
X112410405Y-64840796D01*
X112448699Y-64745537D01*
X112448701Y-64745528D01*
X112451533Y-64738484D01*
X112473991Y-64580692D01*
X112474136Y-64566800D01*
X112473392Y-64560646D01*
X112455901Y-64416115D01*
X112455901Y-64416114D01*
X112454988Y-64408572D01*
X112449769Y-64394761D01*
X112401336Y-64266584D01*
X112401335Y-64266582D01*
X112398651Y-64259479D01*
X112394352Y-64253224D01*
X112394350Y-64253220D01*
X112308907Y-64128901D01*
X112286807Y-64061432D01*
X112304692Y-63992725D01*
X112310425Y-63984008D01*
X112387652Y-63876536D01*
X112387653Y-63876534D01*
X112392086Y-63870365D01*
X112432127Y-63770760D01*
X112448701Y-63729529D01*
X112451533Y-63722484D01*
X112473991Y-63564692D01*
X112474136Y-63550800D01*
X112457978Y-63417275D01*
X112455901Y-63400115D01*
X112455901Y-63400114D01*
X112454988Y-63392572D01*
X112433716Y-63336276D01*
X112401336Y-63250584D01*
X112401335Y-63250582D01*
X112398651Y-63243479D01*
X112357324Y-63183348D01*
X112335225Y-63115881D01*
X112353110Y-63047174D01*
X112358830Y-63038476D01*
X112426810Y-62943872D01*
X112486257Y-62795991D01*
X112508715Y-62638199D01*
X112508860Y-62624307D01*
X112504630Y-62589348D01*
X112490625Y-62473622D01*
X112490625Y-62473621D01*
X112489712Y-62466079D01*
X112487027Y-62458973D01*
X112436060Y-62324091D01*
X112436059Y-62324089D01*
X112433375Y-62316986D01*
X112429076Y-62310731D01*
X112429074Y-62310727D01*
X112367292Y-62220835D01*
X112350107Y-62195830D01*
X112328007Y-62128362D01*
X112345892Y-62059655D01*
X112351625Y-62050938D01*
X112382458Y-62008030D01*
X112382459Y-62008028D01*
X112386892Y-62001859D01*
X112392432Y-61988079D01*
X112443507Y-61861023D01*
X112446339Y-61853978D01*
X112468797Y-61696186D01*
X112468942Y-61682294D01*
X112467600Y-61671200D01*
X112450707Y-61531609D01*
X112450707Y-61531608D01*
X112449794Y-61524066D01*
X112443906Y-61508483D01*
X112396142Y-61382078D01*
X112396141Y-61382076D01*
X112393457Y-61374973D01*
X112303182Y-61243622D01*
X112291122Y-61232877D01*
X112189853Y-61142649D01*
X112189850Y-61142647D01*
X112184181Y-61137596D01*
X112176751Y-61133662D01*
X112050037Y-61066570D01*
X112050035Y-61066569D01*
X112043324Y-61063016D01*
X112033550Y-61060561D01*
X111896115Y-61026040D01*
X111896112Y-61026040D01*
X111888744Y-61024189D01*
X111881144Y-61024149D01*
X111881143Y-61024149D01*
X111815785Y-61023807D01*
X111729364Y-61023354D01*
X111721984Y-61025126D01*
X111721982Y-61025126D01*
X111581766Y-61058789D01*
X111581764Y-61058790D01*
X111574386Y-61060561D01*
X111510547Y-61093511D01*
X111450271Y-61124622D01*
X111432756Y-61133662D01*
X111427034Y-61138654D01*
X111427032Y-61138655D01*
X111422345Y-61142744D01*
X111357863Y-61172451D01*
X111339517Y-61173794D01*
X99958178Y-61173794D01*
X99946048Y-61172439D01*
X99946009Y-61172921D01*
X99937062Y-61172201D01*
X99928306Y-61170220D01*
X99884769Y-61172921D01*
X99874598Y-61173552D01*
X99866796Y-61173794D01*
X99850593Y-61173794D01*
X99842191Y-61174997D01*
X99840228Y-61175278D01*
X99830178Y-61176307D01*
X99792321Y-61178656D01*
X99782929Y-61179239D01*
X99774483Y-61182288D01*
X99771592Y-61182887D01*
X99754626Y-61187116D01*
X99751801Y-61187942D01*
X99742919Y-61189214D01*
X99699808Y-61208816D01*
X99690459Y-61212621D01*
X99645925Y-61228698D01*
X99638677Y-61233993D01*
X99636079Y-61235374D01*
X99620961Y-61244209D01*
X99618492Y-61245788D01*
X99610324Y-61249502D01*
X99603528Y-61255358D01*
X99574454Y-61280409D01*
X99566537Y-61286695D01*
X99559491Y-61291842D01*
X99559486Y-61291847D01*
X99555554Y-61294719D01*
X99544579Y-61305694D01*
X99537731Y-61312052D01*
X99512330Y-61333939D01*
X99499979Y-61344581D01*
X99495095Y-61352116D01*
X99489648Y-61358360D01*
X99480048Y-61370225D01*
X95397896Y-65452377D01*
X95388356Y-65460000D01*
X95388670Y-65460368D01*
X95381834Y-65466186D01*
X95374242Y-65470976D01*
X95368300Y-65477704D01*
X95338607Y-65511325D01*
X95333261Y-65517012D01*
X95321818Y-65528455D01*
X95316178Y-65535980D01*
X95315541Y-65536830D01*
X95309167Y-65544659D01*
X95277822Y-65580151D01*
X95274008Y-65588274D01*
X95272374Y-65590762D01*
X95263386Y-65605723D01*
X95261971Y-65608308D01*
X95256584Y-65615495D01*
X95253433Y-65623901D01*
X95239959Y-65659842D01*
X95236033Y-65669158D01*
X95215919Y-65712000D01*
X95214538Y-65720869D01*
X95213672Y-65723702D01*
X95209242Y-65740589D01*
X95208608Y-65743474D01*
X95205455Y-65751884D01*
X95204790Y-65760839D01*
X95201946Y-65799106D01*
X95200792Y-65809152D01*
X95198700Y-65822586D01*
X95198700Y-65827454D01*
X95198524Y-65829728D01*
X95173324Y-65896102D01*
X95116240Y-65938315D01*
X95045395Y-65942964D01*
X94983284Y-65908575D01*
X94949625Y-65846064D01*
X94946900Y-65820003D01*
X94946900Y-56086352D01*
X94966902Y-56018231D01*
X94983805Y-55997256D01*
X95646658Y-55334404D01*
X95708970Y-55300379D01*
X95735753Y-55297500D01*
X106067249Y-55297500D01*
X106135370Y-55317502D01*
X106156344Y-55334405D01*
X106158399Y-55336460D01*
X106192425Y-55398772D01*
X106194175Y-55415890D01*
X106194500Y-55415854D01*
X106208661Y-55544118D01*
X106211990Y-55574273D01*
X106214599Y-55581404D01*
X106214600Y-55581406D01*
X106226731Y-55614555D01*
X106266763Y-55723948D01*
X106271000Y-55730254D01*
X106271002Y-55730257D01*
X106291775Y-55761170D01*
X106355658Y-55856237D01*
X106473542Y-55963504D01*
X106613610Y-56039554D01*
X106767775Y-56079999D01*
X106849026Y-56081275D01*
X106919538Y-56082383D01*
X106919541Y-56082383D01*
X106927137Y-56082502D01*
X106934541Y-56080806D01*
X106934543Y-56080806D01*
X106992186Y-56067604D01*
X107082497Y-56046920D01*
X107107866Y-56034161D01*
X107218102Y-55978719D01*
X107218105Y-55978717D01*
X107224885Y-55975307D01*
X107346080Y-55871796D01*
X107439086Y-55742365D01*
X107446490Y-55723948D01*
X107495701Y-55601529D01*
X107498533Y-55594484D01*
X107520991Y-55436692D01*
X107521136Y-55422800D01*
X107520296Y-55415854D01*
X107502901Y-55272115D01*
X107502901Y-55272114D01*
X107501988Y-55264572D01*
X107489575Y-55231722D01*
X107448336Y-55122584D01*
X107448335Y-55122582D01*
X107445651Y-55115479D01*
X107355376Y-54984128D01*
X107335088Y-54966052D01*
X107297533Y-54905803D01*
X107298513Y-54834813D01*
X107337078Y-54776166D01*
X107416498Y-54708335D01*
X107416501Y-54708332D01*
X107422280Y-54703396D01*
X107491772Y-54606688D01*
X107510852Y-54580136D01*
X107510853Y-54580134D01*
X107515286Y-54573965D01*
X107521835Y-54557675D01*
X107571901Y-54433129D01*
X107574733Y-54426084D01*
X107597191Y-54268292D01*
X107597336Y-54254400D01*
X107594286Y-54229190D01*
X107579101Y-54103715D01*
X107579101Y-54103714D01*
X107578188Y-54096172D01*
X107574083Y-54085308D01*
X107524536Y-53954184D01*
X107524535Y-53954182D01*
X107521851Y-53947079D01*
X107466827Y-53867018D01*
X107435878Y-53821987D01*
X107435877Y-53821985D01*
X107431576Y-53815728D01*
X107425905Y-53810675D01*
X107318247Y-53714755D01*
X107318244Y-53714753D01*
X107312575Y-53709702D01*
X107290606Y-53698070D01*
X107178431Y-53638676D01*
X107178429Y-53638675D01*
X107171718Y-53635122D01*
X107161944Y-53632667D01*
X107024509Y-53598146D01*
X107024506Y-53598146D01*
X107017138Y-53596295D01*
X107009538Y-53596255D01*
X107009537Y-53596255D01*
X106944179Y-53595913D01*
X106857758Y-53595460D01*
X106850378Y-53597232D01*
X106850376Y-53597232D01*
X106710160Y-53630895D01*
X106710158Y-53630896D01*
X106702780Y-53632667D01*
X106643180Y-53663429D01*
X106575381Y-53698423D01*
X106561150Y-53705768D01*
X106555428Y-53710760D01*
X106555426Y-53710761D01*
X106464766Y-53789849D01*
X106400284Y-53819557D01*
X106381937Y-53820900D01*
X95080005Y-53820900D01*
X95065196Y-53820027D01*
X95042382Y-53817327D01*
X95033029Y-53816220D01*
X95023764Y-53817912D01*
X95023763Y-53817912D01*
X94977580Y-53826346D01*
X94973678Y-53826996D01*
X94927206Y-53833983D01*
X94917894Y-53835383D01*
X94911631Y-53838391D01*
X94904795Y-53839639D01*
X94856111Y-53864929D01*
X94854779Y-53865621D01*
X94851237Y-53867391D01*
X94829727Y-53877720D01*
X94800384Y-53891810D01*
X94795280Y-53896528D01*
X94789116Y-53899730D01*
X94784269Y-53903869D01*
X94748490Y-53939648D01*
X94744924Y-53943077D01*
X94711577Y-53973902D01*
X94711575Y-53973905D01*
X94704662Y-53980295D01*
X94701080Y-53986463D01*
X94695964Y-53992174D01*
X93341352Y-55346786D01*
X93330263Y-55356641D01*
X93304822Y-55376697D01*
X93289565Y-55398772D01*
X93272762Y-55423084D01*
X93270465Y-55426299D01*
X93236960Y-55471661D01*
X93234658Y-55478215D01*
X93230707Y-55483932D01*
X93221990Y-55511497D01*
X93213696Y-55537722D01*
X93212442Y-55541479D01*
X93198000Y-55582603D01*
X93193768Y-55594653D01*
X93193495Y-55601595D01*
X93191400Y-55608220D01*
X93190900Y-55614574D01*
X93190900Y-55665166D01*
X93190803Y-55670112D01*
X93188650Y-55724907D01*
X93190478Y-55731803D01*
X93190900Y-55739463D01*
X93190900Y-72347488D01*
X93170898Y-72415609D01*
X93164871Y-72424180D01*
X93103037Y-72504764D01*
X93041723Y-72652789D01*
X93020810Y-72811639D01*
X93021888Y-72819827D01*
X93029975Y-72881254D01*
X93019036Y-72951402D01*
X92971908Y-73004501D01*
X92905053Y-73023700D01*
X88264000Y-73023700D01*
X88195879Y-73003698D01*
X88149386Y-72950042D01*
X88138000Y-72897700D01*
X88138000Y-67818695D01*
X88124452Y-67818695D01*
X83209971Y-67818758D01*
X81311036Y-67818782D01*
X81242915Y-67798781D01*
X81221943Y-67781881D01*
X80418445Y-66978383D01*
X80396278Y-66944346D01*
X80395429Y-66944830D01*
X80390766Y-66936655D01*
X80387366Y-66927866D01*
X80302010Y-66819593D01*
X80188591Y-66741203D01*
X80113496Y-66717454D01*
X80063981Y-66701795D01*
X80057135Y-66699630D01*
X80050401Y-66699100D01*
X77371341Y-66699100D01*
X77303220Y-66679098D01*
X77294782Y-66672298D01*
X77294387Y-66672813D01*
X77173826Y-66580302D01*
X77167276Y-66575276D01*
X77159650Y-66572117D01*
X77159648Y-66572116D01*
X77026880Y-66517122D01*
X77026877Y-66517121D01*
X77019250Y-66513962D01*
X76860400Y-66493049D01*
X76701550Y-66513962D01*
X76553525Y-66575276D01*
X76426413Y-66672813D01*
X76328876Y-66799925D01*
X76267562Y-66947950D01*
X76246649Y-67106800D01*
X76254800Y-67168710D01*
X76265579Y-67250584D01*
X76267562Y-67265650D01*
X76328876Y-67413675D01*
X76354445Y-67446997D01*
X76421384Y-67534234D01*
X76421387Y-67534237D01*
X76426413Y-67540787D01*
X76432968Y-67545817D01*
X76494303Y-67592882D01*
X76536170Y-67650220D01*
X76540392Y-67721091D01*
X76505628Y-67782994D01*
X76442915Y-67816275D01*
X76417601Y-67818844D01*
X75793902Y-67818852D01*
X75725781Y-67798851D01*
X75679287Y-67745196D01*
X75667900Y-67692852D01*
X75667900Y-63336276D01*
X75687902Y-63268155D01*
X75712069Y-63240466D01*
X75728974Y-63226028D01*
X75728981Y-63226021D01*
X75734755Y-63221089D01*
X75813052Y-63112128D01*
X75830392Y-63087998D01*
X75830393Y-63087997D01*
X75834824Y-63081830D01*
X75898785Y-62922720D01*
X75902954Y-62893425D01*
X75922366Y-62757031D01*
X75922366Y-62757027D01*
X75922947Y-62752947D01*
X75923104Y-62738000D01*
X75911520Y-62642278D01*
X75903415Y-62575299D01*
X75903414Y-62575296D01*
X75902502Y-62567758D01*
X75896459Y-62551764D01*
X75844571Y-62414447D01*
X75841887Y-62407344D01*
X75783252Y-62322029D01*
X75749059Y-62272278D01*
X75749058Y-62272276D01*
X75744757Y-62266019D01*
X75738819Y-62260728D01*
X75622393Y-62156996D01*
X75622390Y-62156994D01*
X75616721Y-62151943D01*
X75608725Y-62147709D01*
X75471881Y-62075254D01*
X75471882Y-62075254D01*
X75465169Y-62071700D01*
X75417216Y-62059655D01*
X75306222Y-62031775D01*
X75306218Y-62031775D01*
X75298851Y-62029924D01*
X75291252Y-62029884D01*
X75291250Y-62029884D01*
X75219794Y-62029510D01*
X75127369Y-62029026D01*
X75119989Y-62030798D01*
X75119987Y-62030798D01*
X74968002Y-62067286D01*
X74967998Y-62067287D01*
X74960623Y-62069058D01*
X74808239Y-62147709D01*
X74679015Y-62260439D01*
X74580410Y-62400739D01*
X74557579Y-62459298D01*
X74521528Y-62551764D01*
X74518118Y-62560509D01*
X74517126Y-62568042D01*
X74517126Y-62568043D01*
X74508225Y-62635657D01*
X74495735Y-62730526D01*
X74502361Y-62790545D01*
X74510377Y-62863147D01*
X74514553Y-62900975D01*
X74517162Y-62908106D01*
X74517163Y-62908108D01*
X74536322Y-62960462D01*
X74573485Y-63062015D01*
X74590211Y-63086905D01*
X74611602Y-63154600D01*
X74592998Y-63223116D01*
X74540305Y-63270697D01*
X74470252Y-63282237D01*
X74426671Y-63268534D01*
X74372969Y-63240100D01*
X74355396Y-63235686D01*
X74214022Y-63200175D01*
X74214018Y-63200175D01*
X74206651Y-63198324D01*
X74199052Y-63198284D01*
X74199050Y-63198284D01*
X74127594Y-63197910D01*
X74035169Y-63197426D01*
X74027789Y-63199198D01*
X74027787Y-63199198D01*
X73875802Y-63235686D01*
X73875798Y-63235687D01*
X73868423Y-63237458D01*
X73716039Y-63316109D01*
X73586815Y-63428839D01*
X73488210Y-63569139D01*
X73483890Y-63580220D01*
X73431355Y-63714965D01*
X73425918Y-63728909D01*
X73424926Y-63736442D01*
X73424926Y-63736443D01*
X73406483Y-63876536D01*
X73403535Y-63898926D01*
X73407649Y-63936190D01*
X73418711Y-64036383D01*
X73422353Y-64069375D01*
X73424962Y-64076506D01*
X73424963Y-64076508D01*
X73440407Y-64118711D01*
X73481285Y-64230415D01*
X73485522Y-64236721D01*
X73485524Y-64236724D01*
X73513152Y-64277838D01*
X73576930Y-64372749D01*
X73582548Y-64377861D01*
X73642899Y-64432776D01*
X73679822Y-64493417D01*
X73684100Y-64525970D01*
X73684100Y-67692881D01*
X73664098Y-67761002D01*
X73610442Y-67807495D01*
X73558103Y-67818881D01*
X73271498Y-67818884D01*
X73124823Y-67818886D01*
X73056702Y-67798885D01*
X73010209Y-67745230D01*
X73000104Y-67674956D01*
X73005509Y-67652385D01*
X73006244Y-67650220D01*
X73069116Y-67465005D01*
X73071743Y-67446893D01*
X73099137Y-67257961D01*
X73099137Y-67257959D01*
X73099669Y-67254291D01*
X73101263Y-67193400D01*
X73086687Y-67034769D01*
X73082310Y-66987130D01*
X73082309Y-66987127D01*
X73081781Y-66981376D01*
X73071798Y-66945979D01*
X73025554Y-66782011D01*
X73025553Y-66782009D01*
X73023986Y-66776452D01*
X73020014Y-66768396D01*
X72932370Y-66590673D01*
X72929815Y-66585492D01*
X72925940Y-66580302D01*
X72805874Y-66419514D01*
X72802422Y-66414891D01*
X72646071Y-66270363D01*
X72466001Y-66156747D01*
X72268241Y-66077849D01*
X72262581Y-66076723D01*
X72262577Y-66076722D01*
X72065082Y-66037438D01*
X72065080Y-66037438D01*
X72059415Y-66036311D01*
X72053640Y-66036235D01*
X72053636Y-66036235D01*
X71946961Y-66034839D01*
X71846516Y-66033524D01*
X71840819Y-66034503D01*
X71840818Y-66034503D01*
X71642364Y-66068603D01*
X71642361Y-66068604D01*
X71636674Y-66069581D01*
X71436916Y-66143275D01*
X71253934Y-66252139D01*
X71093854Y-66392525D01*
X70962038Y-66559733D01*
X70959349Y-66564844D01*
X70959347Y-66564847D01*
X70942575Y-66596725D01*
X70862900Y-66748162D01*
X70861186Y-66753683D01*
X70861184Y-66753687D01*
X70844458Y-66807555D01*
X70799761Y-66951502D01*
X70799082Y-66957240D01*
X70793890Y-67001105D01*
X70766019Y-67066403D01*
X70707271Y-67106267D01*
X70636296Y-67108040D01*
X70575630Y-67071161D01*
X70544532Y-67007337D01*
X70543295Y-66997849D01*
X70541781Y-66981376D01*
X70531798Y-66945979D01*
X70485554Y-66782011D01*
X70485553Y-66782009D01*
X70483986Y-66776452D01*
X70480014Y-66768396D01*
X70392370Y-66590673D01*
X70389815Y-66585492D01*
X70385940Y-66580302D01*
X70265874Y-66419514D01*
X70262422Y-66414891D01*
X70106071Y-66270363D01*
X69926001Y-66156747D01*
X69728241Y-66077849D01*
X69722581Y-66076723D01*
X69722577Y-66076722D01*
X69525082Y-66037438D01*
X69525080Y-66037438D01*
X69519415Y-66036311D01*
X69513640Y-66036235D01*
X69513636Y-66036235D01*
X69406961Y-66034839D01*
X69306516Y-66033524D01*
X69300819Y-66034503D01*
X69300818Y-66034503D01*
X69102364Y-66068603D01*
X69102361Y-66068604D01*
X69096674Y-66069581D01*
X68896916Y-66143275D01*
X68713934Y-66252139D01*
X68553854Y-66392525D01*
X68422038Y-66559733D01*
X68419349Y-66564844D01*
X68419347Y-66564847D01*
X68402575Y-66596725D01*
X68322900Y-66748162D01*
X68321186Y-66753683D01*
X68321184Y-66753687D01*
X68304458Y-66807555D01*
X68259761Y-66951502D01*
X68234736Y-67162944D01*
X68248661Y-67375406D01*
X68250082Y-67381002D01*
X68250083Y-67381007D01*
X68279673Y-67497516D01*
X68301072Y-67581772D01*
X68323086Y-67629525D01*
X68328007Y-67640199D01*
X68338361Y-67710437D01*
X68309098Y-67775122D01*
X68249508Y-67813718D01*
X68213584Y-67818949D01*
X67486502Y-67818958D01*
X67418381Y-67798957D01*
X67371887Y-67745302D01*
X67360500Y-67692958D01*
X67360500Y-64926528D01*
X67380502Y-64858407D01*
X67397405Y-64837433D01*
X69599181Y-62635657D01*
X69602990Y-62632004D01*
X69611360Y-62624307D01*
X69649378Y-62589348D01*
X69667259Y-62560509D01*
X69672681Y-62551764D01*
X69679406Y-62541980D01*
X69700950Y-62513597D01*
X69700952Y-62513593D01*
X69706148Y-62506748D01*
X69711825Y-62492411D01*
X69721889Y-62472401D01*
X69725485Y-62466601D01*
X69725487Y-62466596D01*
X69730012Y-62459298D01*
X69742352Y-62416824D01*
X69746197Y-62405595D01*
X69759314Y-62372465D01*
X69759315Y-62372460D01*
X69762477Y-62364474D01*
X69763375Y-62355935D01*
X69763377Y-62355925D01*
X69764090Y-62349138D01*
X69768401Y-62327161D01*
X69770863Y-62318688D01*
X69770863Y-62318686D01*
X69772703Y-62312354D01*
X69773500Y-62301501D01*
X69773500Y-62266210D01*
X69774190Y-62253038D01*
X69777575Y-62220835D01*
X69778473Y-62212292D01*
X69775263Y-62193314D01*
X69773500Y-62172312D01*
X69773500Y-61663726D01*
X87551335Y-61663726D01*
X87554464Y-61692064D01*
X87562463Y-61764517D01*
X87570153Y-61834175D01*
X87572762Y-61841306D01*
X87572763Y-61841308D01*
X87579978Y-61861023D01*
X87629085Y-61995215D01*
X87633322Y-62001521D01*
X87633324Y-62001524D01*
X87667365Y-62052181D01*
X87724730Y-62137549D01*
X87762934Y-62172312D01*
X87841114Y-62243450D01*
X87851565Y-62252960D01*
X88002268Y-62334785D01*
X88168139Y-62378301D01*
X88255586Y-62379674D01*
X88332003Y-62380875D01*
X88332006Y-62380875D01*
X88339602Y-62380994D01*
X88347006Y-62379298D01*
X88347008Y-62379298D01*
X88449059Y-62355925D01*
X88506759Y-62342710D01*
X88659958Y-62265659D01*
X88665729Y-62260730D01*
X88665732Y-62260728D01*
X88784578Y-62159223D01*
X88790355Y-62154289D01*
X88878391Y-62031775D01*
X88885992Y-62021198D01*
X88885993Y-62021197D01*
X88890424Y-62015030D01*
X88954385Y-61855920D01*
X88955455Y-61848402D01*
X88977966Y-61690231D01*
X88977966Y-61690227D01*
X88978547Y-61686147D01*
X88978621Y-61679057D01*
X88978661Y-61675333D01*
X88978661Y-61675327D01*
X88978704Y-61671200D01*
X88968385Y-61585931D01*
X88959015Y-61508499D01*
X88959014Y-61508496D01*
X88958102Y-61500958D01*
X88936754Y-61444460D01*
X88900171Y-61347647D01*
X88897487Y-61340544D01*
X88860478Y-61286695D01*
X88804659Y-61205478D01*
X88804658Y-61205476D01*
X88800357Y-61199219D01*
X88794095Y-61193639D01*
X88766081Y-61168680D01*
X88728525Y-61108430D01*
X88723900Y-61074604D01*
X88723900Y-54790952D01*
X88743902Y-54722831D01*
X88760805Y-54701856D01*
X88869791Y-54592871D01*
X88932103Y-54558846D01*
X88960864Y-54555983D01*
X89068604Y-54557675D01*
X89068607Y-54557675D01*
X89076202Y-54557794D01*
X89083606Y-54556098D01*
X89083608Y-54556098D01*
X89146446Y-54541706D01*
X89243359Y-54519510D01*
X89396558Y-54442459D01*
X89402329Y-54437530D01*
X89402332Y-54437528D01*
X89521178Y-54336023D01*
X89526955Y-54331089D01*
X89627024Y-54191830D01*
X89690985Y-54032720D01*
X89696436Y-53994420D01*
X89714566Y-53867031D01*
X89714566Y-53867027D01*
X89715147Y-53862947D01*
X89715304Y-53848000D01*
X89708267Y-53789849D01*
X89695615Y-53685299D01*
X89695614Y-53685296D01*
X89694702Y-53677758D01*
X89679935Y-53638676D01*
X89636771Y-53524447D01*
X89634087Y-53517344D01*
X89619030Y-53495436D01*
X89541259Y-53382278D01*
X89541258Y-53382276D01*
X89536957Y-53376019D01*
X89531286Y-53370966D01*
X89414593Y-53266996D01*
X89414590Y-53266994D01*
X89408921Y-53261943D01*
X89400925Y-53257709D01*
X89320335Y-53215039D01*
X89257369Y-53181700D01*
X89214086Y-53170828D01*
X89098422Y-53141775D01*
X89098418Y-53141775D01*
X89091051Y-53139924D01*
X89083452Y-53139884D01*
X89083450Y-53139884D01*
X89011994Y-53139510D01*
X88919569Y-53139026D01*
X88912189Y-53140798D01*
X88912187Y-53140798D01*
X88760202Y-53177286D01*
X88760198Y-53177287D01*
X88752823Y-53179058D01*
X88600439Y-53257709D01*
X88471215Y-53370439D01*
X88372610Y-53510739D01*
X88355548Y-53554500D01*
X88332940Y-53612488D01*
X88310318Y-53670509D01*
X88309326Y-53678042D01*
X88309326Y-53678043D01*
X88289755Y-53826704D01*
X88287935Y-53840526D01*
X88289605Y-53855648D01*
X88292041Y-53877720D01*
X88279635Y-53947624D01*
X88255897Y-53980641D01*
X88007348Y-54229190D01*
X87996259Y-54239044D01*
X87970822Y-54259097D01*
X87938762Y-54305484D01*
X87936465Y-54308699D01*
X87902960Y-54354061D01*
X87900658Y-54360615D01*
X87896707Y-54366332D01*
X87893868Y-54375310D01*
X87879696Y-54420122D01*
X87878442Y-54423879D01*
X87875194Y-54433129D01*
X87859768Y-54477053D01*
X87859495Y-54483995D01*
X87857400Y-54490620D01*
X87856900Y-54496974D01*
X87856900Y-54547566D01*
X87856803Y-54552512D01*
X87854650Y-54607307D01*
X87856478Y-54614203D01*
X87856900Y-54621863D01*
X87856900Y-61029673D01*
X87836898Y-61097794D01*
X87813730Y-61124622D01*
X87734615Y-61193639D01*
X87636010Y-61333939D01*
X87619479Y-61376339D01*
X87582626Y-61470862D01*
X87573718Y-61493709D01*
X87572726Y-61501242D01*
X87572726Y-61501243D01*
X87562172Y-61581414D01*
X87551335Y-61663726D01*
X69773500Y-61663726D01*
X69773500Y-60412859D01*
X73553132Y-60412859D01*
X73566457Y-60616151D01*
X73616605Y-60813610D01*
X73701898Y-60998624D01*
X73819479Y-61164997D01*
X73847556Y-61192348D01*
X73956185Y-61298170D01*
X73965410Y-61307157D01*
X73970206Y-61310362D01*
X73970209Y-61310364D01*
X74068948Y-61376339D01*
X74134803Y-61420342D01*
X74140106Y-61422620D01*
X74140109Y-61422622D01*
X74289089Y-61486629D01*
X74321987Y-61500763D01*
X74371816Y-61512038D01*
X74515055Y-61544450D01*
X74515060Y-61544451D01*
X74520692Y-61545725D01*
X74526463Y-61545952D01*
X74526465Y-61545952D01*
X74589470Y-61548427D01*
X74724263Y-61553723D01*
X74925883Y-61524490D01*
X74931347Y-61522635D01*
X74931352Y-61522634D01*
X75113327Y-61460862D01*
X75113332Y-61460860D01*
X75118799Y-61459004D01*
X75175711Y-61427132D01*
X75256160Y-61382078D01*
X75296551Y-61359458D01*
X75453186Y-61229186D01*
X75583458Y-61072551D01*
X75676279Y-60906808D01*
X75680180Y-60899842D01*
X75680181Y-60899840D01*
X75683004Y-60894799D01*
X75684860Y-60889332D01*
X75684862Y-60889327D01*
X75746634Y-60707352D01*
X75746635Y-60707347D01*
X75748490Y-60701883D01*
X75777723Y-60500263D01*
X75779249Y-60442000D01*
X75760608Y-60239126D01*
X75755367Y-60220543D01*
X75706875Y-60048606D01*
X75706874Y-60048604D01*
X75705307Y-60043047D01*
X75694680Y-60021496D01*
X75617756Y-59865510D01*
X75615201Y-59860329D01*
X75596796Y-59835681D01*
X75496758Y-59701715D01*
X75496758Y-59701714D01*
X75493305Y-59697091D01*
X75403646Y-59614211D01*
X75347943Y-59562719D01*
X75347940Y-59562717D01*
X75343703Y-59558800D01*
X75279682Y-59518406D01*
X75176288Y-59453169D01*
X75176283Y-59453167D01*
X75171404Y-59450088D01*
X74982180Y-59374595D01*
X74782366Y-59334849D01*
X74776592Y-59334773D01*
X74776588Y-59334773D01*
X74673452Y-59333424D01*
X74578655Y-59332183D01*
X74572958Y-59333162D01*
X74572957Y-59333162D01*
X74383567Y-59365705D01*
X74377870Y-59366684D01*
X74186734Y-59437198D01*
X74181773Y-59440150D01*
X74181772Y-59440150D01*
X74062226Y-59511273D01*
X74011649Y-59541363D01*
X73858478Y-59675690D01*
X73854911Y-59680215D01*
X73854906Y-59680220D01*
X73778436Y-59777222D01*
X73732351Y-59835681D01*
X73729662Y-59840792D01*
X73729660Y-59840795D01*
X73698246Y-59900504D01*
X73637492Y-60015978D01*
X73577078Y-60210543D01*
X73553132Y-60412859D01*
X69773500Y-60412859D01*
X69773500Y-56836989D01*
X69793502Y-56768868D01*
X69847158Y-56722375D01*
X69899500Y-56710989D01*
X73981500Y-56710989D01*
X74049621Y-56730991D01*
X74096114Y-56784647D01*
X74107500Y-56836989D01*
X74107500Y-56872687D01*
X74087498Y-56940808D01*
X74045923Y-56980972D01*
X74011649Y-57001363D01*
X73858478Y-57135690D01*
X73854911Y-57140215D01*
X73854906Y-57140220D01*
X73793880Y-57217632D01*
X73732351Y-57295681D01*
X73729662Y-57300792D01*
X73729660Y-57300795D01*
X73694375Y-57367861D01*
X73637492Y-57475978D01*
X73577078Y-57670543D01*
X73553132Y-57872859D01*
X73566457Y-58076151D01*
X73616605Y-58273610D01*
X73690958Y-58434893D01*
X73698984Y-58452302D01*
X73701898Y-58458624D01*
X73819479Y-58624997D01*
X73855102Y-58659699D01*
X73952082Y-58754173D01*
X73965410Y-58767157D01*
X73970206Y-58770362D01*
X73970209Y-58770364D01*
X74043684Y-58819458D01*
X74134803Y-58880342D01*
X74140106Y-58882620D01*
X74140109Y-58882622D01*
X74316680Y-58958483D01*
X74321987Y-58960763D01*
X74371816Y-58972038D01*
X74515055Y-59004450D01*
X74515060Y-59004451D01*
X74520692Y-59005725D01*
X74526463Y-59005952D01*
X74526465Y-59005952D01*
X74589211Y-59008417D01*
X74724263Y-59013723D01*
X74925883Y-58984490D01*
X74931347Y-58982635D01*
X74931352Y-58982634D01*
X75113327Y-58920862D01*
X75113332Y-58920860D01*
X75118799Y-58919004D01*
X75174195Y-58887981D01*
X75207852Y-58869132D01*
X75296551Y-58819458D01*
X75453186Y-58689186D01*
X75583458Y-58532551D01*
X75683004Y-58354799D01*
X75684860Y-58349332D01*
X75684862Y-58349327D01*
X75746634Y-58167352D01*
X75746635Y-58167347D01*
X75748490Y-58161883D01*
X75777723Y-57960263D01*
X75779249Y-57902000D01*
X75760608Y-57699126D01*
X75752547Y-57670543D01*
X75706875Y-57508606D01*
X75706874Y-57508604D01*
X75705307Y-57503047D01*
X75696201Y-57484580D01*
X75617756Y-57325510D01*
X75615201Y-57320329D01*
X75596796Y-57295681D01*
X75496758Y-57161715D01*
X75496758Y-57161714D01*
X75493305Y-57157091D01*
X75384124Y-57056165D01*
X75347943Y-57022719D01*
X75347940Y-57022717D01*
X75343703Y-57018800D01*
X75283264Y-56980666D01*
X75236327Y-56927401D01*
X75224500Y-56874105D01*
X75224500Y-56178078D01*
X75224838Y-56168850D01*
X75228010Y-56125654D01*
X75228639Y-56117091D01*
X75226941Y-56108672D01*
X75226903Y-56108062D01*
X75224500Y-56083988D01*
X75224500Y-53748955D01*
X75244502Y-53680834D01*
X75298158Y-53634341D01*
X75368432Y-53624237D01*
X75433012Y-53653731D01*
X75445734Y-53666454D01*
X75473121Y-53698070D01*
X75541866Y-53777432D01*
X75541869Y-53777435D01*
X75545250Y-53781338D01*
X75717126Y-53924032D01*
X75910000Y-54036738D01*
X76118692Y-54116430D01*
X76123760Y-54117461D01*
X76123763Y-54117462D01*
X76218444Y-54136725D01*
X76337597Y-54160967D01*
X76342772Y-54161157D01*
X76342774Y-54161157D01*
X76555673Y-54168964D01*
X76555677Y-54168964D01*
X76560837Y-54169153D01*
X76565957Y-54168497D01*
X76565959Y-54168497D01*
X76777288Y-54141425D01*
X76777289Y-54141425D01*
X76782416Y-54140768D01*
X76795892Y-54136725D01*
X76991429Y-54078061D01*
X76991434Y-54078059D01*
X76996384Y-54076574D01*
X77196994Y-53978296D01*
X77378860Y-53848573D01*
X77383556Y-53843894D01*
X77518217Y-53709702D01*
X77537096Y-53690889D01*
X77551741Y-53670509D01*
X77664435Y-53513677D01*
X77667453Y-53509477D01*
X77669902Y-53504523D01*
X77764136Y-53313853D01*
X77764137Y-53313851D01*
X77766430Y-53309211D01*
X77817598Y-53140798D01*
X77829865Y-53100423D01*
X77829865Y-53100421D01*
X77831370Y-53095469D01*
X77860529Y-52873990D01*
X77860611Y-52870640D01*
X77862074Y-52810765D01*
X77862074Y-52810761D01*
X77862156Y-52807400D01*
X77843852Y-52584761D01*
X77789431Y-52368102D01*
X77700354Y-52163240D01*
X77579014Y-51975677D01*
X77428670Y-51810451D01*
X77424619Y-51807252D01*
X77424615Y-51807248D01*
X77257414Y-51675200D01*
X77257410Y-51675198D01*
X77253359Y-51671998D01*
X77235547Y-51662165D01*
X77152529Y-51616337D01*
X77057789Y-51564038D01*
X77052920Y-51562314D01*
X77052916Y-51562312D01*
X76852087Y-51491195D01*
X76852083Y-51491194D01*
X76847212Y-51489469D01*
X76842119Y-51488562D01*
X76842116Y-51488561D01*
X76632373Y-51451200D01*
X76632367Y-51451199D01*
X76627284Y-51450294D01*
X76553452Y-51449392D01*
X76409081Y-51447628D01*
X76409079Y-51447628D01*
X76403911Y-51447565D01*
X76183091Y-51481355D01*
X75970756Y-51550757D01*
X75970315Y-51549409D01*
X75906253Y-51556647D01*
X75853593Y-51530643D01*
X75848521Y-51580611D01*
X75804302Y-51636156D01*
X75790013Y-51644846D01*
X75772607Y-51653907D01*
X75768474Y-51657010D01*
X75768471Y-51657012D01*
X75618824Y-51769370D01*
X75593965Y-51788035D01*
X75490526Y-51896278D01*
X75441594Y-51947482D01*
X75380070Y-51982912D01*
X75309157Y-51979455D01*
X75251371Y-51938209D01*
X75225057Y-51872269D01*
X75224500Y-51860431D01*
X75224500Y-51624511D01*
X75244502Y-51556390D01*
X75298158Y-51509897D01*
X75332419Y-51499815D01*
X75516466Y-51473130D01*
X75521930Y-51471275D01*
X75521935Y-51471274D01*
X75691326Y-51413773D01*
X75762261Y-51410817D01*
X75806869Y-51436927D01*
X75808189Y-51393386D01*
X75848364Y-51334850D01*
X75866383Y-51322598D01*
X75912213Y-51296932D01*
X76079446Y-51157846D01*
X76218532Y-50990613D01*
X76221351Y-50985580D01*
X76221354Y-50985575D01*
X76246689Y-50940335D01*
X76297425Y-50890673D01*
X76356624Y-50875900D01*
X84598952Y-50875900D01*
X84667073Y-50895902D01*
X84688047Y-50912805D01*
X85848423Y-52073181D01*
X85852076Y-52076990D01*
X85894732Y-52123378D01*
X85911993Y-52134080D01*
X85932316Y-52146681D01*
X85942100Y-52153406D01*
X85970483Y-52174950D01*
X85970487Y-52174952D01*
X85977332Y-52180148D01*
X85985322Y-52183311D01*
X85985321Y-52183311D01*
X85991668Y-52185824D01*
X86011679Y-52195889D01*
X86017479Y-52199485D01*
X86017484Y-52199487D01*
X86024782Y-52204012D01*
X86033029Y-52206408D01*
X86067256Y-52216352D01*
X86078485Y-52220197D01*
X86111615Y-52233314D01*
X86111620Y-52233315D01*
X86119606Y-52236477D01*
X86128145Y-52237375D01*
X86128155Y-52237377D01*
X86134942Y-52238090D01*
X86156919Y-52242401D01*
X86165392Y-52244863D01*
X86165394Y-52244863D01*
X86171726Y-52246703D01*
X86178786Y-52247221D01*
X86180272Y-52247331D01*
X86180283Y-52247331D01*
X86182579Y-52247500D01*
X86217870Y-52247500D01*
X86231039Y-52248190D01*
X86271788Y-52252473D01*
X86290766Y-52249263D01*
X86311768Y-52247500D01*
X104323789Y-52247500D01*
X104391910Y-52267502D01*
X104438403Y-52321158D01*
X104448507Y-52391432D01*
X104419013Y-52456012D01*
X104400496Y-52473460D01*
X104366413Y-52499613D01*
X104268876Y-52626725D01*
X104207562Y-52774750D01*
X104186649Y-52933600D01*
X104207562Y-53092450D01*
X104210722Y-53100079D01*
X104210956Y-53100645D01*
X104268876Y-53240475D01*
X104311800Y-53296414D01*
X104361384Y-53361034D01*
X104361387Y-53361037D01*
X104366413Y-53367587D01*
X104372963Y-53372613D01*
X104372964Y-53372614D01*
X104431107Y-53417229D01*
X104493524Y-53465124D01*
X104501150Y-53468283D01*
X104501152Y-53468284D01*
X104633920Y-53523278D01*
X104633923Y-53523279D01*
X104641550Y-53526438D01*
X104800400Y-53547351D01*
X104808588Y-53546273D01*
X104951062Y-53527516D01*
X104959250Y-53526438D01*
X104966877Y-53523279D01*
X104966880Y-53523278D01*
X105099648Y-53468284D01*
X105099650Y-53468283D01*
X105107276Y-53465124D01*
X105194611Y-53398109D01*
X105227841Y-53372610D01*
X105234387Y-53367587D01*
X105239410Y-53361041D01*
X105239414Y-53361037D01*
X105255406Y-53340196D01*
X105312744Y-53298329D01*
X105355368Y-53290900D01*
X110224814Y-53290900D01*
X110292935Y-53310902D01*
X110339428Y-53364558D01*
X110349736Y-53433347D01*
X110338615Y-53517819D01*
X110334700Y-53547554D01*
X110340077Y-53596255D01*
X110350525Y-53690889D01*
X110352190Y-53705973D01*
X110354799Y-53713104D01*
X110354800Y-53713106D01*
X110359586Y-53726184D01*
X110406963Y-53855648D01*
X110411200Y-53861954D01*
X110411202Y-53861957D01*
X110450694Y-53920727D01*
X110464197Y-53940820D01*
X110467281Y-53945410D01*
X110488700Y-54015686D01*
X110488700Y-57404489D01*
X110468698Y-57472610D01*
X110415042Y-57519103D01*
X110362700Y-57530489D01*
X107004931Y-57530489D01*
X106936810Y-57510487D01*
X106921112Y-57498565D01*
X106865871Y-57449347D01*
X106865865Y-57449343D01*
X106860195Y-57444291D01*
X106846187Y-57436874D01*
X106726051Y-57373265D01*
X106726049Y-57373264D01*
X106719338Y-57369711D01*
X106709564Y-57367256D01*
X106572129Y-57332735D01*
X106572126Y-57332735D01*
X106564758Y-57330884D01*
X106557158Y-57330844D01*
X106557157Y-57330844D01*
X106491799Y-57330502D01*
X106405378Y-57330049D01*
X106397998Y-57331821D01*
X106397996Y-57331821D01*
X106257780Y-57365484D01*
X106257778Y-57365485D01*
X106250400Y-57367256D01*
X106108770Y-57440357D01*
X106103048Y-57445349D01*
X106103046Y-57445350D01*
X106050148Y-57491496D01*
X105988665Y-57545131D01*
X105984298Y-57551345D01*
X105904402Y-57665026D01*
X105897020Y-57675529D01*
X105839124Y-57824024D01*
X105838133Y-57831551D01*
X105819871Y-57970263D01*
X105818320Y-57982043D01*
X105824890Y-58041548D01*
X105832988Y-58114898D01*
X105835810Y-58140462D01*
X105838419Y-58147593D01*
X105838420Y-58147595D01*
X105839486Y-58150508D01*
X105890583Y-58290137D01*
X105894820Y-58296443D01*
X105894822Y-58296446D01*
X105905429Y-58312230D01*
X105979478Y-58422426D01*
X106097362Y-58529693D01*
X106137274Y-58551363D01*
X106230753Y-58602118D01*
X106230755Y-58602119D01*
X106237430Y-58605743D01*
X106244173Y-58607512D01*
X106299937Y-58651023D01*
X106323413Y-58718026D01*
X106306937Y-58787085D01*
X106255741Y-58836273D01*
X106197579Y-58850500D01*
X105498903Y-58850500D01*
X105430782Y-58830498D01*
X105420476Y-58822671D01*
X105416854Y-58820154D01*
X105411184Y-58815102D01*
X105353827Y-58784733D01*
X105277040Y-58744076D01*
X105277038Y-58744075D01*
X105270327Y-58740522D01*
X105260553Y-58738067D01*
X105123118Y-58703546D01*
X105123115Y-58703546D01*
X105115747Y-58701695D01*
X105108147Y-58701655D01*
X105108146Y-58701655D01*
X105042788Y-58701313D01*
X104956367Y-58700860D01*
X104948987Y-58702632D01*
X104948985Y-58702632D01*
X104808769Y-58736295D01*
X104808767Y-58736296D01*
X104801389Y-58738067D01*
X104659759Y-58811168D01*
X104654037Y-58816160D01*
X104654035Y-58816161D01*
X104614672Y-58850500D01*
X104539654Y-58915942D01*
X104535287Y-58922156D01*
X104465945Y-59020820D01*
X104448009Y-59046340D01*
X104415601Y-59129462D01*
X104394449Y-59183715D01*
X104390113Y-59194835D01*
X104389122Y-59202362D01*
X104370363Y-59344849D01*
X104369309Y-59352854D01*
X104373050Y-59386737D01*
X104384422Y-59489740D01*
X104386799Y-59511273D01*
X104389408Y-59518404D01*
X104389409Y-59518406D01*
X104400389Y-59548409D01*
X104441572Y-59660948D01*
X104445809Y-59667254D01*
X104445811Y-59667257D01*
X104472579Y-59707091D01*
X104530467Y-59793237D01*
X104648351Y-59900504D01*
X104788419Y-59976554D01*
X104942584Y-60016999D01*
X105023835Y-60018275D01*
X105094347Y-60019383D01*
X105094350Y-60019383D01*
X105101946Y-60019502D01*
X105109350Y-60017806D01*
X105109352Y-60017806D01*
X105166995Y-60004604D01*
X105257306Y-59983920D01*
X105314593Y-59955108D01*
X105392911Y-59915719D01*
X105392914Y-59915717D01*
X105399694Y-59912307D01*
X105520889Y-59808796D01*
X105522162Y-59807024D01*
X105581015Y-59771610D01*
X105612933Y-59767500D01*
X106687542Y-59767500D01*
X106755663Y-59787502D01*
X106772341Y-59800306D01*
X106854542Y-59875104D01*
X106994610Y-59951154D01*
X107148775Y-59991599D01*
X107230026Y-59992875D01*
X107300538Y-59993983D01*
X107300541Y-59993983D01*
X107308137Y-59994102D01*
X107315541Y-59992406D01*
X107315543Y-59992406D01*
X107400575Y-59972931D01*
X107463497Y-59958520D01*
X107485346Y-59947531D01*
X107599102Y-59890319D01*
X107599105Y-59890317D01*
X107605885Y-59886907D01*
X107727080Y-59783396D01*
X107797289Y-59685690D01*
X107815652Y-59660136D01*
X107815653Y-59660134D01*
X107820086Y-59653965D01*
X107879533Y-59506084D01*
X107901991Y-59348292D01*
X107902136Y-59334400D01*
X107899745Y-59314638D01*
X107883901Y-59183715D01*
X107883901Y-59183714D01*
X107882988Y-59176172D01*
X107845718Y-59077539D01*
X107829336Y-59034184D01*
X107829335Y-59034182D01*
X107826651Y-59027079D01*
X107793470Y-58978800D01*
X112873449Y-58978800D01*
X112894362Y-59137650D01*
X112955676Y-59285675D01*
X113033224Y-59386737D01*
X113053213Y-59412787D01*
X113050403Y-59414943D01*
X113076621Y-59462957D01*
X113079500Y-59489740D01*
X113079500Y-66458788D01*
X113059498Y-66526909D01*
X113053462Y-66535492D01*
X113006476Y-66596725D01*
X112945162Y-66744750D01*
X112924249Y-66903600D01*
X112945162Y-67062450D01*
X113006476Y-67210475D01*
X113054667Y-67273279D01*
X113098984Y-67331034D01*
X113098987Y-67331037D01*
X113104013Y-67337587D01*
X113231124Y-67435124D01*
X113238750Y-67438283D01*
X113238752Y-67438284D01*
X113371520Y-67493278D01*
X113371523Y-67493279D01*
X113379150Y-67496438D01*
X113538000Y-67517351D01*
X113546188Y-67516273D01*
X113688662Y-67497516D01*
X113696850Y-67496438D01*
X113704477Y-67493279D01*
X113704480Y-67493278D01*
X113837248Y-67438284D01*
X113837250Y-67438283D01*
X113844876Y-67435124D01*
X113971987Y-67337587D01*
X113977013Y-67331037D01*
X113977016Y-67331034D01*
X114021333Y-67273279D01*
X114069524Y-67210475D01*
X114130838Y-67062450D01*
X114151751Y-66903600D01*
X114130838Y-66744750D01*
X114069524Y-66596725D01*
X114022538Y-66535492D01*
X113996937Y-66469272D01*
X113996500Y-66458788D01*
X113996500Y-59355775D01*
X114013380Y-59292777D01*
X114013701Y-59292222D01*
X114018724Y-59285675D01*
X114021885Y-59278045D01*
X114076878Y-59145279D01*
X114080038Y-59137650D01*
X114100951Y-58978800D01*
X114080038Y-58819950D01*
X114018724Y-58671925D01*
X113969172Y-58607348D01*
X113926216Y-58551366D01*
X113926213Y-58551363D01*
X113921187Y-58544813D01*
X113901483Y-58529693D01*
X113800626Y-58452302D01*
X113794076Y-58447276D01*
X113786450Y-58444117D01*
X113786448Y-58444116D01*
X113653680Y-58389122D01*
X113653677Y-58389121D01*
X113646050Y-58385962D01*
X113487200Y-58365049D01*
X113328350Y-58385962D01*
X113180325Y-58447276D01*
X113053213Y-58544813D01*
X112955676Y-58671925D01*
X112894362Y-58819950D01*
X112873449Y-58978800D01*
X107793470Y-58978800D01*
X107757305Y-58926180D01*
X107740678Y-58901987D01*
X107740677Y-58901985D01*
X107736376Y-58895728D01*
X107727681Y-58887981D01*
X107623047Y-58794755D01*
X107623044Y-58794753D01*
X107617375Y-58789702D01*
X107593682Y-58777157D01*
X107483231Y-58718676D01*
X107483229Y-58718675D01*
X107476518Y-58715122D01*
X107469156Y-58713273D01*
X107469154Y-58713272D01*
X107399166Y-58695693D01*
X107337970Y-58659699D01*
X107305949Y-58596333D01*
X107313269Y-58525715D01*
X107357606Y-58470265D01*
X107429861Y-58447489D01*
X110880230Y-58447489D01*
X110892216Y-58448860D01*
X110892254Y-58448373D01*
X110901643Y-58449112D01*
X110910820Y-58451239D01*
X110920215Y-58450574D01*
X110920218Y-58450574D01*
X110959332Y-58447804D01*
X110968231Y-58447489D01*
X110981648Y-58447489D01*
X110992674Y-58445832D01*
X111002487Y-58444749D01*
X111048348Y-58441501D01*
X111057136Y-58438101D01*
X111065772Y-58436171D01*
X111074226Y-58433570D01*
X111083540Y-58432170D01*
X111092029Y-58428093D01*
X111092031Y-58428093D01*
X111124989Y-58412267D01*
X111134067Y-58408339D01*
X111176934Y-58391755D01*
X111184332Y-58385923D01*
X111192016Y-58381540D01*
X111199333Y-58376567D01*
X111207826Y-58372489D01*
X111241587Y-58341280D01*
X111249104Y-58334860D01*
X111277811Y-58312230D01*
X111277813Y-58312228D01*
X111285207Y-58306399D01*
X111290561Y-58298653D01*
X111296619Y-58292202D01*
X111302153Y-58285294D01*
X111309069Y-58278901D01*
X111313798Y-58270760D01*
X111313801Y-58270756D01*
X111332164Y-58239142D01*
X111337457Y-58230800D01*
X111363597Y-58192980D01*
X111366438Y-58183999D01*
X111370329Y-58176055D01*
X111373587Y-58167826D01*
X111378318Y-58159681D01*
X111388699Y-58114894D01*
X111391309Y-58105356D01*
X111403003Y-58068378D01*
X111403004Y-58068373D01*
X111405170Y-58061524D01*
X111405700Y-58054790D01*
X111405700Y-58052321D01*
X111405742Y-58051252D01*
X111406723Y-58043946D01*
X111406584Y-58043935D01*
X111407323Y-58034546D01*
X111409450Y-58025369D01*
X111406015Y-57976856D01*
X111405700Y-57967958D01*
X111405700Y-54130405D01*
X111425702Y-54062284D01*
X111449869Y-54034594D01*
X111480502Y-54008431D01*
X111480502Y-54008430D01*
X111486280Y-54003496D01*
X111545756Y-53920727D01*
X111574852Y-53880236D01*
X111574853Y-53880234D01*
X111579286Y-53874065D01*
X111582681Y-53865621D01*
X111635901Y-53733229D01*
X111638733Y-53726184D01*
X111661191Y-53568392D01*
X111661336Y-53554500D01*
X111658368Y-53529976D01*
X111670040Y-53459947D01*
X111717721Y-53407344D01*
X111786272Y-53388870D01*
X111831673Y-53398430D01*
X111949120Y-53447078D01*
X111949123Y-53447079D01*
X111956750Y-53450238D01*
X112115600Y-53471151D01*
X112123788Y-53470073D01*
X112266262Y-53451316D01*
X112274450Y-53450238D01*
X112282077Y-53447079D01*
X112282080Y-53447078D01*
X112414848Y-53392084D01*
X112414850Y-53392083D01*
X112422476Y-53388924D01*
X112450283Y-53367587D01*
X112543036Y-53296414D01*
X112543037Y-53296413D01*
X112549587Y-53291387D01*
X112554613Y-53284837D01*
X112554616Y-53284834D01*
X112612041Y-53209996D01*
X112647124Y-53164275D01*
X112708438Y-53016250D01*
X112729351Y-52857400D01*
X112708438Y-52698550D01*
X112647124Y-52550525D01*
X112570143Y-52450203D01*
X112544544Y-52383984D01*
X112558809Y-52314435D01*
X112608410Y-52263639D01*
X112670107Y-52247500D01*
X117654100Y-52247500D01*
X117722221Y-52267502D01*
X117768714Y-52321158D01*
X117780100Y-52373500D01*
X117780100Y-60549472D01*
X117760098Y-60617593D01*
X117743195Y-60638567D01*
X115627432Y-62754330D01*
X115565120Y-62788356D01*
X115551513Y-62790544D01*
X115453838Y-62800810D01*
X115402289Y-62806228D01*
X115402288Y-62806228D01*
X115395288Y-62806964D01*
X115223579Y-62865418D01*
X115217575Y-62869112D01*
X115075095Y-62956766D01*
X115075092Y-62956768D01*
X115069088Y-62960462D01*
X115064053Y-62965393D01*
X115064050Y-62965395D01*
X114945151Y-63081830D01*
X114939493Y-63087371D01*
X114841235Y-63239838D01*
X114838826Y-63246458D01*
X114838824Y-63246461D01*
X114781606Y-63403666D01*
X114779197Y-63410285D01*
X114756463Y-63590240D01*
X114774163Y-63770760D01*
X114831418Y-63942873D01*
X114835065Y-63948895D01*
X114835066Y-63948897D01*
X114912350Y-64076508D01*
X114925380Y-64098024D01*
X115051382Y-64228502D01*
X115126775Y-64277838D01*
X115193098Y-64321238D01*
X115203159Y-64327822D01*
X115209763Y-64330278D01*
X115209765Y-64330279D01*
X115366558Y-64388590D01*
X115366560Y-64388590D01*
X115373168Y-64391048D01*
X115451246Y-64401466D01*
X115545980Y-64414107D01*
X115545984Y-64414107D01*
X115552961Y-64415038D01*
X115559972Y-64414400D01*
X115559976Y-64414400D01*
X115711624Y-64400598D01*
X115733600Y-64398598D01*
X115740302Y-64396420D01*
X115740304Y-64396420D01*
X115899409Y-64344724D01*
X115899412Y-64344723D01*
X115906108Y-64342547D01*
X116061912Y-64249669D01*
X116193266Y-64124582D01*
X116293643Y-63973502D01*
X116358055Y-63803938D01*
X116361779Y-63777444D01*
X116382748Y-63628237D01*
X116383299Y-63624317D01*
X116383346Y-63620918D01*
X116408469Y-63554649D01*
X116419836Y-63541602D01*
X117553620Y-62407819D01*
X118722794Y-61238645D01*
X118726603Y-61234992D01*
X118766655Y-61198162D01*
X118772978Y-61192348D01*
X118790911Y-61163424D01*
X118796284Y-61154759D01*
X118803008Y-61144976D01*
X118824552Y-61116593D01*
X118824553Y-61116591D01*
X118829748Y-61109747D01*
X118832912Y-61101756D01*
X118832914Y-61101752D01*
X118835424Y-61095413D01*
X118845491Y-61075397D01*
X118849084Y-61069602D01*
X118849086Y-61069597D01*
X118853612Y-61062298D01*
X118860363Y-61039060D01*
X118865950Y-61019831D01*
X118869795Y-61008601D01*
X118882916Y-60975462D01*
X118882918Y-60975455D01*
X118886078Y-60967473D01*
X118887689Y-60952143D01*
X118892002Y-60930159D01*
X118896303Y-60915354D01*
X118897100Y-60904501D01*
X118897100Y-60869213D01*
X118897790Y-60856042D01*
X118901175Y-60823836D01*
X118902073Y-60815292D01*
X118898863Y-60796314D01*
X118897100Y-60775312D01*
X118897100Y-51714589D01*
X118897438Y-51705361D01*
X118898353Y-51692897D01*
X118901239Y-51653602D01*
X118899541Y-51645183D01*
X118899503Y-51644573D01*
X118897100Y-51620499D01*
X118897100Y-46496499D01*
X118917102Y-46428378D01*
X118970758Y-46381885D01*
X119023100Y-46370499D01*
X119234434Y-46370499D01*
X119238131Y-46370059D01*
X119238137Y-46370059D01*
X119251049Y-46368523D01*
X119261333Y-46367300D01*
X119366363Y-46320647D01*
X119447557Y-46239312D01*
X119494026Y-46134200D01*
X119496127Y-46116181D01*
X119496676Y-46111474D01*
X119496676Y-46111469D01*
X119497100Y-46107835D01*
X119497100Y-46003548D01*
X119517102Y-45935427D01*
X119570758Y-45888934D01*
X119641032Y-45878830D01*
X119705612Y-45908324D01*
X119730533Y-45937713D01*
X119776294Y-46012388D01*
X119782377Y-46020699D01*
X119921813Y-46181667D01*
X119929180Y-46188883D01*
X120093034Y-46324916D01*
X120101481Y-46330831D01*
X120285356Y-46438279D01*
X120294642Y-46442729D01*
X120493601Y-46518703D01*
X120503499Y-46521579D01*
X120606850Y-46542606D01*
X120620899Y-46541410D01*
X120624600Y-46531065D01*
X120624600Y-43895102D01*
X120620682Y-43881758D01*
X120606406Y-43879771D01*
X120567924Y-43885660D01*
X120557888Y-43888051D01*
X120355468Y-43954212D01*
X120345959Y-43958209D01*
X120157063Y-44056542D01*
X120148338Y-44062036D01*
X119978033Y-44189905D01*
X119970326Y-44196748D01*
X119823190Y-44350717D01*
X119816704Y-44358727D01*
X119727187Y-44489954D01*
X119672276Y-44534957D01*
X119601751Y-44543128D01*
X119538004Y-44511874D01*
X119501274Y-44451117D01*
X119497099Y-44418950D01*
X119497099Y-44316166D01*
X119493900Y-44289267D01*
X119447247Y-44184237D01*
X119365912Y-44103043D01*
X119350997Y-44096449D01*
X119314291Y-44080222D01*
X119260800Y-44056574D01*
X119243764Y-44054588D01*
X119238074Y-44053924D01*
X119238069Y-44053924D01*
X119234435Y-44053500D01*
X118346481Y-44053500D01*
X117442766Y-44053501D01*
X117439069Y-44053941D01*
X117439063Y-44053941D01*
X117427520Y-44055314D01*
X117415867Y-44056700D01*
X117310837Y-44103353D01*
X117229643Y-44184688D01*
X117183174Y-44289800D01*
X117182077Y-44299212D01*
X117180532Y-44312463D01*
X117180100Y-44316165D01*
X117180101Y-46107834D01*
X117180541Y-46111531D01*
X117180541Y-46111537D01*
X117181475Y-46119388D01*
X117183300Y-46134733D01*
X117229953Y-46239763D01*
X117311288Y-46320957D01*
X117416400Y-46367426D01*
X117433436Y-46369412D01*
X117439126Y-46370076D01*
X117439131Y-46370076D01*
X117442765Y-46370500D01*
X117654100Y-46370500D01*
X117722221Y-46390502D01*
X117768714Y-46444158D01*
X117780100Y-46496500D01*
X117780100Y-51004500D01*
X117760098Y-51072621D01*
X117706442Y-51119114D01*
X117654100Y-51130500D01*
X86537609Y-51130500D01*
X86469488Y-51110498D01*
X86448514Y-51093595D01*
X85288136Y-49933218D01*
X85284483Y-49929409D01*
X85249617Y-49891493D01*
X85241828Y-49883022D01*
X85204241Y-49859718D01*
X85194458Y-49852993D01*
X85166072Y-49831447D01*
X85166069Y-49831445D01*
X85159227Y-49826252D01*
X85150526Y-49822807D01*
X85144892Y-49820576D01*
X85124882Y-49810512D01*
X85119084Y-49806917D01*
X85119079Y-49806915D01*
X85111778Y-49802388D01*
X85069303Y-49790048D01*
X85058074Y-49786203D01*
X85024939Y-49773084D01*
X85024933Y-49773083D01*
X85016953Y-49769923D01*
X85008415Y-49769026D01*
X85008409Y-49769024D01*
X85001618Y-49768310D01*
X84979646Y-49764000D01*
X84964834Y-49759697D01*
X84957460Y-49759156D01*
X84956288Y-49759069D01*
X84956277Y-49759069D01*
X84953981Y-49758900D01*
X84918690Y-49758900D01*
X84905521Y-49758210D01*
X84864772Y-49753927D01*
X84845794Y-49757137D01*
X84824792Y-49758900D01*
X76360682Y-49758900D01*
X76292561Y-49738898D01*
X76253929Y-49699428D01*
X76252423Y-49696374D01*
X76229387Y-49665524D01*
X76125733Y-49526715D01*
X76125732Y-49526714D01*
X76122280Y-49522091D01*
X76024928Y-49432100D01*
X75966796Y-49378363D01*
X75966793Y-49378361D01*
X75962556Y-49374444D01*
X75778599Y-49258376D01*
X75576572Y-49177776D01*
X75363239Y-49135341D01*
X75357464Y-49135265D01*
X75357460Y-49135265D01*
X75248419Y-49133838D01*
X75145746Y-49132494D01*
X75140049Y-49133473D01*
X75140048Y-49133473D01*
X74937065Y-49168352D01*
X74937062Y-49168353D01*
X74931375Y-49169330D01*
X74727307Y-49244614D01*
X74540376Y-49355827D01*
X74376842Y-49499242D01*
X74242181Y-49670058D01*
X74140905Y-49862554D01*
X74076403Y-50070282D01*
X74050837Y-50286287D01*
X74065063Y-50503333D01*
X74066484Y-50508929D01*
X74066485Y-50508934D01*
X74116642Y-50706423D01*
X74116835Y-50755751D01*
X74118522Y-50755928D01*
X74116910Y-50771262D01*
X74112600Y-50793234D01*
X74108297Y-50808046D01*
X74107500Y-50818899D01*
X74107500Y-50854190D01*
X74106810Y-50867359D01*
X74102527Y-50908108D01*
X74105737Y-50927086D01*
X74107500Y-50948088D01*
X74107500Y-55467989D01*
X74087498Y-55536110D01*
X74033842Y-55582603D01*
X73981500Y-55593989D01*
X69385924Y-55593989D01*
X69343244Y-55586540D01*
X69340292Y-55585477D01*
X69340287Y-55585476D01*
X69332210Y-55582568D01*
X69323650Y-55581939D01*
X69323648Y-55581939D01*
X69243459Y-55576050D01*
X69179602Y-55571361D01*
X69102216Y-55586965D01*
X69079710Y-55591503D01*
X69054805Y-55593989D01*
X65284673Y-55593989D01*
X65279397Y-55593878D01*
X65263267Y-55593202D01*
X65216457Y-55591240D01*
X65208093Y-55593202D01*
X65208091Y-55593202D01*
X65173396Y-55601340D01*
X65161722Y-55603504D01*
X65117907Y-55609505D01*
X65106237Y-55614555D01*
X65103755Y-55615629D01*
X65082492Y-55622661D01*
X65075843Y-55624221D01*
X65075840Y-55624222D01*
X65067480Y-55626183D01*
X65028717Y-55647493D01*
X65018072Y-55652708D01*
X64985357Y-55666865D01*
X64985355Y-55666866D01*
X64977473Y-55670277D01*
X64965495Y-55679977D01*
X64946897Y-55692475D01*
X64933388Y-55699901D01*
X64925150Y-55707011D01*
X64900196Y-55731965D01*
X64890395Y-55740791D01*
X64865228Y-55761170D01*
X64865226Y-55761172D01*
X64858554Y-55766575D01*
X64853581Y-55773573D01*
X64853576Y-55773578D01*
X64847408Y-55782258D01*
X64833797Y-55798364D01*
X63841596Y-56790566D01*
X63779284Y-56824591D01*
X63727920Y-56825050D01*
X63649216Y-56809394D01*
X63632032Y-56805976D01*
X63632031Y-56805976D01*
X63626366Y-56804849D01*
X63620592Y-56804773D01*
X63620588Y-56804773D01*
X63517452Y-56803424D01*
X63422655Y-56802183D01*
X63416958Y-56803162D01*
X63416957Y-56803162D01*
X63292247Y-56824591D01*
X63221870Y-56836684D01*
X63030734Y-56907198D01*
X63025773Y-56910150D01*
X63025772Y-56910150D01*
X62877423Y-56998409D01*
X62855649Y-57011363D01*
X62702478Y-57145690D01*
X62698911Y-57150215D01*
X62698906Y-57150220D01*
X62612331Y-57260040D01*
X62576351Y-57305681D01*
X62573662Y-57310792D01*
X62573660Y-57310795D01*
X62568644Y-57320329D01*
X62481492Y-57485978D01*
X62421078Y-57680543D01*
X62397132Y-57882859D01*
X62410457Y-58086151D01*
X62460605Y-58283610D01*
X62545898Y-58468624D01*
X62663479Y-58634997D01*
X62709219Y-58679555D01*
X62797280Y-58765340D01*
X62809410Y-58777157D01*
X62814206Y-58780362D01*
X62814209Y-58780364D01*
X62873454Y-58819950D01*
X62978803Y-58890342D01*
X62984106Y-58892620D01*
X62984109Y-58892622D01*
X63160680Y-58968483D01*
X63165987Y-58970763D01*
X63237692Y-58986988D01*
X63359055Y-59014450D01*
X63359060Y-59014451D01*
X63364692Y-59015725D01*
X63370463Y-59015952D01*
X63370465Y-59015952D01*
X63433211Y-59018417D01*
X63568263Y-59023723D01*
X63769883Y-58994490D01*
X63775347Y-58992635D01*
X63775352Y-58992634D01*
X63957327Y-58930862D01*
X63957332Y-58930860D01*
X63962799Y-58929004D01*
X63980656Y-58919004D01*
X64051530Y-58879312D01*
X64140551Y-58829458D01*
X64297186Y-58699186D01*
X64427458Y-58542551D01*
X64511908Y-58391755D01*
X64524180Y-58369842D01*
X64524181Y-58369840D01*
X64527004Y-58364799D01*
X64528860Y-58359332D01*
X64528862Y-58359327D01*
X64590634Y-58177352D01*
X64590635Y-58177347D01*
X64592490Y-58171883D01*
X64621723Y-57970263D01*
X64623249Y-57912000D01*
X64604608Y-57709126D01*
X64602238Y-57700723D01*
X64602253Y-57699320D01*
X64601987Y-57697885D01*
X64602269Y-57697833D01*
X64602998Y-57629731D01*
X64634412Y-57577426D01*
X65463944Y-56747894D01*
X65526256Y-56713868D01*
X65553039Y-56710989D01*
X65896967Y-56710989D01*
X65965088Y-56730991D01*
X66011581Y-56784647D01*
X66021685Y-56854921D01*
X66000931Y-56908176D01*
X65995263Y-56916453D01*
X65987043Y-56924688D01*
X65940574Y-57029800D01*
X65939408Y-57039800D01*
X65937932Y-57052463D01*
X65937500Y-57056165D01*
X65937501Y-58747834D01*
X65940700Y-58774733D01*
X65987353Y-58879763D01*
X66068688Y-58960957D01*
X66173800Y-59007426D01*
X66190836Y-59009412D01*
X66196526Y-59010076D01*
X66196531Y-59010076D01*
X66200165Y-59010500D01*
X66452521Y-59010500D01*
X66520642Y-59030502D01*
X66567135Y-59084158D01*
X66577239Y-59154432D01*
X66547745Y-59219012D01*
X66505771Y-59250695D01*
X66394489Y-59302586D01*
X66384994Y-59308069D01*
X66332952Y-59344509D01*
X66324576Y-59354988D01*
X66331644Y-59368434D01*
X67033188Y-60069978D01*
X67047132Y-60077592D01*
X67048965Y-60077461D01*
X67055580Y-60073210D01*
X67761077Y-59367713D01*
X67767507Y-59355938D01*
X67758211Y-59343923D01*
X67707006Y-59308069D01*
X67697511Y-59302586D01*
X67586228Y-59250694D01*
X67532943Y-59203776D01*
X67513482Y-59135499D01*
X67534024Y-59067539D01*
X67588047Y-59021474D01*
X67639477Y-59010499D01*
X67891834Y-59010499D01*
X67895531Y-59010059D01*
X67895537Y-59010059D01*
X67908449Y-59008523D01*
X67918733Y-59007300D01*
X68023763Y-58960647D01*
X68104957Y-58879312D01*
X68151426Y-58774200D01*
X68153761Y-58754173D01*
X68154076Y-58751474D01*
X68154076Y-58751469D01*
X68154500Y-58747835D01*
X68154499Y-57056166D01*
X68153607Y-57048660D01*
X68152417Y-57038660D01*
X68151300Y-57029267D01*
X68104647Y-56924237D01*
X68096414Y-56916019D01*
X68091148Y-56908356D01*
X68069048Y-56840886D01*
X68086934Y-56772180D01*
X68139126Y-56724049D01*
X68194988Y-56710989D01*
X68530500Y-56710989D01*
X68598621Y-56730991D01*
X68645114Y-56784647D01*
X68656500Y-56836989D01*
X68656500Y-61946471D01*
X68636498Y-62014592D01*
X68619595Y-62035566D01*
X66417819Y-64237343D01*
X66414010Y-64240996D01*
X66367622Y-64283652D01*
X66363097Y-64290950D01*
X66344318Y-64321238D01*
X66337593Y-64331022D01*
X66316047Y-64359408D01*
X66316045Y-64359411D01*
X66310852Y-64366253D01*
X66307689Y-64374242D01*
X66305176Y-64380588D01*
X66295112Y-64400598D01*
X66291517Y-64406396D01*
X66291515Y-64406401D01*
X66286988Y-64413702D01*
X66284591Y-64421953D01*
X66274648Y-64456177D01*
X66270803Y-64467406D01*
X66257684Y-64500541D01*
X66257683Y-64500547D01*
X66254523Y-64508527D01*
X66253626Y-64517065D01*
X66253624Y-64517071D01*
X66252910Y-64523862D01*
X66248600Y-64545834D01*
X66244297Y-64560646D01*
X66243500Y-64571499D01*
X66243500Y-64606790D01*
X66242810Y-64619959D01*
X66238527Y-64660708D01*
X66241737Y-64679686D01*
X66243500Y-64700688D01*
X66243500Y-67692976D01*
X66223498Y-67761097D01*
X66169842Y-67807590D01*
X66117505Y-67818975D01*
X62607626Y-67819020D01*
X60386991Y-67819048D01*
X60318870Y-67799047D01*
X60272376Y-67745392D01*
X60260989Y-67693048D01*
X60260989Y-60422859D01*
X62397132Y-60422859D01*
X62410457Y-60626151D01*
X62460605Y-60823610D01*
X62545898Y-61008624D01*
X62663479Y-61174997D01*
X62719105Y-61229186D01*
X62804170Y-61312052D01*
X62809410Y-61317157D01*
X62814206Y-61320362D01*
X62814209Y-61320364D01*
X62897982Y-61376339D01*
X62978803Y-61430342D01*
X62984106Y-61432620D01*
X62984109Y-61432622D01*
X63145679Y-61502038D01*
X63165987Y-61510763D01*
X63231407Y-61525566D01*
X63359055Y-61554450D01*
X63359060Y-61554451D01*
X63364692Y-61555725D01*
X63370463Y-61555952D01*
X63370465Y-61555952D01*
X63433470Y-61558427D01*
X63568263Y-61563723D01*
X63769883Y-61534490D01*
X63775347Y-61532635D01*
X63775352Y-61532634D01*
X63788821Y-61528062D01*
X66324493Y-61528062D01*
X66333789Y-61540077D01*
X66384994Y-61575931D01*
X66394489Y-61581414D01*
X66591947Y-61673490D01*
X66602239Y-61677236D01*
X66812688Y-61733625D01*
X66823481Y-61735528D01*
X67040525Y-61754517D01*
X67051475Y-61754517D01*
X67268519Y-61735528D01*
X67279312Y-61733625D01*
X67489761Y-61677236D01*
X67500053Y-61673490D01*
X67697511Y-61581414D01*
X67707006Y-61575931D01*
X67759048Y-61539491D01*
X67767424Y-61529012D01*
X67760356Y-61515566D01*
X67058812Y-60814022D01*
X67044868Y-60806408D01*
X67043035Y-60806539D01*
X67036420Y-60810790D01*
X66330923Y-61516287D01*
X66324493Y-61528062D01*
X63788821Y-61528062D01*
X63957327Y-61470862D01*
X63957332Y-61470860D01*
X63962799Y-61469004D01*
X63980656Y-61459004D01*
X64118016Y-61382078D01*
X64140551Y-61369458D01*
X64297186Y-61239186D01*
X64427458Y-61082551D01*
X64527004Y-60904799D01*
X64528860Y-60899332D01*
X64528862Y-60899327D01*
X64590634Y-60717352D01*
X64590635Y-60717347D01*
X64592490Y-60711883D01*
X64621723Y-60510263D01*
X64623249Y-60452000D01*
X64622833Y-60447475D01*
X65733483Y-60447475D01*
X65752472Y-60664519D01*
X65754375Y-60675312D01*
X65810764Y-60885761D01*
X65814510Y-60896053D01*
X65906586Y-61093511D01*
X65912069Y-61103006D01*
X65948509Y-61155048D01*
X65958988Y-61163424D01*
X65972434Y-61156356D01*
X66673978Y-60454812D01*
X66680356Y-60443132D01*
X67410408Y-60443132D01*
X67410539Y-60444965D01*
X67414790Y-60451580D01*
X68120287Y-61157077D01*
X68132062Y-61163507D01*
X68144077Y-61154211D01*
X68179931Y-61103006D01*
X68185414Y-61093511D01*
X68277490Y-60896053D01*
X68281236Y-60885761D01*
X68337625Y-60675312D01*
X68339528Y-60664519D01*
X68358517Y-60447475D01*
X68358517Y-60436525D01*
X68339528Y-60219481D01*
X68337625Y-60208688D01*
X68281236Y-59998239D01*
X68277490Y-59987947D01*
X68185414Y-59790489D01*
X68179931Y-59780994D01*
X68143491Y-59728952D01*
X68133012Y-59720576D01*
X68119566Y-59727644D01*
X67418022Y-60429188D01*
X67410408Y-60443132D01*
X66680356Y-60443132D01*
X66681592Y-60440868D01*
X66681461Y-60439035D01*
X66677210Y-60432420D01*
X65971713Y-59726923D01*
X65959938Y-59720493D01*
X65947923Y-59729789D01*
X65912069Y-59780994D01*
X65906586Y-59790489D01*
X65814510Y-59987947D01*
X65810764Y-59998239D01*
X65754375Y-60208688D01*
X65752472Y-60219481D01*
X65733483Y-60436525D01*
X65733483Y-60447475D01*
X64622833Y-60447475D01*
X64604608Y-60249126D01*
X64600220Y-60233566D01*
X64550875Y-60058606D01*
X64550874Y-60058604D01*
X64549307Y-60053047D01*
X64541822Y-60037867D01*
X64461756Y-59875510D01*
X64459201Y-59870329D01*
X64455603Y-59865510D01*
X64340758Y-59711715D01*
X64340758Y-59711714D01*
X64337305Y-59707091D01*
X64187703Y-59568800D01*
X64107833Y-59518406D01*
X64020288Y-59463169D01*
X64020283Y-59463167D01*
X64015404Y-59460088D01*
X63826180Y-59384595D01*
X63626366Y-59344849D01*
X63620592Y-59344773D01*
X63620588Y-59344773D01*
X63517452Y-59343424D01*
X63422655Y-59342183D01*
X63416958Y-59343162D01*
X63416957Y-59343162D01*
X63240586Y-59373468D01*
X63221870Y-59376684D01*
X63030734Y-59447198D01*
X63025773Y-59450150D01*
X63025772Y-59450150D01*
X62877423Y-59538409D01*
X62855649Y-59551363D01*
X62702478Y-59685690D01*
X62698911Y-59690215D01*
X62698906Y-59690220D01*
X62637984Y-59767500D01*
X62576351Y-59845681D01*
X62573662Y-59850792D01*
X62573660Y-59850795D01*
X62541297Y-59912307D01*
X62481492Y-60025978D01*
X62421078Y-60220543D01*
X62397132Y-60422859D01*
X60260989Y-60422859D01*
X60260989Y-55989618D01*
X60280991Y-55921497D01*
X60297894Y-55900523D01*
X63424322Y-52774095D01*
X68126251Y-52774095D01*
X68126548Y-52779248D01*
X68126548Y-52779251D01*
X68132011Y-52873990D01*
X68139110Y-52997115D01*
X68140247Y-53002161D01*
X68140248Y-53002167D01*
X68158750Y-53084262D01*
X68188222Y-53215039D01*
X68226461Y-53309211D01*
X68261813Y-53396272D01*
X68272266Y-53422016D01*
X68290221Y-53451316D01*
X68364465Y-53572471D01*
X68388987Y-53612488D01*
X68535250Y-53781338D01*
X68707126Y-53924032D01*
X68900000Y-54036738D01*
X69108692Y-54116430D01*
X69113760Y-54117461D01*
X69113763Y-54117462D01*
X69208444Y-54136725D01*
X69327597Y-54160967D01*
X69332772Y-54161157D01*
X69332774Y-54161157D01*
X69545673Y-54168964D01*
X69545677Y-54168964D01*
X69550837Y-54169153D01*
X69555957Y-54168497D01*
X69555959Y-54168497D01*
X69767288Y-54141425D01*
X69767289Y-54141425D01*
X69772416Y-54140768D01*
X69785892Y-54136725D01*
X69981429Y-54078061D01*
X69981434Y-54078059D01*
X69986384Y-54076574D01*
X70186994Y-53978296D01*
X70368860Y-53848573D01*
X70373556Y-53843894D01*
X70508217Y-53709702D01*
X70527096Y-53690889D01*
X70541741Y-53670509D01*
X70654435Y-53513677D01*
X70657453Y-53509477D01*
X70659902Y-53504523D01*
X70754136Y-53313853D01*
X70754137Y-53313851D01*
X70756430Y-53309211D01*
X70807598Y-53140798D01*
X70819865Y-53100423D01*
X70819865Y-53100421D01*
X70821370Y-53095469D01*
X70850529Y-52873990D01*
X70850611Y-52870640D01*
X70852074Y-52810765D01*
X70852074Y-52810761D01*
X70852156Y-52807400D01*
X70833852Y-52584761D01*
X70779431Y-52368102D01*
X70690354Y-52163240D01*
X70569014Y-51975677D01*
X70418670Y-51810451D01*
X70414619Y-51807252D01*
X70414615Y-51807248D01*
X70247414Y-51675200D01*
X70247410Y-51675198D01*
X70243359Y-51671998D01*
X70225547Y-51662165D01*
X70210587Y-51653907D01*
X70196477Y-51646118D01*
X70146506Y-51595685D01*
X70131734Y-51526243D01*
X70134816Y-51518095D01*
X70080486Y-51551656D01*
X70005093Y-51548918D01*
X69842091Y-51491196D01*
X69842083Y-51491194D01*
X69837212Y-51489469D01*
X69832119Y-51488562D01*
X69832116Y-51488561D01*
X69622373Y-51451200D01*
X69622367Y-51451199D01*
X69617284Y-51450294D01*
X69543452Y-51449392D01*
X69399081Y-51447628D01*
X69399079Y-51447628D01*
X69393911Y-51447565D01*
X69173091Y-51481355D01*
X68960756Y-51550757D01*
X68930443Y-51566537D01*
X68777570Y-51646118D01*
X68762607Y-51653907D01*
X68758474Y-51657010D01*
X68758471Y-51657012D01*
X68608824Y-51769370D01*
X68583965Y-51788035D01*
X68429629Y-51949538D01*
X68303743Y-52134080D01*
X68277803Y-52189964D01*
X68214715Y-52325876D01*
X68209688Y-52336705D01*
X68149989Y-52551970D01*
X68126251Y-52774095D01*
X63424322Y-52774095D01*
X65161196Y-51037221D01*
X65223508Y-51003195D01*
X65294323Y-51008260D01*
X65303540Y-51012121D01*
X65311768Y-51015958D01*
X65311772Y-51015959D01*
X65316757Y-51018284D01*
X65407680Y-51042647D01*
X65532598Y-51076119D01*
X65532600Y-51076119D01*
X65537913Y-51077543D01*
X65766000Y-51097498D01*
X65994087Y-51077543D01*
X65999400Y-51076119D01*
X65999402Y-51076119D01*
X66209933Y-51019707D01*
X66209935Y-51019706D01*
X66215243Y-51018284D01*
X66265067Y-50995051D01*
X66417762Y-50923849D01*
X66417767Y-50923846D01*
X66422749Y-50921523D01*
X66575412Y-50814627D01*
X66605789Y-50793357D01*
X66605792Y-50793355D01*
X66610300Y-50790198D01*
X66772198Y-50628300D01*
X66791780Y-50600335D01*
X66900366Y-50445257D01*
X66903523Y-50440749D01*
X66905846Y-50435767D01*
X66905849Y-50435762D01*
X66975550Y-50286287D01*
X69550837Y-50286287D01*
X69565063Y-50503333D01*
X69566484Y-50508929D01*
X69566485Y-50508934D01*
X69609759Y-50679323D01*
X69618605Y-50714153D01*
X69621022Y-50719396D01*
X69653662Y-50790198D01*
X69709668Y-50911685D01*
X69713001Y-50916401D01*
X69827224Y-51078022D01*
X69835204Y-51089314D01*
X69839346Y-51093349D01*
X69908883Y-51161089D01*
X69991009Y-51241092D01*
X69995813Y-51244302D01*
X70117154Y-51325380D01*
X70162682Y-51379857D01*
X70171375Y-51449067D01*
X70213881Y-51417552D01*
X70284719Y-51412813D01*
X70307107Y-51420041D01*
X70366409Y-51445519D01*
X70366412Y-51445520D01*
X70371712Y-51447797D01*
X70377342Y-51449071D01*
X70563505Y-51491196D01*
X70583860Y-51495802D01*
X70589631Y-51496029D01*
X70589633Y-51496029D01*
X70662620Y-51498896D01*
X70801205Y-51504341D01*
X71016466Y-51473130D01*
X71021930Y-51471275D01*
X71021935Y-51471274D01*
X71216963Y-51405071D01*
X71216968Y-51405069D01*
X71222435Y-51403213D01*
X71239983Y-51393386D01*
X71296140Y-51361936D01*
X71412213Y-51296932D01*
X71579446Y-51157846D01*
X71718532Y-50990613D01*
X71824813Y-50800835D01*
X71826669Y-50795368D01*
X71826671Y-50795363D01*
X71892874Y-50600335D01*
X71892875Y-50600330D01*
X71894730Y-50594866D01*
X71925941Y-50379605D01*
X71927570Y-50317400D01*
X71907667Y-50100800D01*
X71884147Y-50017402D01*
X71850195Y-49897019D01*
X71848626Y-49891455D01*
X71752423Y-49696374D01*
X71622280Y-49522091D01*
X71524928Y-49432100D01*
X71466796Y-49378363D01*
X71466793Y-49378361D01*
X71462556Y-49374444D01*
X71278599Y-49258376D01*
X71076572Y-49177776D01*
X70863239Y-49135341D01*
X70857464Y-49135265D01*
X70857460Y-49135265D01*
X70748419Y-49133838D01*
X70645746Y-49132494D01*
X70640049Y-49133473D01*
X70640048Y-49133473D01*
X70437065Y-49168352D01*
X70437062Y-49168353D01*
X70431375Y-49169330D01*
X70227307Y-49244614D01*
X70040376Y-49355827D01*
X69876842Y-49499242D01*
X69742181Y-49670058D01*
X69640905Y-49862554D01*
X69576403Y-50070282D01*
X69550837Y-50286287D01*
X66975550Y-50286287D01*
X66997961Y-50238225D01*
X66997961Y-50238224D01*
X67000284Y-50233243D01*
X67042413Y-50076019D01*
X67058119Y-50017402D01*
X67058119Y-50017400D01*
X67059543Y-50012087D01*
X67079498Y-49784000D01*
X67059543Y-49555913D01*
X67055379Y-49540371D01*
X67001707Y-49340067D01*
X67001706Y-49340065D01*
X67000284Y-49334757D01*
X66964667Y-49258376D01*
X66905849Y-49132238D01*
X66905846Y-49132233D01*
X66903523Y-49127251D01*
X66784768Y-48957652D01*
X66775357Y-48944211D01*
X66775355Y-48944208D01*
X66772198Y-48939700D01*
X66610300Y-48777802D01*
X66605792Y-48774645D01*
X66605789Y-48774643D01*
X66503665Y-48703135D01*
X66422749Y-48646477D01*
X66417767Y-48644154D01*
X66417762Y-48644151D01*
X66220225Y-48552039D01*
X66220224Y-48552039D01*
X66215243Y-48549716D01*
X66209935Y-48548294D01*
X66209933Y-48548293D01*
X65999402Y-48491881D01*
X65999400Y-48491881D01*
X65994087Y-48490457D01*
X65766000Y-48470502D01*
X65537913Y-48490457D01*
X65532600Y-48491881D01*
X65532598Y-48491881D01*
X65322067Y-48548293D01*
X65322065Y-48548294D01*
X65316757Y-48549716D01*
X65311776Y-48552039D01*
X65311775Y-48552039D01*
X65114238Y-48644151D01*
X65114233Y-48644154D01*
X65109251Y-48646477D01*
X65028335Y-48703135D01*
X64926211Y-48774643D01*
X64926208Y-48774645D01*
X64921700Y-48777802D01*
X64759802Y-48939700D01*
X64756645Y-48944208D01*
X64756643Y-48944211D01*
X64747232Y-48957652D01*
X64628477Y-49127251D01*
X64626154Y-49132233D01*
X64626151Y-49132238D01*
X64567333Y-49258376D01*
X64531716Y-49334757D01*
X64530294Y-49340065D01*
X64530293Y-49340067D01*
X64476621Y-49540371D01*
X64472457Y-49555913D01*
X64452502Y-49784000D01*
X64472457Y-50012087D01*
X64531716Y-50233243D01*
X64534039Y-50238225D01*
X64534042Y-50238232D01*
X64537879Y-50246460D01*
X64548540Y-50316652D01*
X64519559Y-50381465D01*
X64512779Y-50388804D01*
X59502813Y-55398770D01*
X59491724Y-55408625D01*
X59464482Y-55430101D01*
X59459129Y-55437846D01*
X59459127Y-55437848D01*
X59430497Y-55479272D01*
X59428197Y-55482490D01*
X59406773Y-55511497D01*
X59392706Y-55530542D01*
X59390273Y-55537471D01*
X59386092Y-55543520D01*
X59368054Y-55600556D01*
X59366831Y-55604221D01*
X59347023Y-55660626D01*
X59346739Y-55667848D01*
X59346684Y-55668128D01*
X59344519Y-55674976D01*
X59343989Y-55681710D01*
X59343989Y-55735366D01*
X59343892Y-55740313D01*
X59341610Y-55798392D01*
X59343520Y-55805596D01*
X59343989Y-55814116D01*
X59343989Y-67693064D01*
X59323987Y-67761185D01*
X59270331Y-67807678D01*
X59217994Y-67819063D01*
X56333502Y-67819100D01*
X56265381Y-67799099D01*
X56218887Y-67745444D01*
X56207500Y-67693100D01*
X56207500Y-64734660D01*
X56227502Y-64666539D01*
X56244405Y-64645565D01*
X58646520Y-62243450D01*
X58652785Y-62237596D01*
X58690660Y-62204555D01*
X58696385Y-62199561D01*
X58733114Y-62147300D01*
X58737046Y-62142005D01*
X58771791Y-62097694D01*
X58776477Y-62091718D01*
X58779602Y-62084796D01*
X58780964Y-62082548D01*
X58789368Y-62067815D01*
X58790622Y-62065476D01*
X58794990Y-62059261D01*
X58797749Y-62052185D01*
X58797751Y-62052181D01*
X58818202Y-61999726D01*
X58820758Y-61993646D01*
X58843918Y-61942351D01*
X58847045Y-61935426D01*
X58848429Y-61927955D01*
X58849230Y-61925401D01*
X58853867Y-61909122D01*
X58854523Y-61906567D01*
X58857282Y-61899491D01*
X58864008Y-61848402D01*
X58865621Y-61836149D01*
X58866653Y-61829633D01*
X58876912Y-61774280D01*
X58878296Y-61766813D01*
X58874709Y-61704602D01*
X58874500Y-61697349D01*
X58874500Y-51218499D01*
X58894502Y-51150378D01*
X58948158Y-51103885D01*
X59000500Y-51092499D01*
X59211834Y-51092499D01*
X59215531Y-51092059D01*
X59215537Y-51092059D01*
X59228449Y-51090523D01*
X59238733Y-51089300D01*
X59343763Y-51042647D01*
X59424957Y-50961312D01*
X59471426Y-50856200D01*
X59473412Y-50839164D01*
X59474076Y-50833474D01*
X59474076Y-50833469D01*
X59474500Y-50829835D01*
X59474499Y-48738166D01*
X59471300Y-48711267D01*
X59424647Y-48606237D01*
X59343312Y-48525043D01*
X59238200Y-48478574D01*
X59221164Y-48476588D01*
X59215474Y-48475924D01*
X59215469Y-48475924D01*
X59211835Y-48475500D01*
X58175201Y-48475500D01*
X57120166Y-48475501D01*
X57116469Y-48475941D01*
X57116463Y-48475941D01*
X57104920Y-48477314D01*
X57093267Y-48478700D01*
X56988237Y-48525353D01*
X56907043Y-48606688D01*
X56860574Y-48711800D01*
X56859477Y-48721212D01*
X56857932Y-48734463D01*
X56857500Y-48738165D01*
X56857501Y-50829834D01*
X56860700Y-50856733D01*
X56907353Y-50961763D01*
X56988688Y-51042957D01*
X57093800Y-51089426D01*
X57110836Y-51091412D01*
X57116526Y-51092076D01*
X57116531Y-51092076D01*
X57120165Y-51092500D01*
X57331500Y-51092500D01*
X57399621Y-51112502D01*
X57446114Y-51166158D01*
X57457500Y-51218500D01*
X57457500Y-61376339D01*
X57437498Y-61444460D01*
X57420595Y-61465434D01*
X56243752Y-62642278D01*
X55841222Y-63044808D01*
X55778910Y-63078833D01*
X55708095Y-63073769D01*
X55651259Y-63031222D01*
X55626448Y-62964702D01*
X55626127Y-62955714D01*
X55626123Y-62266210D01*
X55626120Y-61879416D01*
X55646122Y-61811295D01*
X55699777Y-61764802D01*
X55763101Y-61753894D01*
X55884525Y-61764517D01*
X55895475Y-61764517D01*
X56112519Y-61745528D01*
X56123312Y-61743625D01*
X56333761Y-61687236D01*
X56344053Y-61683490D01*
X56541511Y-61591414D01*
X56551006Y-61585931D01*
X56603048Y-61549491D01*
X56611424Y-61539012D01*
X56604356Y-61525566D01*
X55626112Y-60547322D01*
X55626112Y-60453132D01*
X56254408Y-60453132D01*
X56254539Y-60454965D01*
X56258790Y-60461580D01*
X56964287Y-61167077D01*
X56976062Y-61173507D01*
X56988077Y-61164211D01*
X57023931Y-61113006D01*
X57029414Y-61103511D01*
X57121490Y-60906053D01*
X57125236Y-60895761D01*
X57181625Y-60685312D01*
X57183528Y-60674519D01*
X57202517Y-60457475D01*
X57202517Y-60446525D01*
X57183528Y-60229481D01*
X57181625Y-60218688D01*
X57125236Y-60008239D01*
X57121490Y-59997947D01*
X57029414Y-59800489D01*
X57023931Y-59790994D01*
X56987491Y-59738952D01*
X56977012Y-59730576D01*
X56963566Y-59737644D01*
X56262022Y-60439188D01*
X56254408Y-60453132D01*
X55626112Y-60453132D01*
X55626111Y-60356679D01*
X56605077Y-59377713D01*
X56611507Y-59365938D01*
X56602211Y-59353923D01*
X56551006Y-59318069D01*
X56541511Y-59312586D01*
X56430228Y-59260694D01*
X56376943Y-59213776D01*
X56357482Y-59145499D01*
X56378024Y-59077539D01*
X56432047Y-59031474D01*
X56483477Y-59020499D01*
X56735834Y-59020499D01*
X56739531Y-59020059D01*
X56739537Y-59020059D01*
X56751080Y-59018686D01*
X56762733Y-59017300D01*
X56867763Y-58970647D01*
X56948957Y-58889312D01*
X56995426Y-58784200D01*
X56998500Y-58757835D01*
X56998499Y-57066166D01*
X56995300Y-57039267D01*
X56948647Y-56934237D01*
X56867312Y-56853043D01*
X56762200Y-56806574D01*
X56745164Y-56804588D01*
X56739474Y-56803924D01*
X56739469Y-56803924D01*
X56735835Y-56803500D01*
X56727129Y-56803500D01*
X55752086Y-56803501D01*
X55683966Y-56783499D01*
X55637473Y-56729843D01*
X55626088Y-56677506D01*
X55626050Y-50609650D01*
X55626641Y-50597467D01*
X55664812Y-50204640D01*
X55664813Y-50204628D01*
X55665027Y-50202423D01*
X55666518Y-50145475D01*
X55671576Y-49952353D01*
X55671576Y-49952340D01*
X55671634Y-49950120D01*
X55652549Y-49521575D01*
X55652093Y-49518175D01*
X55627163Y-49332575D01*
X55626042Y-49315803D01*
X55626039Y-48735050D01*
X55626025Y-46478433D01*
X55626003Y-42900410D01*
X55646005Y-42832289D01*
X55699660Y-42785796D01*
X55751927Y-42774409D01*
X85649725Y-42756592D01*
X85717858Y-42776553D01*
X85764382Y-42830181D01*
X85775800Y-42882592D01*
X85775800Y-48971200D01*
X114350800Y-48971200D01*
X114350800Y-42865413D01*
X114370802Y-42797292D01*
X114424458Y-42750799D01*
X114476725Y-42739413D01*
X119868949Y-42736199D01*
X135709425Y-42726759D01*
X135777558Y-42746720D01*
G37*
%TD.AperFunction*%
%TA.AperFunction,Conductor*%
G36*
X112038886Y-77182502D02*
G01*
X112085379Y-77236158D01*
X112095483Y-77306432D01*
X112073852Y-77360950D01*
X112039000Y-77410540D01*
X111981104Y-77559035D01*
X111979068Y-77558241D01*
X111951909Y-77605853D01*
X110295567Y-79262195D01*
X110233255Y-79296221D01*
X110206472Y-79299100D01*
X104624920Y-79299100D01*
X104556799Y-79279098D01*
X104535514Y-79261884D01*
X104502377Y-79228515D01*
X104497415Y-79223518D01*
X104486297Y-79216462D01*
X104422773Y-79176149D01*
X104344266Y-79126327D01*
X104315063Y-79115928D01*
X104180025Y-79067843D01*
X104180020Y-79067842D01*
X104173390Y-79065481D01*
X104166402Y-79064648D01*
X104166399Y-79064647D01*
X104043298Y-79049968D01*
X103993280Y-79044004D01*
X103986277Y-79044740D01*
X103986276Y-79044740D01*
X103819888Y-79062228D01*
X103819886Y-79062229D01*
X103812888Y-79062964D01*
X103641179Y-79121418D01*
X103635175Y-79125112D01*
X103492695Y-79212766D01*
X103492692Y-79212768D01*
X103486688Y-79216462D01*
X103481653Y-79221393D01*
X103481650Y-79221395D01*
X103369549Y-79331173D01*
X103357093Y-79343371D01*
X103258835Y-79495838D01*
X103256426Y-79502458D01*
X103256424Y-79502461D01*
X103203144Y-79648847D01*
X103196797Y-79666285D01*
X103190731Y-79714306D01*
X103188578Y-79731345D01*
X103160196Y-79796422D01*
X103101137Y-79835823D01*
X103063279Y-79841553D01*
X95720835Y-79824414D01*
X95653617Y-79804800D01*
X95626367Y-79787507D01*
X95505066Y-79710527D01*
X95466100Y-79696652D01*
X95340825Y-79652043D01*
X95340820Y-79652042D01*
X95334190Y-79649681D01*
X95327202Y-79648848D01*
X95327199Y-79648847D01*
X95177561Y-79631004D01*
X95154080Y-79628204D01*
X95147077Y-79628940D01*
X95147076Y-79628940D01*
X94980688Y-79646428D01*
X94980686Y-79646429D01*
X94973688Y-79647164D01*
X94801979Y-79705618D01*
X94647488Y-79800662D01*
X94646368Y-79798841D01*
X94589979Y-79821213D01*
X94578098Y-79821747D01*
X94549197Y-79821680D01*
X93626806Y-79819526D01*
X93558732Y-79799365D01*
X93512364Y-79745601D01*
X93501100Y-79693526D01*
X93501100Y-77854382D01*
X93501701Y-77842085D01*
X93501709Y-77842004D01*
X93504946Y-77830826D01*
X93501570Y-77791844D01*
X93501100Y-77780973D01*
X93501100Y-77771506D01*
X93499814Y-77764600D01*
X93498154Y-77752401D01*
X93496034Y-77727923D01*
X93495030Y-77716329D01*
X93489919Y-77705874D01*
X93488902Y-77702205D01*
X93487532Y-77698656D01*
X93485402Y-77687217D01*
X93466402Y-77656394D01*
X93460461Y-77645610D01*
X93449668Y-77623529D01*
X93449667Y-77623527D01*
X93444559Y-77613078D01*
X93436030Y-77605167D01*
X93433764Y-77602115D01*
X93431202Y-77599289D01*
X93425097Y-77589385D01*
X93415838Y-77582344D01*
X93415836Y-77582342D01*
X93396274Y-77567467D01*
X93386853Y-77559548D01*
X93368832Y-77542831D01*
X93368830Y-77542830D01*
X93360303Y-77534920D01*
X93349499Y-77530610D01*
X93346278Y-77528574D01*
X93342876Y-77526863D01*
X93333616Y-77519821D01*
X93322438Y-77516584D01*
X93322436Y-77516583D01*
X93298835Y-77509748D01*
X93287193Y-77505751D01*
X93261820Y-77495628D01*
X93261815Y-77495627D01*
X93253559Y-77492333D01*
X93247103Y-77491700D01*
X93244023Y-77491700D01*
X93240951Y-77491550D01*
X93240958Y-77491415D01*
X93234485Y-77491099D01*
X93234404Y-77491091D01*
X93223226Y-77487854D01*
X93211633Y-77488858D01*
X93184244Y-77491230D01*
X93173373Y-77491700D01*
X92687982Y-77491700D01*
X92675685Y-77491099D01*
X92675604Y-77491091D01*
X92664426Y-77487854D01*
X92652833Y-77488858D01*
X92625444Y-77491230D01*
X92614573Y-77491700D01*
X92605106Y-77491700D01*
X92599406Y-77492762D01*
X92599402Y-77492762D01*
X92598200Y-77492986D01*
X92586001Y-77494646D01*
X92574663Y-77495628D01*
X92549929Y-77497770D01*
X92539474Y-77502881D01*
X92535805Y-77503898D01*
X92532256Y-77505268D01*
X92520817Y-77507398D01*
X92510913Y-77513503D01*
X92489994Y-77526398D01*
X92479210Y-77532339D01*
X92457129Y-77543132D01*
X92457127Y-77543133D01*
X92446678Y-77548241D01*
X92438767Y-77556769D01*
X92435716Y-77559035D01*
X92432889Y-77561598D01*
X92422985Y-77567703D01*
X92415944Y-77576962D01*
X92415942Y-77576964D01*
X92401067Y-77596526D01*
X92393148Y-77605947D01*
X92376431Y-77623968D01*
X92376430Y-77623970D01*
X92368520Y-77632497D01*
X92364210Y-77643301D01*
X92362174Y-77646522D01*
X92360463Y-77649924D01*
X92353421Y-77659184D01*
X92350184Y-77670362D01*
X92350183Y-77670364D01*
X92343348Y-77693965D01*
X92339351Y-77705607D01*
X92329228Y-77730980D01*
X92329227Y-77730985D01*
X92325933Y-77739241D01*
X92325300Y-77745697D01*
X92325300Y-77748777D01*
X92325150Y-77751849D01*
X92325015Y-77751842D01*
X92324699Y-77758315D01*
X92324691Y-77758396D01*
X92321454Y-77769574D01*
X92322458Y-77781167D01*
X92324830Y-77808556D01*
X92325300Y-77819427D01*
X92325300Y-94662418D01*
X92324699Y-94674715D01*
X92324691Y-94674796D01*
X92321454Y-94685974D01*
X92322458Y-94697567D01*
X92324830Y-94724956D01*
X92325300Y-94735827D01*
X92325300Y-94745294D01*
X92326362Y-94750994D01*
X92326362Y-94750998D01*
X92326586Y-94752200D01*
X92328246Y-94764399D01*
X92331370Y-94800471D01*
X92336481Y-94810926D01*
X92337498Y-94814595D01*
X92338868Y-94818144D01*
X92340998Y-94829583D01*
X92347103Y-94839487D01*
X92359998Y-94860406D01*
X92365939Y-94871190D01*
X92381841Y-94903722D01*
X92390370Y-94911633D01*
X92392636Y-94914685D01*
X92395198Y-94917511D01*
X92401303Y-94927415D01*
X92410562Y-94934456D01*
X92410564Y-94934458D01*
X92430126Y-94949333D01*
X92439547Y-94957252D01*
X92457568Y-94973969D01*
X92457570Y-94973970D01*
X92466097Y-94981880D01*
X92476901Y-94986190D01*
X92480122Y-94988226D01*
X92483524Y-94989937D01*
X92492784Y-94996979D01*
X92503962Y-95000216D01*
X92503964Y-95000217D01*
X92527565Y-95007052D01*
X92539207Y-95011049D01*
X92564580Y-95021172D01*
X92564585Y-95021173D01*
X92572841Y-95024467D01*
X92579297Y-95025100D01*
X92582377Y-95025100D01*
X92585449Y-95025250D01*
X92585442Y-95025385D01*
X92591915Y-95025701D01*
X92591996Y-95025709D01*
X92603174Y-95028946D01*
X92614767Y-95027942D01*
X92642156Y-95025570D01*
X92653027Y-95025100D01*
X92690131Y-95025100D01*
X92758252Y-95045102D01*
X92804745Y-95098758D01*
X92816131Y-95151149D01*
X92815161Y-97662749D01*
X92795133Y-97730862D01*
X92741459Y-97777334D01*
X92689161Y-97788700D01*
X90490111Y-97788700D01*
X90421990Y-97768698D01*
X90406292Y-97756776D01*
X90351051Y-97707558D01*
X90351045Y-97707554D01*
X90345375Y-97702502D01*
X90331367Y-97695085D01*
X90211231Y-97631476D01*
X90211229Y-97631475D01*
X90204518Y-97627922D01*
X90194744Y-97625467D01*
X90057309Y-97590946D01*
X90057306Y-97590946D01*
X90049938Y-97589095D01*
X90042338Y-97589055D01*
X90042337Y-97589055D01*
X89976979Y-97588713D01*
X89890558Y-97588260D01*
X89883178Y-97590032D01*
X89883176Y-97590032D01*
X89742960Y-97623695D01*
X89742958Y-97623696D01*
X89735580Y-97625467D01*
X89593950Y-97698568D01*
X89588228Y-97703560D01*
X89588226Y-97703561D01*
X89549224Y-97737585D01*
X89473845Y-97803342D01*
X89382200Y-97933740D01*
X89324304Y-98082235D01*
X89303500Y-98240254D01*
X89304334Y-98247804D01*
X89319746Y-98387401D01*
X89320990Y-98398673D01*
X89375763Y-98548348D01*
X89380000Y-98554654D01*
X89380002Y-98554657D01*
X89388613Y-98567471D01*
X89464658Y-98680637D01*
X89582542Y-98787904D01*
X89722610Y-98863954D01*
X89876775Y-98904399D01*
X89958026Y-98905675D01*
X90028538Y-98906783D01*
X90028541Y-98906783D01*
X90036137Y-98906902D01*
X90043541Y-98905206D01*
X90043543Y-98905206D01*
X90150598Y-98880687D01*
X90191497Y-98871320D01*
X90263788Y-98834962D01*
X90327102Y-98803119D01*
X90327105Y-98803117D01*
X90333885Y-98799707D01*
X90339656Y-98794778D01*
X90339659Y-98794776D01*
X90408606Y-98735889D01*
X90473396Y-98706858D01*
X90490437Y-98705700D01*
X92688709Y-98705700D01*
X92756830Y-98725702D01*
X92803323Y-98779358D01*
X92814709Y-98831749D01*
X92812887Y-103549944D01*
X92811650Y-106755386D01*
X92811649Y-106757235D01*
X92791621Y-106825348D01*
X92737947Y-106871820D01*
X92685635Y-106883186D01*
X91707268Y-106883079D01*
X90215751Y-106882915D01*
X90203203Y-106881703D01*
X90203180Y-106882000D01*
X90196826Y-106881500D01*
X90146234Y-106881500D01*
X90141287Y-106881403D01*
X90086493Y-106879250D01*
X90079597Y-106881078D01*
X90071937Y-106881500D01*
X89170101Y-106881500D01*
X89101980Y-106861498D01*
X89055487Y-106807842D01*
X89044101Y-106755386D01*
X89044119Y-106736231D01*
X89065645Y-82930183D01*
X89069530Y-78633917D01*
X89089594Y-78565814D01*
X89106435Y-78544936D01*
X90451966Y-77199405D01*
X90514278Y-77165379D01*
X90541061Y-77162500D01*
X111970765Y-77162500D01*
X112038886Y-77182502D01*
G37*
%TD.AperFunction*%
%TD*%
%TA.AperFunction,Conductor*%
%TO.N,GND*%
G36*
X105377521Y-89224802D02*
G01*
X105424014Y-89278458D01*
X105435400Y-89330800D01*
X105435400Y-91263200D01*
X105415398Y-91331321D01*
X105361742Y-91377814D01*
X105309400Y-91389200D01*
X103351600Y-91389200D01*
X103283479Y-91369198D01*
X103236986Y-91315542D01*
X103225600Y-91263200D01*
X103225600Y-89330800D01*
X103245602Y-89262679D01*
X103299258Y-89216186D01*
X103351600Y-89204800D01*
X105309400Y-89204800D01*
X105377521Y-89224802D01*
G37*
%TD.AperFunction*%
%TD*%
M02*
