%TF.GenerationSoftware,KiCad,Pcbnew,(6.0.4)*%
%TF.CreationDate,2022-05-20T10:39:20+03:00*%
%TF.ProjectId,KartliGecis_v1,4b617274-6c69-4476-9563-69735f76312e,v1.0*%
%TF.SameCoordinates,Original*%
%TF.FileFunction,Soldermask,Top*%
%TF.FilePolarity,Negative*%
%FSLAX46Y46*%
G04 Gerber Fmt 4.6, Leading zero omitted, Abs format (unit mm)*
G04 Created by KiCad (PCBNEW (6.0.4)) date 2022-05-20 10:39:20*
%MOMM*%
%LPD*%
G01*
G04 APERTURE LIST*
G04 Aperture macros list*
%AMRoundRect*
0 Rectangle with rounded corners*
0 $1 Rounding radius*
0 $2 $3 $4 $5 $6 $7 $8 $9 X,Y pos of 4 corners*
0 Add a 4 corners polygon primitive as box body*
4,1,4,$2,$3,$4,$5,$6,$7,$8,$9,$2,$3,0*
0 Add four circle primitives for the rounded corners*
1,1,$1+$1,$2,$3*
1,1,$1+$1,$4,$5*
1,1,$1+$1,$6,$7*
1,1,$1+$1,$8,$9*
0 Add four rect primitives between the rounded corners*
20,1,$1+$1,$2,$3,$4,$5,0*
20,1,$1+$1,$4,$5,$6,$7,0*
20,1,$1+$1,$6,$7,$8,$9,0*
20,1,$1+$1,$8,$9,$2,$3,0*%
%AMFreePoly0*
4,1,22,0.500000,-0.750000,0.000000,-0.750000,0.000000,-0.745033,-0.079941,-0.743568,-0.215256,-0.701293,-0.333266,-0.622738,-0.424486,-0.514219,-0.481581,-0.384460,-0.499164,-0.250000,-0.500000,-0.250000,-0.500000,0.250000,-0.499164,0.250000,-0.499963,0.256109,-0.478152,0.396186,-0.417904,0.524511,-0.324060,0.630769,-0.204165,0.706417,-0.067858,0.745374,0.000000,0.744959,0.000000,0.750000,
0.500000,0.750000,0.500000,-0.750000,0.500000,-0.750000,$1*%
%AMFreePoly1*
4,1,20,0.000000,0.744959,0.073905,0.744508,0.209726,0.703889,0.328688,0.626782,0.421226,0.519385,0.479903,0.390333,0.500000,0.250000,0.500000,-0.250000,0.499851,-0.262216,0.476331,-0.402017,0.414519,-0.529596,0.319384,-0.634700,0.198574,-0.708877,0.061801,-0.746166,0.000000,-0.745033,0.000000,-0.750000,-0.500000,-0.750000,-0.500000,0.750000,0.000000,0.750000,0.000000,0.744959,
0.000000,0.744959,$1*%
G04 Aperture macros list end*
%ADD10R,2.000000X2.000000*%
%ADD11C,2.000000*%
%ADD12RoundRect,0.237500X-0.287500X-0.237500X0.287500X-0.237500X0.287500X0.237500X-0.287500X0.237500X0*%
%ADD13RoundRect,0.250000X1.100000X-0.412500X1.100000X0.412500X-1.100000X0.412500X-1.100000X-0.412500X0*%
%ADD14RoundRect,0.237500X-0.237500X0.287500X-0.237500X-0.287500X0.237500X-0.287500X0.237500X0.287500X0*%
%ADD15RoundRect,0.237500X0.237500X-0.287500X0.237500X0.287500X-0.237500X0.287500X-0.237500X-0.287500X0*%
%ADD16C,3.250000*%
%ADD17R,1.500000X1.500000*%
%ADD18C,1.500000*%
%ADD19C,1.000000*%
%ADD20RoundRect,0.050000X0.250000X0.500000X-0.250000X0.500000X-0.250000X-0.500000X0.250000X-0.500000X0*%
%ADD21RoundRect,0.050000X0.600000X1.000000X-0.600000X1.000000X-0.600000X-1.000000X0.600000X-1.000000X0*%
%ADD22RoundRect,0.050000X0.650000X1.250000X-0.650000X1.250000X-0.650000X-1.250000X0.650000X-1.250000X0*%
%ADD23RoundRect,0.237500X0.250000X0.237500X-0.250000X0.237500X-0.250000X-0.237500X0.250000X-0.237500X0*%
%ADD24RoundRect,0.237500X-0.250000X-0.237500X0.250000X-0.237500X0.250000X0.237500X-0.250000X0.237500X0*%
%ADD25RoundRect,0.050800X0.317500X0.508000X-0.317500X0.508000X-0.317500X-0.508000X0.317500X-0.508000X0*%
%ADD26RoundRect,0.050800X0.190500X0.508000X-0.190500X0.508000X-0.190500X-0.508000X0.190500X-0.508000X0*%
%ADD27C,2.100000*%
%ADD28C,1.750000*%
%ADD29C,2.445000*%
%ADD30R,1.408000X1.408000*%
%ADD31C,1.408000*%
%ADD32C,1.524000*%
%ADD33RoundRect,0.062500X0.350000X0.062500X-0.350000X0.062500X-0.350000X-0.062500X0.350000X-0.062500X0*%
%ADD34RoundRect,0.062500X0.062500X0.350000X-0.062500X0.350000X-0.062500X-0.350000X0.062500X-0.350000X0*%
%ADD35R,2.600000X2.600000*%
%ADD36R,1.700000X1.700000*%
%ADD37O,1.700000X1.700000*%
%ADD38R,1.800000X1.200000*%
%ADD39R,0.650000X1.200000*%
%ADD40RoundRect,0.250000X0.450000X-0.325000X0.450000X0.325000X-0.450000X0.325000X-0.450000X-0.325000X0*%
%ADD41RoundRect,0.050800X-1.500000X0.800000X-1.500000X-0.800000X1.500000X-0.800000X1.500000X0.800000X0*%
%ADD42RoundRect,0.250000X-0.450000X0.325000X-0.450000X-0.325000X0.450000X-0.325000X0.450000X0.325000X0*%
%ADD43R,1.998980X1.100760*%
%ADD44RoundRect,0.237500X0.237500X-0.250000X0.237500X0.250000X-0.237500X0.250000X-0.237500X-0.250000X0*%
%ADD45RoundRect,0.237500X0.287500X0.237500X-0.287500X0.237500X-0.287500X-0.237500X0.287500X-0.237500X0*%
%ADD46R,2.500000X0.900000*%
%ADD47R,0.900000X2.500000*%
%ADD48R,5.000000X5.000000*%
%ADD49RoundRect,0.266608X0.433392X-0.346592X0.433392X0.346592X-0.433392X0.346592X-0.433392X-0.346592X0*%
%ADD50RoundRect,0.250000X0.325000X0.450000X-0.325000X0.450000X-0.325000X-0.450000X0.325000X-0.450000X0*%
%ADD51RoundRect,0.250000X-0.725000X0.600000X-0.725000X-0.600000X0.725000X-0.600000X0.725000X0.600000X0*%
%ADD52O,1.950000X1.700000*%
%ADD53R,1.600000X1.600000*%
%ADD54C,1.600000*%
%ADD55R,0.600000X1.500000*%
%ADD56R,1.200000X1.200000*%
%ADD57RoundRect,0.237500X-0.237500X0.250000X-0.237500X-0.250000X0.237500X-0.250000X0.237500X0.250000X0*%
%ADD58FreePoly0,0.000000*%
%ADD59FreePoly1,0.000000*%
%ADD60FreePoly0,270.000000*%
%ADD61FreePoly1,270.000000*%
%ADD62RoundRect,0.250000X-0.325000X-0.450000X0.325000X-0.450000X0.325000X0.450000X-0.325000X0.450000X0*%
%ADD63FreePoly0,90.000000*%
%ADD64FreePoly1,90.000000*%
%ADD65R,3.000000X3.000000*%
%ADD66RoundRect,0.250000X0.725000X-0.600000X0.725000X0.600000X-0.725000X0.600000X-0.725000X-0.600000X0*%
%ADD67RoundRect,0.050800X-0.508000X0.317500X-0.508000X-0.317500X0.508000X-0.317500X0.508000X0.317500X0*%
%ADD68RoundRect,0.050800X-0.508000X0.190500X-0.508000X-0.190500X0.508000X-0.190500X0.508000X0.190500X0*%
%ADD69C,3.000000*%
%ADD70RoundRect,0.050800X-0.317500X-0.508000X0.317500X-0.508000X0.317500X0.508000X-0.317500X0.508000X0*%
%ADD71RoundRect,0.050800X-0.190500X-0.508000X0.190500X-0.508000X0.190500X0.508000X-0.190500X0.508000X0*%
G04 APERTURE END LIST*
D10*
%TO.C,BZ1*%
X58166000Y-49784000D03*
D11*
X65766000Y-49784000D03*
%TD*%
D12*
%TO.C,C1*%
X95594200Y-93421200D03*
X97344200Y-93421200D03*
%TD*%
%TO.C,C7*%
X111037400Y-95275400D03*
X112787400Y-95275400D03*
%TD*%
%TO.C,C8*%
X111037400Y-96799400D03*
X112787400Y-96799400D03*
%TD*%
%TO.C,C9*%
X111036400Y-98323400D03*
X112786400Y-98323400D03*
%TD*%
D13*
%TO.C,C12*%
X94792800Y-101232100D03*
X94792800Y-98107100D03*
%TD*%
D12*
%TO.C,C13*%
X95594200Y-91897200D03*
X97344200Y-91897200D03*
%TD*%
D14*
%TO.C,C14*%
X129390756Y-65952400D03*
X129390756Y-67702400D03*
%TD*%
D15*
%TO.C,C20*%
X151993600Y-85099100D03*
X151993600Y-83349100D03*
%TD*%
%TO.C,C22*%
X144449800Y-94855000D03*
X144449800Y-93105000D03*
%TD*%
D16*
%TO.C,J2*%
X80666400Y-117906800D03*
X93366400Y-117906800D03*
D17*
X90576400Y-115366800D03*
D18*
X89556400Y-113586800D03*
X88536400Y-115366800D03*
X87516400Y-113586800D03*
X86496400Y-115366800D03*
X85476400Y-113586800D03*
X84456400Y-115366800D03*
X83436400Y-113586800D03*
X93876400Y-108766800D03*
X91586400Y-108766800D03*
X82446400Y-108766800D03*
X80156400Y-108766800D03*
D11*
X95146400Y-114476800D03*
X78886400Y-114476800D03*
%TD*%
D19*
%TO.C,J4*%
X160271000Y-68255000D03*
X152271000Y-68255000D03*
D20*
X153071000Y-79105000D03*
X154171000Y-79155000D03*
X155271000Y-79155000D03*
X156371000Y-79155000D03*
X157471000Y-79155000D03*
X158571000Y-79155000D03*
D21*
X148221000Y-78155000D03*
D22*
X163271000Y-68655000D03*
D21*
X163271000Y-78155000D03*
D22*
X147371000Y-68155000D03*
D20*
X159671000Y-79155000D03*
X160771000Y-79155000D03*
X161871000Y-79155000D03*
%TD*%
D23*
%TO.C,R1*%
X97381700Y-82702400D03*
X95556700Y-82702400D03*
%TD*%
D24*
%TO.C,R2*%
X95556700Y-88849200D03*
X97381700Y-88849200D03*
%TD*%
D23*
%TO.C,R3*%
X97381700Y-94945200D03*
X95556700Y-94945200D03*
%TD*%
D24*
%TO.C,R8*%
X110999900Y-87198200D03*
X112824900Y-87198200D03*
%TD*%
%TO.C,R11*%
X110999900Y-88722200D03*
X112824900Y-88722200D03*
%TD*%
D23*
%TO.C,R15*%
X97381700Y-90373200D03*
X95556700Y-90373200D03*
%TD*%
D25*
%TO.C,RM2*%
X107416600Y-96545400D03*
X107416600Y-98069400D03*
D26*
X106527600Y-96545400D03*
X106527600Y-98069400D03*
X105765600Y-96545400D03*
X105765600Y-98069400D03*
D25*
X104876600Y-96545400D03*
X104876600Y-98069400D03*
%TD*%
D27*
%TO.C,SW1*%
X72370000Y-110260600D03*
X65360000Y-110260600D03*
D28*
X71120000Y-112750600D03*
X66620000Y-112750600D03*
%TD*%
D27*
%TO.C,SW2*%
X69489000Y-52807400D03*
X76499000Y-52807400D03*
D28*
X70739000Y-50317400D03*
X75239000Y-50317400D03*
%TD*%
D16*
%TO.C,U2*%
X110921800Y-112572800D03*
X99491800Y-112572800D03*
D29*
X97461800Y-109522800D03*
X112951800Y-109522800D03*
D30*
X99491800Y-103682800D03*
D31*
X100761800Y-106222800D03*
X102031800Y-103682800D03*
X103301800Y-106222800D03*
X104571800Y-103682800D03*
X105841800Y-106222800D03*
X107111800Y-103682800D03*
X108381800Y-106222800D03*
X109651800Y-103682800D03*
X110921800Y-106222800D03*
D32*
X98581800Y-116652800D03*
X101121800Y-116652800D03*
X109291800Y-116652800D03*
X111831800Y-116652800D03*
%TD*%
D33*
%TO.C,U3*%
X106280700Y-91572400D03*
X106280700Y-91072400D03*
X106280700Y-90572400D03*
X106280700Y-90072400D03*
X106280700Y-89572400D03*
X106280700Y-89072400D03*
D34*
X105593200Y-88384900D03*
X105093200Y-88384900D03*
X104593200Y-88384900D03*
X104093200Y-88384900D03*
X103593200Y-88384900D03*
X103093200Y-88384900D03*
D33*
X102405700Y-89072400D03*
X102405700Y-89572400D03*
X102405700Y-90072400D03*
X102405700Y-90572400D03*
X102405700Y-91072400D03*
X102405700Y-91572400D03*
D34*
X103093200Y-92259900D03*
X103593200Y-92259900D03*
X104093200Y-92259900D03*
X104593200Y-92259900D03*
X105093200Y-92259900D03*
X105593200Y-92259900D03*
D35*
X104343200Y-90322400D03*
%TD*%
D11*
%TO.C,U8*%
X144983200Y-101821400D03*
D36*
X147802600Y-102514400D03*
D37*
X150342600Y-102514400D03*
X152882600Y-102514400D03*
X155422600Y-102514400D03*
X157962600Y-102514400D03*
X160502600Y-102514400D03*
X163042600Y-102514400D03*
X165582600Y-102514400D03*
%TD*%
D38*
%TO.C,Y1*%
X112649000Y-81089800D03*
X108649000Y-81089800D03*
X108649000Y-83489800D03*
X112649000Y-83489800D03*
%TD*%
D39*
%TO.C,U4*%
X127001256Y-70143900D03*
X126051256Y-70143900D03*
X125101256Y-70143900D03*
X125101256Y-72943900D03*
X127001256Y-72943900D03*
%TD*%
D40*
%TO.C,R16*%
X127358756Y-67927400D03*
X127358756Y-65877400D03*
%TD*%
D41*
%TO.C,L1*%
X124256800Y-67830400D03*
X124256800Y-65430400D03*
%TD*%
D42*
%TO.C,R17*%
X129314556Y-71144900D03*
X129314556Y-73194900D03*
%TD*%
D14*
%TO.C,C19*%
X121384200Y-65952400D03*
X121384200Y-67702400D03*
%TD*%
D43*
%TO.C,D2*%
X117977898Y-73271372D03*
X117977898Y-69912700D03*
%TD*%
D14*
%TO.C,C18*%
X119837200Y-65927000D03*
X119837200Y-67677000D03*
%TD*%
D15*
%TO.C,C17*%
X120192800Y-73188800D03*
X120192800Y-71438800D03*
%TD*%
%TO.C,C16*%
X121716800Y-73163400D03*
X121716800Y-71413400D03*
%TD*%
%TO.C,C15*%
X123240800Y-73163400D03*
X123240800Y-71413400D03*
%TD*%
D44*
%TO.C,R5*%
X86309200Y-53541300D03*
X86309200Y-51716300D03*
%TD*%
D15*
%TO.C,C4*%
X84785200Y-53503800D03*
X84785200Y-51753800D03*
%TD*%
D14*
%TO.C,C3*%
X81635600Y-51753800D03*
X81635600Y-53503800D03*
%TD*%
%TO.C,C2*%
X83210400Y-51753800D03*
X83210400Y-53503800D03*
%TD*%
D45*
%TO.C,C6*%
X112787400Y-90220800D03*
X111037400Y-90220800D03*
%TD*%
%TO.C,C5*%
X112787400Y-91770200D03*
X111037400Y-91770200D03*
%TD*%
D46*
%TO.C,U1*%
X91173600Y-50419000D03*
X91173600Y-51689000D03*
X91173600Y-52959000D03*
X91173600Y-54229000D03*
X91173600Y-55499000D03*
X91173600Y-56769000D03*
X91173600Y-58039000D03*
X91173600Y-59309000D03*
X91173600Y-60579000D03*
X91173600Y-61849000D03*
X91173600Y-63119000D03*
X91173600Y-64389000D03*
X91173600Y-65659000D03*
X91173600Y-66929000D03*
D47*
X94208600Y-68179000D03*
D46*
X91173600Y-68199000D03*
D47*
X95478600Y-68179000D03*
D46*
X91173600Y-69469000D03*
D47*
X104368600Y-68179000D03*
D46*
X108673600Y-69469000D03*
X108673600Y-68199000D03*
D47*
X105638600Y-68179000D03*
D46*
X108673600Y-66929000D03*
X108673600Y-65659000D03*
X108673600Y-64389000D03*
X108673600Y-63119000D03*
X108673600Y-61849000D03*
X108673600Y-60579000D03*
X108673600Y-59309000D03*
X108673600Y-58039000D03*
X108673600Y-56769000D03*
X108673600Y-55499000D03*
X108673600Y-54229000D03*
X108673600Y-52959000D03*
X108673600Y-51689000D03*
X108673600Y-50419000D03*
D48*
X98923600Y-57919000D03*
%TD*%
D49*
%TO.C,C21*%
X154076400Y-85287300D03*
X154076400Y-83160900D03*
%TD*%
D50*
%TO.C,R13*%
X112734200Y-100076000D03*
X110684200Y-100076000D03*
%TD*%
D51*
%TO.C,J7*%
X87020400Y-83656800D03*
D52*
X87020400Y-86156800D03*
X87020400Y-88656800D03*
%TD*%
D53*
%TO.C,U7*%
X67046000Y-57902000D03*
D54*
X67046000Y-60442000D03*
X74666000Y-60442000D03*
X74666000Y-57902000D03*
%TD*%
D51*
%TO.C,J5*%
X80230200Y-83656800D03*
D52*
X80230200Y-86156800D03*
X80230200Y-88656800D03*
%TD*%
D23*
%TO.C,R7*%
X112824900Y-85674200D03*
X110999900Y-85674200D03*
%TD*%
D25*
%TO.C,RM4*%
X159054800Y-83718400D03*
X159054800Y-85242400D03*
D26*
X158165800Y-83718400D03*
X158165800Y-85242400D03*
X157403800Y-83718400D03*
X157403800Y-85242400D03*
D25*
X156514800Y-83718400D03*
X156514800Y-85242400D03*
%TD*%
D55*
%TO.C,U9*%
X64312800Y-68064400D03*
X63042800Y-68064400D03*
X61772800Y-68064400D03*
X60502800Y-68064400D03*
X59232800Y-68064400D03*
X57962800Y-68064400D03*
X56692800Y-68064400D03*
X55422800Y-68064400D03*
X55422800Y-73464400D03*
X56692800Y-73464400D03*
X57962800Y-73464400D03*
X59232800Y-73464400D03*
X60502800Y-73464400D03*
X61772800Y-73464400D03*
X63042800Y-73464400D03*
X64312800Y-73464400D03*
%TD*%
D56*
%TO.C,D1*%
X84785200Y-49457700D03*
X84785200Y-47257700D03*
%TD*%
D53*
%TO.C,U6*%
X55890000Y-57912000D03*
D54*
X55890000Y-60452000D03*
X63510000Y-60452000D03*
X63510000Y-57912000D03*
%TD*%
D56*
%TO.C,D4*%
X54787800Y-95173800D03*
X54787800Y-92973800D03*
%TD*%
D57*
%TO.C,R22*%
X54787800Y-100054400D03*
X54787800Y-101879400D03*
%TD*%
D15*
%TO.C,C10*%
X104648000Y-83983800D03*
X104648000Y-82233800D03*
%TD*%
D58*
%TO.C,JP6*%
X151292800Y-105968800D03*
D59*
X152592800Y-105968800D03*
%TD*%
D11*
%TO.C,K2*%
X57074100Y-88599900D03*
X64694100Y-88599900D03*
X69774100Y-88599900D03*
X74854100Y-88599900D03*
X74854100Y-96219900D03*
X69774100Y-96219900D03*
X64694100Y-96219900D03*
X57074100Y-96219900D03*
%TD*%
D60*
%TO.C,JP4*%
X117525800Y-65898000D03*
D61*
X117525800Y-67198000D03*
%TD*%
D62*
%TO.C,R12*%
X135169800Y-64820800D03*
X137219800Y-64820800D03*
%TD*%
D57*
%TO.C,R4*%
X83149400Y-47445200D03*
X83149400Y-49270200D03*
%TD*%
D50*
%TO.C,FB1*%
X112734200Y-93497400D03*
X110684200Y-93497400D03*
%TD*%
D57*
%TO.C,R23*%
X81407000Y-47445200D03*
X81407000Y-49270200D03*
%TD*%
D56*
%TO.C,D5*%
X54787800Y-105833900D03*
X54787800Y-103633900D03*
%TD*%
D63*
%TO.C,JP2*%
X79298800Y-49011600D03*
D64*
X79298800Y-47711600D03*
%TD*%
D60*
%TO.C,JP5*%
X117525800Y-74680000D03*
D61*
X117525800Y-75980000D03*
%TD*%
D15*
%TO.C,C11*%
X106172000Y-83983800D03*
X106172000Y-82233800D03*
%TD*%
D36*
%TO.C,J1*%
X118338600Y-45212000D03*
D37*
X120878600Y-45212000D03*
X123418600Y-45212000D03*
X125958600Y-45212000D03*
X128498600Y-45212000D03*
X131038600Y-45212000D03*
%TD*%
D51*
%TO.C,J3*%
X80416600Y-71170800D03*
D52*
X80416600Y-73670800D03*
X80416600Y-76170800D03*
%TD*%
D65*
%TO.C,U5*%
X118148000Y-118297000D03*
X135598000Y-118297000D03*
X135598000Y-78807000D03*
X118148000Y-78807000D03*
%TD*%
D66*
%TO.C,J8*%
X79366600Y-102859200D03*
D52*
X79366600Y-100359200D03*
X79366600Y-97859200D03*
X79366600Y-95359200D03*
%TD*%
D67*
%TO.C,RM1*%
X95808800Y-84455000D03*
X97332800Y-84455000D03*
D68*
X95808800Y-85344000D03*
X97332800Y-85344000D03*
X95808800Y-86106000D03*
X97332800Y-86106000D03*
D67*
X95808800Y-86995000D03*
X97332800Y-86995000D03*
%TD*%
D11*
%TO.C,K3*%
X57069100Y-99267900D03*
X64689100Y-99267900D03*
X69769100Y-99267900D03*
X74849100Y-99267900D03*
X74849100Y-106887900D03*
X69769100Y-106887900D03*
X64689100Y-106887900D03*
X57069100Y-106887900D03*
%TD*%
%TO.C,K1*%
X57094500Y-77931900D03*
X64714500Y-77931900D03*
X69794500Y-77931900D03*
X74874500Y-77931900D03*
X74874500Y-85551900D03*
X69794500Y-85551900D03*
X64714500Y-85551900D03*
X57094500Y-85551900D03*
%TD*%
D56*
%TO.C,D3*%
X54762400Y-84572200D03*
X54762400Y-82372200D03*
%TD*%
D57*
%TO.C,R20*%
X54762400Y-78716500D03*
X54762400Y-80541500D03*
%TD*%
D62*
%TO.C,R9*%
X135195200Y-62839600D03*
X137245200Y-62839600D03*
%TD*%
D69*
%TO.C,U10*%
X140309600Y-56845200D03*
X48309600Y-105003600D03*
X48309600Y-56845200D03*
X140309600Y-105003600D03*
D36*
X140919200Y-95353600D03*
D37*
X140919200Y-92813600D03*
X140919200Y-90273600D03*
X140919200Y-87733600D03*
X140919200Y-85193600D03*
X140919200Y-82653600D03*
X140919200Y-80113600D03*
X140919200Y-77573600D03*
%TD*%
D70*
%TO.C,RM3*%
X61468000Y-65278000D03*
X61468000Y-63754000D03*
D71*
X62357000Y-65278000D03*
X62357000Y-63754000D03*
X63119000Y-65278000D03*
X63119000Y-63754000D03*
D70*
X64008000Y-65278000D03*
X64008000Y-63754000D03*
%TD*%
D57*
%TO.C,R21*%
X54762400Y-89417700D03*
X54762400Y-91242700D03*
%TD*%
D62*
%TO.C,R10*%
X135195200Y-60883800D03*
X137245200Y-60883800D03*
%TD*%
D53*
%TO.C,C23*%
X148691600Y-94778713D03*
D54*
X148691600Y-92278713D03*
%TD*%
D36*
%TO.C,J6*%
X71937800Y-72273400D03*
D37*
X69397800Y-72273400D03*
X71937800Y-69733400D03*
X69397800Y-69733400D03*
X71937800Y-67193400D03*
X69397800Y-67193400D03*
%TD*%
D63*
%TO.C,JP1*%
X112826800Y-75986400D03*
D64*
X112826800Y-74686400D03*
%TD*%
M02*
