%TF.GenerationSoftware,KiCad,Pcbnew,(6.0.4)*%
%TF.CreationDate,2022-05-20T10:39:20+03:00*%
%TF.ProjectId,KartliGecis_v1,4b617274-6c69-4476-9563-69735f76312e,v1.0*%
%TF.SameCoordinates,Original*%
%TF.FileFunction,Soldermask,Bot*%
%TF.FilePolarity,Negative*%
%FSLAX46Y46*%
G04 Gerber Fmt 4.6, Leading zero omitted, Abs format (unit mm)*
G04 Created by KiCad (PCBNEW (6.0.4)) date 2022-05-20 10:39:20*
%MOMM*%
%LPD*%
G01*
G04 APERTURE LIST*
G04 Aperture macros list*
%AMRoundRect*
0 Rectangle with rounded corners*
0 $1 Rounding radius*
0 $2 $3 $4 $5 $6 $7 $8 $9 X,Y pos of 4 corners*
0 Add a 4 corners polygon primitive as box body*
4,1,4,$2,$3,$4,$5,$6,$7,$8,$9,$2,$3,0*
0 Add four circle primitives for the rounded corners*
1,1,$1+$1,$2,$3*
1,1,$1+$1,$4,$5*
1,1,$1+$1,$6,$7*
1,1,$1+$1,$8,$9*
0 Add four rect primitives between the rounded corners*
20,1,$1+$1,$2,$3,$4,$5,0*
20,1,$1+$1,$4,$5,$6,$7,0*
20,1,$1+$1,$6,$7,$8,$9,0*
20,1,$1+$1,$8,$9,$2,$3,0*%
%AMFreePoly0*
4,1,22,0.550000,-0.750000,0.000000,-0.750000,0.000000,-0.745033,-0.079941,-0.743568,-0.215256,-0.701293,-0.333266,-0.622738,-0.424486,-0.514219,-0.481581,-0.384460,-0.499164,-0.250000,-0.500000,-0.250000,-0.500000,0.250000,-0.499164,0.250000,-0.499963,0.256109,-0.478152,0.396186,-0.417904,0.524511,-0.324060,0.630769,-0.204165,0.706417,-0.067858,0.745374,0.000000,0.744959,0.000000,0.750000,
0.550000,0.750000,0.550000,-0.750000,0.550000,-0.750000,$1*%
%AMFreePoly1*
4,1,20,0.000000,0.744959,0.073905,0.744508,0.209726,0.703889,0.328688,0.626782,0.421226,0.519385,0.479903,0.390333,0.500000,0.250000,0.500000,-0.250000,0.499851,-0.262216,0.476331,-0.402017,0.414519,-0.529596,0.319384,-0.634700,0.198574,-0.708877,0.061801,-0.746166,0.000000,-0.745033,0.000000,-0.750000,-0.550000,-0.750000,-0.550000,0.750000,0.000000,0.750000,0.000000,0.744959,
0.000000,0.744959,$1*%
G04 Aperture macros list end*
%ADD10R,2.000000X2.000000*%
%ADD11C,2.000000*%
%ADD12C,3.250000*%
%ADD13R,1.500000X1.500000*%
%ADD14C,1.500000*%
%ADD15C,1.000000*%
%ADD16C,2.100000*%
%ADD17C,1.750000*%
%ADD18C,2.445000*%
%ADD19R,1.408000X1.408000*%
%ADD20C,1.408000*%
%ADD21C,1.524000*%
%ADD22R,1.700000X1.700000*%
%ADD23O,1.700000X1.700000*%
%ADD24RoundRect,0.250000X-0.725000X0.600000X-0.725000X-0.600000X0.725000X-0.600000X0.725000X0.600000X0*%
%ADD25O,1.950000X1.700000*%
%ADD26R,1.600000X1.600000*%
%ADD27C,1.600000*%
%ADD28R,3.000000X3.000000*%
%ADD29RoundRect,0.250000X0.725000X-0.600000X0.725000X0.600000X-0.725000X0.600000X-0.725000X-0.600000X0*%
%ADD30C,3.000000*%
%ADD31FreePoly0,180.000000*%
%ADD32R,1.000000X1.500000*%
%ADD33FreePoly1,180.000000*%
%ADD34RoundRect,0.250000X-0.450000X0.325000X-0.450000X-0.325000X0.450000X-0.325000X0.450000X0.325000X0*%
%ADD35RoundRect,0.237500X-0.250000X-0.237500X0.250000X-0.237500X0.250000X0.237500X-0.250000X0.237500X0*%
%ADD36RoundRect,0.237500X0.250000X0.237500X-0.250000X0.237500X-0.250000X-0.237500X0.250000X-0.237500X0*%
G04 APERTURE END LIST*
D10*
%TO.C,BZ1*%
X58166000Y-49784000D03*
D11*
X65766000Y-49784000D03*
%TD*%
D12*
%TO.C,J2*%
X80666400Y-117906800D03*
X93366400Y-117906800D03*
D13*
X90576400Y-115366800D03*
D14*
X89556400Y-113586800D03*
X88536400Y-115366800D03*
X87516400Y-113586800D03*
X86496400Y-115366800D03*
X85476400Y-113586800D03*
X84456400Y-115366800D03*
X83436400Y-113586800D03*
X93876400Y-108766800D03*
X91586400Y-108766800D03*
X82446400Y-108766800D03*
X80156400Y-108766800D03*
D11*
X95146400Y-114476800D03*
X78886400Y-114476800D03*
%TD*%
D15*
%TO.C,J4*%
X160271000Y-68255000D03*
X152271000Y-68255000D03*
%TD*%
D16*
%TO.C,SW1*%
X72370000Y-110260600D03*
X65360000Y-110260600D03*
D17*
X71120000Y-112750600D03*
X66620000Y-112750600D03*
%TD*%
D16*
%TO.C,SW2*%
X69489000Y-52807400D03*
X76499000Y-52807400D03*
D17*
X70739000Y-50317400D03*
X75239000Y-50317400D03*
%TD*%
D12*
%TO.C,U2*%
X110921800Y-112572800D03*
X99491800Y-112572800D03*
D18*
X97461800Y-109522800D03*
X112951800Y-109522800D03*
D19*
X99491800Y-103682800D03*
D20*
X100761800Y-106222800D03*
X102031800Y-103682800D03*
X103301800Y-106222800D03*
X104571800Y-103682800D03*
X105841800Y-106222800D03*
X107111800Y-103682800D03*
X108381800Y-106222800D03*
X109651800Y-103682800D03*
X110921800Y-106222800D03*
D21*
X98581800Y-116652800D03*
X101121800Y-116652800D03*
X109291800Y-116652800D03*
X111831800Y-116652800D03*
%TD*%
D11*
%TO.C,U8*%
X144983200Y-101821400D03*
D22*
X147802600Y-102514400D03*
D23*
X150342600Y-102514400D03*
X152882600Y-102514400D03*
X155422600Y-102514400D03*
X157962600Y-102514400D03*
X160502600Y-102514400D03*
X163042600Y-102514400D03*
X165582600Y-102514400D03*
%TD*%
D24*
%TO.C,J7*%
X87020400Y-83656800D03*
D25*
X87020400Y-86156800D03*
X87020400Y-88656800D03*
%TD*%
D26*
%TO.C,U7*%
X67046000Y-57902000D03*
D27*
X67046000Y-60442000D03*
X74666000Y-60442000D03*
X74666000Y-57902000D03*
%TD*%
D24*
%TO.C,J5*%
X80230200Y-83656800D03*
D25*
X80230200Y-86156800D03*
X80230200Y-88656800D03*
%TD*%
D26*
%TO.C,U6*%
X55890000Y-57912000D03*
D27*
X55890000Y-60452000D03*
X63510000Y-60452000D03*
X63510000Y-57912000D03*
%TD*%
D11*
%TO.C,K2*%
X57074100Y-88599900D03*
X64694100Y-88599900D03*
X69774100Y-88599900D03*
X74854100Y-88599900D03*
X74854100Y-96219900D03*
X69774100Y-96219900D03*
X64694100Y-96219900D03*
X57074100Y-96219900D03*
%TD*%
D22*
%TO.C,J1*%
X118338600Y-45212000D03*
D23*
X120878600Y-45212000D03*
X123418600Y-45212000D03*
X125958600Y-45212000D03*
X128498600Y-45212000D03*
X131038600Y-45212000D03*
%TD*%
D24*
%TO.C,J3*%
X80416600Y-71170800D03*
D25*
X80416600Y-73670800D03*
X80416600Y-76170800D03*
%TD*%
D28*
%TO.C,U5*%
X118148000Y-118297000D03*
X135598000Y-118297000D03*
X135598000Y-78807000D03*
X118148000Y-78807000D03*
%TD*%
D29*
%TO.C,J8*%
X79366600Y-102859200D03*
D25*
X79366600Y-100359200D03*
X79366600Y-97859200D03*
X79366600Y-95359200D03*
%TD*%
D11*
%TO.C,K3*%
X57069100Y-99267900D03*
X64689100Y-99267900D03*
X69769100Y-99267900D03*
X74849100Y-99267900D03*
X74849100Y-106887900D03*
X69769100Y-106887900D03*
X64689100Y-106887900D03*
X57069100Y-106887900D03*
%TD*%
%TO.C,K1*%
X57094500Y-77931900D03*
X64714500Y-77931900D03*
X69794500Y-77931900D03*
X74874500Y-77931900D03*
X74874500Y-85551900D03*
X69794500Y-85551900D03*
X64714500Y-85551900D03*
X57094500Y-85551900D03*
%TD*%
D30*
%TO.C,U10*%
X140309600Y-56845200D03*
X48309600Y-105003600D03*
X48309600Y-56845200D03*
X140309600Y-105003600D03*
D22*
X140919200Y-95353600D03*
D23*
X140919200Y-92813600D03*
X140919200Y-90273600D03*
X140919200Y-87733600D03*
X140919200Y-85193600D03*
X140919200Y-82653600D03*
X140919200Y-80113600D03*
X140919200Y-77573600D03*
%TD*%
D26*
%TO.C,C23*%
X148691600Y-94778713D03*
D27*
X148691600Y-92278713D03*
%TD*%
D22*
%TO.C,J6*%
X71937800Y-72273400D03*
D23*
X69397800Y-72273400D03*
X71937800Y-69733400D03*
X69397800Y-69733400D03*
X71937800Y-67193400D03*
X69397800Y-67193400D03*
%TD*%
D31*
%TO.C,JP3*%
X96245200Y-98145600D03*
D32*
X94945200Y-98145600D03*
D33*
X93645200Y-98145600D03*
%TD*%
D34*
%TO.C,R6*%
X106019600Y-114672000D03*
X106019600Y-116722000D03*
%TD*%
%TO.C,R14*%
X103581200Y-114697400D03*
X103581200Y-116747400D03*
%TD*%
D35*
%TO.C,R18*%
X90883100Y-110794800D03*
X92708100Y-110794800D03*
%TD*%
D36*
%TO.C,R19*%
X84326100Y-110794800D03*
X82501100Y-110794800D03*
%TD*%
M02*
