%TF.GenerationSoftware,KiCad,Pcbnew,(6.0.5)*%
%TF.CreationDate,2022-09-05T15:54:14+03:00*%
%TF.ProjectId,KartliGecis_v1,4b617274-6c69-4476-9563-69735f76312e,v1.0*%
%TF.SameCoordinates,Original*%
%TF.FileFunction,Legend,Bot*%
%TF.FilePolarity,Positive*%
%FSLAX46Y46*%
G04 Gerber Fmt 4.6, Leading zero omitted, Abs format (unit mm)*
G04 Created by KiCad (PCBNEW (6.0.5)) date 2022-09-05 15:54:14*
%MOMM*%
%LPD*%
G01*
G04 APERTURE LIST*
%ADD10C,0.120000*%
%ADD11C,0.150000*%
G04 APERTURE END LIST*
D10*
X96393000Y-99568000D02*
X94818200Y-99568000D01*
D11*
%TO.C,JP3*%
X92302733Y-97635266D02*
X92302733Y-98135266D01*
X92336066Y-98235266D01*
X92402733Y-98301933D01*
X92502733Y-98335266D01*
X92569400Y-98335266D01*
X91969400Y-98335266D02*
X91969400Y-97635266D01*
X91702733Y-97635266D01*
X91636066Y-97668600D01*
X91602733Y-97701933D01*
X91569400Y-97768600D01*
X91569400Y-97868600D01*
X91602733Y-97935266D01*
X91636066Y-97968600D01*
X91702733Y-98001933D01*
X91969400Y-98001933D01*
X91336066Y-97635266D02*
X90902733Y-97635266D01*
X91136066Y-97901933D01*
X91036066Y-97901933D01*
X90969400Y-97935266D01*
X90936066Y-97968600D01*
X90902733Y-98035266D01*
X90902733Y-98201933D01*
X90936066Y-98268600D01*
X90969400Y-98301933D01*
X91036066Y-98335266D01*
X91236066Y-98335266D01*
X91302733Y-98301933D01*
X91336066Y-98268600D01*
X96142200Y-96709666D02*
X96542200Y-96709666D01*
X96342200Y-96709666D02*
X96342200Y-96009666D01*
X96408866Y-96109666D01*
X96475533Y-96176333D01*
X96542200Y-96209666D01*
X93989333Y-95984266D02*
X93556000Y-95984266D01*
X93789333Y-96250933D01*
X93689333Y-96250933D01*
X93622666Y-96284266D01*
X93589333Y-96317600D01*
X93556000Y-96384266D01*
X93556000Y-96550933D01*
X93589333Y-96617600D01*
X93622666Y-96650933D01*
X93689333Y-96684266D01*
X93889333Y-96684266D01*
X93956000Y-96650933D01*
X93989333Y-96617600D01*
%TO.C,R6*%
X106136266Y-113727666D02*
X106369600Y-113394333D01*
X106536266Y-113727666D02*
X106536266Y-113027666D01*
X106269600Y-113027666D01*
X106202933Y-113061000D01*
X106169600Y-113094333D01*
X106136266Y-113161000D01*
X106136266Y-113261000D01*
X106169600Y-113327666D01*
X106202933Y-113361000D01*
X106269600Y-113394333D01*
X106536266Y-113394333D01*
X105536266Y-113027666D02*
X105669600Y-113027666D01*
X105736266Y-113061000D01*
X105769600Y-113094333D01*
X105836266Y-113194333D01*
X105869600Y-113327666D01*
X105869600Y-113594333D01*
X105836266Y-113661000D01*
X105802933Y-113694333D01*
X105736266Y-113727666D01*
X105602933Y-113727666D01*
X105536266Y-113694333D01*
X105502933Y-113661000D01*
X105469600Y-113594333D01*
X105469600Y-113427666D01*
X105502933Y-113361000D01*
X105536266Y-113327666D01*
X105602933Y-113294333D01*
X105736266Y-113294333D01*
X105802933Y-113327666D01*
X105836266Y-113361000D01*
X105869600Y-113427666D01*
%TO.C,R14*%
X104082000Y-113727666D02*
X104315333Y-113394333D01*
X104482000Y-113727666D02*
X104482000Y-113027666D01*
X104215333Y-113027666D01*
X104148666Y-113061000D01*
X104115333Y-113094333D01*
X104082000Y-113161000D01*
X104082000Y-113261000D01*
X104115333Y-113327666D01*
X104148666Y-113361000D01*
X104215333Y-113394333D01*
X104482000Y-113394333D01*
X103415333Y-113727666D02*
X103815333Y-113727666D01*
X103615333Y-113727666D02*
X103615333Y-113027666D01*
X103682000Y-113127666D01*
X103748666Y-113194333D01*
X103815333Y-113227666D01*
X102815333Y-113261000D02*
X102815333Y-113727666D01*
X102982000Y-112994333D02*
X103148666Y-113494333D01*
X102715333Y-113494333D01*
%TO.C,R18*%
X92386085Y-112426704D02*
X92652752Y-112045752D01*
X92843228Y-112426704D02*
X92843228Y-111626704D01*
X92538466Y-111626704D01*
X92462276Y-111664800D01*
X92424180Y-111702895D01*
X92386085Y-111779085D01*
X92386085Y-111893371D01*
X92424180Y-111969561D01*
X92462276Y-112007657D01*
X92538466Y-112045752D01*
X92843228Y-112045752D01*
X91624180Y-112426704D02*
X92081323Y-112426704D01*
X91852752Y-112426704D02*
X91852752Y-111626704D01*
X91928942Y-111740990D01*
X92005133Y-111817180D01*
X92081323Y-111855276D01*
X91167038Y-111969561D02*
X91243228Y-111931466D01*
X91281323Y-111893371D01*
X91319419Y-111817180D01*
X91319419Y-111779085D01*
X91281323Y-111702895D01*
X91243228Y-111664800D01*
X91167038Y-111626704D01*
X91014657Y-111626704D01*
X90938466Y-111664800D01*
X90900371Y-111702895D01*
X90862276Y-111779085D01*
X90862276Y-111817180D01*
X90900371Y-111893371D01*
X90938466Y-111931466D01*
X91014657Y-111969561D01*
X91167038Y-111969561D01*
X91243228Y-112007657D01*
X91281323Y-112045752D01*
X91319419Y-112121942D01*
X91319419Y-112274323D01*
X91281323Y-112350514D01*
X91243228Y-112388609D01*
X91167038Y-112426704D01*
X91014657Y-112426704D01*
X90938466Y-112388609D01*
X90900371Y-112350514D01*
X90862276Y-112274323D01*
X90862276Y-112121942D01*
X90900371Y-112045752D01*
X90938466Y-112007657D01*
X91014657Y-111969561D01*
%TO.C,R19*%
X83877085Y-112426704D02*
X84143752Y-112045752D01*
X84334228Y-112426704D02*
X84334228Y-111626704D01*
X84029466Y-111626704D01*
X83953276Y-111664800D01*
X83915180Y-111702895D01*
X83877085Y-111779085D01*
X83877085Y-111893371D01*
X83915180Y-111969561D01*
X83953276Y-112007657D01*
X84029466Y-112045752D01*
X84334228Y-112045752D01*
X83115180Y-112426704D02*
X83572323Y-112426704D01*
X83343752Y-112426704D02*
X83343752Y-111626704D01*
X83419942Y-111740990D01*
X83496133Y-111817180D01*
X83572323Y-111855276D01*
X82734228Y-112426704D02*
X82581847Y-112426704D01*
X82505657Y-112388609D01*
X82467561Y-112350514D01*
X82391371Y-112236228D01*
X82353276Y-112083847D01*
X82353276Y-111779085D01*
X82391371Y-111702895D01*
X82429466Y-111664800D01*
X82505657Y-111626704D01*
X82658038Y-111626704D01*
X82734228Y-111664800D01*
X82772323Y-111702895D01*
X82810419Y-111779085D01*
X82810419Y-111969561D01*
X82772323Y-112045752D01*
X82734228Y-112083847D01*
X82658038Y-112121942D01*
X82505657Y-112121942D01*
X82429466Y-112083847D01*
X82391371Y-112045752D01*
X82353276Y-111969561D01*
D10*
%TO.C,JP3*%
X92895200Y-97845600D02*
X92895200Y-98445600D01*
X96345200Y-97145600D02*
X93545200Y-97145600D01*
X96995200Y-98445600D02*
X96995200Y-97845600D01*
X93545200Y-99145600D02*
X96345200Y-99145600D01*
X96995200Y-97845600D02*
G75*
G03*
X96295200Y-97145600I-699999J1D01*
G01*
X93595200Y-97145600D02*
G75*
G03*
X92895200Y-97845600I0J-700000D01*
G01*
X96295200Y-99145600D02*
G75*
G03*
X96995200Y-98445600I1J699999D01*
G01*
X92895200Y-98445600D02*
G75*
G03*
X93595200Y-99145600I700000J0D01*
G01*
%TO.C,R6*%
X105194100Y-117411500D02*
X106845100Y-117411500D01*
X105194100Y-113982500D02*
X106845100Y-113982500D01*
X105194100Y-113982500D02*
X105194100Y-117411500D01*
X106845100Y-113982500D02*
X106845100Y-117411500D01*
%TO.C,R14*%
X102755700Y-117436900D02*
X104406700Y-117436900D01*
X104406700Y-114007900D02*
X104406700Y-117436900D01*
X102755700Y-114007900D02*
X104406700Y-114007900D01*
X102755700Y-114007900D02*
X102755700Y-117436900D01*
%TO.C,R18*%
X90271600Y-111366300D02*
X93319600Y-111366300D01*
X90271600Y-111366300D02*
X90271600Y-110223300D01*
X90271600Y-110223300D02*
X93319600Y-110223300D01*
X93319600Y-111366300D02*
X93319600Y-110223300D01*
%TO.C,R19*%
X84937600Y-110223300D02*
X81889600Y-110223300D01*
X84937600Y-111366300D02*
X81889600Y-111366300D01*
X84937600Y-110223300D02*
X84937600Y-111366300D01*
X81889600Y-110223300D02*
X81889600Y-111366300D01*
%TD*%
M02*
