M48
; DRILL file {KiCad (6.0.5)} date Mon Sep  5 15:54:24 2022
; FORMAT={-:-/ absolute / metric / decimal}
; #@! TF.CreationDate,2022-09-05T15:54:24+03:00
; #@! TF.GenerationSoftware,Kicad,Pcbnew,(6.0.5)
; #@! TF.FileFunction,Plated,1,2,PTH
FMAT,2
METRIC
; #@! TA.AperFunction,Plated,PTH,ViaDrill
T1C0.200
; #@! TA.AperFunction,Plated,PTH,ViaDrill
T2C0.300
; #@! TA.AperFunction,Plated,PTH,ViaDrill
T3C0.400
; #@! TA.AperFunction,Plated,PTH,ViaDrill
T4C0.500
; #@! TA.AperFunction,Plated,PTH,ViaDrill
T5C0.600
; #@! TA.AperFunction,Plated,PTH,ComponentDrill
T6C0.762
; #@! TA.AperFunction,Plated,PTH,ViaDrill
T7C0.800
; #@! TA.AperFunction,Plated,PTH,ComponentDrill
T8C0.800
; #@! TA.AperFunction,Plated,PTH,ComponentDrill
T9C0.890
; #@! TA.AperFunction,Plated,PTH,ComponentDrill
T10C0.900
; #@! TA.AperFunction,Plated,PTH,ComponentDrill
T11C0.950
; #@! TA.AperFunction,Plated,PTH,ComponentDrill
T12C0.990
; #@! TA.AperFunction,Plated,PTH,ComponentDrill
T13C1.000
; #@! TA.AperFunction,Plated,PTH,ComponentDrill
T14C1.016
; #@! TA.AperFunction,Plated,PTH,ComponentDrill
T15C1.300
; #@! TA.AperFunction,Plated,PTH,ComponentDrill
T16C1.500
; #@! TA.AperFunction,Plated,PTH,ComponentDrill
T17C1.570
; #@! TA.AperFunction,Plated,PTH,ComponentDrill
T18C1.630
%
G90
G05
T1
X101.549Y-89.967
X101.702Y-88.544
T2
X60.071Y-72.39
X60.452Y-69.215
X61.392Y-75.006
X76.86Y-67.107
X87.732Y-73.508
X93.635Y-72.812
X94.539Y-72.833
X98.146Y-84.43
X98.196Y-85.319
X98.222Y-82.728
X98.349Y-91.846
X98.552Y-89.51
X98.704Y-86.944
X98.958Y-85.725
X99.111Y-95.047
X102.886Y-93.218
X103.124Y-84.48
X103.367Y-87.492
X103.581Y-74.219
X103.734Y-85.344
X104.8Y-52.934
X105.243Y-85.852
X105.243Y-87.279
X105.664Y-69.85
X106.045Y-110.693
X107.061Y-93.167
X107.442Y-95.529
X107.798Y-90.348
X108.839Y-91.338
X112.116Y-52.857
X113.487Y-58.979
X113.538Y-66.904
X113.652Y-84.582
T3
X62.387Y-66.044
X65.049Y-65.278
X74.117Y-63.906
X75.209Y-62.738
X80.467Y-53.442
X81.61Y-48.641
X88.265Y-61.671
X89.002Y-53.848
X89.713Y-68.174
X89.967Y-98.247
X91.796Y-95.936
X91.872Y-99.136
X93.167Y-50.597
X95.707Y-66.379
X96.825Y-66.319
X96.977Y-68.097
X103.581Y-118.008
X105.033Y-59.36
X106.026Y-78.95
X106.482Y-57.989
X106.858Y-55.423
X106.934Y-54.254
X107.239Y-59.334
X110.49Y-50.444
X110.755Y-69.585
X110.998Y-53.554
X111.049Y-90.932
X111.806Y-61.682
X111.811Y-63.551
X111.811Y-64.567
X111.846Y-62.624
X112.014Y-65.481
X112.624Y-77.724
X115.545Y-89.56
X115.595Y-91.034
X122.352Y-48.158
X129.247Y-70.986
X129.904Y-71.641
X137.969Y-74.958
X144.78Y-75.032
X145.339Y-82.753
X154.203Y-80.19
X154.203Y-81.839
X156.413Y-80.191
X158.217Y-77.775
X159.004Y-82.194
X160.186Y-87.452
X162.382Y-82.271
T4
X57.15Y-66.167
X95.148Y-80.442
X103.988Y-79.858
X115.545Y-95.479
X115.57Y-63.602
X118.161Y-70.815
X123.012Y-109.525
X144.145Y-77.47
X159.08Y-86.36
X163.119Y-76.429
X163.22Y-66.878
T5
X77.216Y-81.904
X103.759Y-89.814
X103.759Y-90.83
X105.004Y-89.814
T6
X55.89Y-57.912
X55.89Y-60.452
X63.51Y-57.912
X63.51Y-60.452
X67.046Y-57.902
X67.046Y-60.442
X74.666Y-57.902
X74.666Y-60.442
T7
X55.499Y-71.755
X115.57Y-76.454
T8
X148.692Y-92.279
X148.692Y-94.779
T9
X80.156Y-108.767
X82.446Y-108.767
X83.436Y-113.587
X84.456Y-115.367
X85.476Y-113.587
X86.496Y-115.367
X87.516Y-113.587
X88.536Y-115.367
X89.556Y-113.587
X90.576Y-115.367
X91.586Y-108.767
X93.876Y-108.767
T10
X99.492Y-103.683
X100.762Y-106.223
X102.032Y-103.683
X103.302Y-106.223
X104.572Y-103.683
X105.842Y-106.223
X107.112Y-103.683
X108.382Y-106.223
X109.652Y-103.683
X110.922Y-106.223
T11
X79.367Y-95.359
X79.367Y-97.859
X79.367Y-100.359
X79.367Y-102.859
X80.23Y-83.657
X80.23Y-86.157
X80.23Y-88.657
X80.417Y-71.171
X80.417Y-73.671
X80.417Y-76.171
X87.02Y-83.657
X87.02Y-86.157
X87.02Y-88.657
T12
X66.62Y-112.751
X70.739Y-50.317
X71.12Y-112.751
X75.239Y-50.317
T13
X57.069Y-99.268
X57.069Y-106.888
X57.074Y-88.6
X57.074Y-96.22
X57.094Y-77.932
X57.094Y-85.552
X58.166Y-49.784
X64.689Y-99.268
X64.689Y-106.888
X64.694Y-88.6
X64.694Y-96.22
X64.715Y-77.932
X64.715Y-85.552
X65.766Y-49.784
X69.398Y-67.193
X69.398Y-69.733
X69.398Y-72.273
X69.769Y-99.268
X69.769Y-106.888
X69.774Y-88.6
X69.774Y-96.22
X69.794Y-77.932
X69.794Y-85.552
X71.938Y-67.193
X71.938Y-69.733
X71.938Y-72.273
X74.849Y-99.268
X74.849Y-106.888
X74.854Y-88.6
X74.854Y-96.22
X74.874Y-77.932
X74.874Y-85.552
X118.339Y-45.212
X120.879Y-45.212
X123.419Y-45.212
X125.959Y-45.212
X128.499Y-45.212
X131.039Y-45.212
X140.919Y-77.574
X140.919Y-80.114
X140.919Y-82.654
X140.919Y-85.194
X140.919Y-87.734
X140.919Y-90.274
X140.919Y-92.814
X140.919Y-95.354
X147.803Y-102.514
X150.343Y-102.514
X152.883Y-102.514
X155.423Y-102.514
X157.963Y-102.514
X160.503Y-102.514
X163.043Y-102.514
X165.583Y-102.514
T14
X98.582Y-116.653
X101.122Y-116.653
X109.292Y-116.653
X111.832Y-116.653
T15
X65.36Y-110.261
X69.489Y-52.807
X72.37Y-110.261
X76.499Y-52.807
T16
X118.148Y-78.807
X118.148Y-118.297
X135.598Y-78.807
X135.598Y-118.297
T17
X78.886Y-114.477
X95.146Y-114.477
T18
X97.462Y-109.523
X112.952Y-109.523
T0
M30
